<?xml version="1.0" standalone="no"?>
<!DOCTYPE svg PUBLIC "-//W3C//DTD SVG 1.1//EN" "http://www.w3.org/Graphics/SVG/1.1/DTD/svg11.dtd" >
<svg xmlns="http://www.w3.org/2000/svg" xmlns:xlink="http://www.w3.org/1999/xlink" version="1.1">
<metadata>
Created by FontForge 20200314 at Fri Jul 14 21:37:28 2023
 By Unknown
</metadata>
<defs>
<font id="MHeiHKS-Medium-Roman" horiz-adv-x="1000" vert-adv-y="1000" >
  <font-face 
    font-weight="500"
    font-stretch="normal"
    units-per-em="1000"
    panose-1="2 0 6 3 0 0 0 0 0 0"
    ascent="800"
    descent="-200"
    x-height="518"
    cap-height="739"
    bbox="-44 -210 982 895"
    underline-thickness="50"
    underline-position="-100"
    stemh="21"
    stemv="67"
    unicode-range="U+0020-2F9D4"
  />
<missing-glyph 
 />
    <glyph glyph-name=".notdef" 
 />
    <glyph glyph-name="CNS1.1" unicode=" " horiz-adv-x="278" 
 />
    <glyph glyph-name="CNS1.2" unicode="!" horiz-adv-x="278" 
d="M89 0v100h100v-100h-100zM111 178l-27 379v159h109v-159l-25 -379h-57z" />
    <glyph glyph-name="CNS1.3" unicode="&#x22;" horiz-adv-x="355" 
d="M71 462l-25 137v117h101v-117l-23 -137h-53zM232 462l-23 137v117h100v-117l-24 -137h-53z" />
    <glyph glyph-name="CNS1.4" unicode="#" horiz-adv-x="556" 
d="M52 -12l43 208h-83v72h97l37 178h-134v72h148l43 210h73l-42 -210h153l43 210h73l-42 -210h85v-72h-100l-36 -178h136v-72h-151l-42 -208h-74l43 208h-154l-42 -208h-74zM183 268h153l37 178h-154z" />
    <glyph glyph-name="CNS1.5" unicode="$" horiz-adv-x="556" 
d="M251 -14h-3c-126 0 -201 86 -210 213l88 16c11 -73 30 -110 71 -136c19 -12 28 -16 54 -20v280h-3c-63 16 -103 34 -134 59c-38 32 -61 85 -61 142c0 114 75 200 195 200h3v42h52v-42l3 -1c106 -8 173 -71 188 -176l-91 -13c-10 67 -43 105 -100 116v-254l3 -1
c20 -7 35 -9 44 -11c32 -9 61 -22 85 -39c49 -34 76 -90 76 -157c0 -122 -80 -218 -205 -218h-3v-89h-52v89zM251 425v242c-68 -11 -110 -58 -110 -122c0 -62 31 -94 107 -119zM303 326v-267c74 12 118 64 118 139c0 67 -40 111 -118 128z" />
    <glyph glyph-name="CNS1.6" unicode="%" horiz-adv-x="889" 
d="M60 537c0 118 58 191 151 191c95 0 155 -73 155 -190c0 -114 -61 -189 -155 -189c-91 0 -151 74 -151 188zM213 667c-52 0 -76 -42 -76 -132c0 -82 26 -125 76 -125c52 0 77 42 77 132c0 83 -27 125 -77 125zM523 161c0 118 58 191 151 191c95 0 155 -73 155 -189
c0 -115 -61 -190 -155 -190c-91 0 -151 74 -151 188zM676 292c-52 0 -76 -43 -76 -133c0 -82 26 -125 76 -125c52 0 77 42 77 132c0 83 -26 126 -77 126zM213 -27l392 755h71l-390 -755h-73z" />
    <glyph glyph-name="CNS1.7" unicode="&#x26;" horiz-adv-x="667" 
d="M644 53l-59 -70c-36 24 -71 56 -110 101c-58 -65 -125 -96 -205 -96c-128 0 -227 91 -227 210c0 88 56 158 170 213c-59 69 -80 110 -80 157c0 90 79 160 178 160c95 0 166 -66 166 -153c0 -69 -44 -126 -135 -174l129 -164c14 29 25 62 34 100l91 -19
c-17 -67 -35 -112 -64 -155c32 -42 72 -81 112 -110zM420 154l-161 200c-85 -51 -121 -96 -121 -151c0 -73 62 -137 133 -137c54 0 115 36 149 88zM258 503l39 -46c70 42 90 68 90 116s-34 83 -81 83s-83 -35 -83 -79c0 -24 11 -45 35 -74z" />
    <glyph glyph-name="CNS1.8" unicode="'" horiz-adv-x="191" 
d="M146 596l-24 -134h-54l-23 134v120h101v-120z" />
    <glyph glyph-name="CNS1.9" unicode="(" horiz-adv-x="333" 
d="M297 -210h-63c-25 31 -33 43 -57 84c-82 138 -117 253 -117 386c0 135 36 251 120 388c22 36 30 49 54 80h63l-6 -10c-84 -140 -98 -179 -122 -288c-12 -56 -18 -114 -18 -171c0 -121 25 -230 83 -354c23 -50 34 -69 63 -115z" />
    <glyph glyph-name="CNS1.10" unicode=")" horiz-adv-x="333" 
d="M99 -210h-63c29 46 40 65 63 115c58 124 83 233 83 354c0 124 -30 250 -85 360c-9 18 -26 51 -55 99l-6 10h63c24 -31 32 -44 54 -80c84 -137 121 -253 120 -389c0 -132 -35 -247 -117 -385c-24 -41 -32 -53 -57 -84z" />
    <glyph glyph-name="CNS1.11" unicode="*" horiz-adv-x="389" 
d="M33 584l23 70c55 -20 87 -33 112 -48l-1 11c-6 69 -8 82 -8 111h70c-1 -36 -1 -64 -9 -110l-2 -11c30 15 77 34 115 47l23 -70c-36 -12 -87 -23 -122 -27c5 -4 8 -6 9 -8c7 -6 17 -19 33 -36l34 -38l8 -10l-58 -42c-23 31 -34 50 -61 95l-6 10l-5 -9
c-25 -45 -38 -69 -59 -96l-57 42l6 7l35 42c24 28 26 31 40 43c-44 9 -80 17 -120 27z" />
    <glyph glyph-name="CNS1.12" unicode="+" horiz-adv-x="584" 
d="M250 116v196h-194v82h194v195h84v-195h194v-82h-194v-196h-84z" />
    <glyph glyph-name="CNS1.13" unicode="," horiz-adv-x="278" 
d="M87 0v100h100v-100c0 -75 -24 -116 -81 -141l-25 37c39 17 54 46 56 104h-50z" />
    <glyph glyph-name="CNS1.14" unicode="-" horiz-adv-x="333" 
d="M32 215v88h269v-88h-269z" />
    <glyph glyph-name="CNS1.15" unicode="." horiz-adv-x="278" 
d="M89 0v100h100v-100h-100z" />
    <glyph glyph-name="CNS1.16" unicode="/" horiz-adv-x="278" 
d="M0 -12l207 740h71l-207 -740h-71z" />
    <glyph glyph-name="CNS1.17" unicode="0" horiz-adv-x="556" 
d="M44 355c0 241 78 364 233 364s233 -123 233 -366s-78 -365 -233 -365c-93 0 -164 49 -200 139c-23 58 -33 129 -33 228zM134 354c0 -89 9 -157 26 -204c20 -56 65 -90 117 -90s97 34 117 90c17 46 26 115 26 203s-8 155 -26 204c-20 55 -65 89 -118 89
c-98 0 -142 -92 -142 -292z" />
    <glyph glyph-name="CNS1.18" unicode="1" horiz-adv-x="556" 
d="M287 0v560c-29 -28 -57 -47 -109 -75c-32 -17 -41 -21 -67 -31v85c95 44 174 114 207 180h57v-719h-88z" />
    <glyph glyph-name="CNS1.19" unicode="2" horiz-adv-x="556" 
d="M505 0h-476c5 41 10 58 24 86c27 54 73 106 145 165l33 27c132 108 182 176 182 244c0 72 -57 124 -135 124c-86 0 -139 -54 -140 -144l-90 10c12 134 94 207 232 207c133 0 224 -81 224 -199c0 -85 -50 -161 -176 -267l-72 -61c-59 -50 -83 -76 -103 -108h352v-84z" />
    <glyph glyph-name="CNS1.20" unicode="3" horiz-adv-x="556" 
d="M44 189l88 12c7 -33 9 -42 19 -63c22 -49 67 -78 121 -78c83 0 147 65 147 150c0 80 -58 138 -140 138c-19 0 -33 -2 -62 -9l10 77c7 -1 10 -1 14 -1c86 0 146 49 146 120c0 65 -49 111 -117 111c-71 0 -117 -46 -129 -129l-88 16c21 118 100 186 215 186
c119 0 209 -81 209 -186c0 -65 -34 -116 -98 -144v-2c32 -7 44 -12 63 -26c45 -31 71 -86 71 -149c0 -128 -104 -224 -241 -224c-125 0 -216 80 -228 201z" />
    <glyph glyph-name="CNS1.21" unicode="4" horiz-adv-x="556" 
d="M325 0v171h-310v81l326 464h72v-464h97v-81h-97v-171h-88zM325 252v323h-2l-222 -323h224z" />
    <glyph glyph-name="CNS1.22" unicode="5" horiz-adv-x="556" 
d="M44 188l92 7c13 -86 63 -135 138 -135c87 0 151 74 151 175c0 98 -61 162 -153 162c-55 0 -103 -25 -130 -69l-83 10l70 368h355v-84h-285l-39 -192c42 29 90 45 136 45c128 0 222 -99 222 -232c0 -148 -103 -255 -244 -255c-130 0 -219 77 -230 200z" />
    <glyph glyph-name="CNS1.23" unicode="6" horiz-adv-x="556" 
d="M500 541l-88 -8c-10 74 -50 113 -116 113c-65 0 -114 -35 -139 -98c-18 -46 -30 -112 -30 -165v-14h2c14 25 22 34 40 49c37 29 84 46 132 46c121 0 211 -99 211 -231c0 -143 -93 -245 -224 -245c-91 0 -172 49 -210 128c-27 56 -38 123 -38 219c0 251 88 384 256 384
c114 0 189 -66 204 -178zM141 233c0 -98 63 -173 145 -173c79 0 136 70 136 167c0 95 -56 160 -139 160c-82 0 -142 -66 -142 -154z" />
    <glyph glyph-name="CNS1.24" unicode="7" horiz-adv-x="556" 
d="M240 0h-90c2 97 32 226 81 345c31 75 63 133 111 202c25 36 34 47 58 75h-350v84h463v-68c-90 -91 -155 -194 -203 -323c-39 -106 -65 -221 -70 -315z" />
    <glyph glyph-name="CNS1.25" unicode="8" horiz-adv-x="556" 
d="M179 388v-1v2c-29 10 -40 15 -55 28c-34 27 -53 69 -53 117c0 108 86 185 206 185c121 0 208 -79 208 -187c0 -70 -35 -117 -105 -143v-2c34 -10 46 -16 67 -32c43 -34 67 -89 67 -150c0 -126 -99 -217 -235 -217c-138 0 -236 91 -236 219c0 61 24 115 66 149
c21 17 34 23 70 32zM162 534c0 -64 49 -112 117 -112c66 0 116 47 116 110c0 65 -51 114 -117 114s-116 -48 -116 -112zM133 206c0 -84 62 -146 147 -146c84 0 144 60 144 144s-62 146 -147 146c-83 0 -144 -62 -144 -144z" />
    <glyph glyph-name="CNS1.26" unicode="9" horiz-adv-x="556" 
d="M57 166l84 7c14 -77 52 -113 119 -113c54 0 101 29 126 78s41 117 41 181v18h-2c-35 -58 -101 -94 -169 -94c-123 0 -212 98 -212 234c0 142 93 242 225 242c71 0 136 -31 179 -86c47 -59 66 -134 66 -260s-15 -202 -54 -270c-43 -75 -114 -115 -202 -115
c-114 0 -187 64 -201 178zM134 480c0 -95 56 -160 140 -160c83 0 143 65 143 154c0 97 -64 172 -146 172c-80 0 -137 -70 -137 -166z" />
    <glyph glyph-name="CNS1.27" unicode=":" horiz-adv-x="278" 
d="M89 0v100h100v-100h-100zM89 418v100h100v-100h-100z" />
    <glyph glyph-name="CNS1.28" unicode=";" horiz-adv-x="278" 
d="M87 0v100h100v-100c0 -75 -24 -116 -81 -141l-25 37c39 17 54 46 56 104h-50zM87 418v100h100v-100h-100z" />
    <glyph glyph-name="CNS1.29" unicode="&#x3c;" horiz-adv-x="584" 
d="M55 313v82l474 200v-87l-376 -154l376 -156v-87z" />
    <glyph glyph-name="CNS1.30" unicode="=" horiz-adv-x="584" 
d="M528 204h-472v81h472v-81zM528 421h-472v82h472v-82z" />
    <glyph glyph-name="CNS1.31" unicode="&#x3e;" horiz-adv-x="584" 
d="M529 313l-474 -202v87l376 156l-376 154v87l474 -200v-82z" />
    <glyph glyph-name="CNS1.32" unicode="?" horiz-adv-x="556" 
d="M317 176h-84c-1 12 -1 21 -1 27c0 46 9 84 27 114c18 31 32 46 87 94c56 50 72 75 72 116c0 70 -63 129 -139 129c-79 0 -128 -50 -143 -145l-90 10c17 134 99 207 232 207s230 -82 230 -195c0 -55 -21 -100 -69 -147c-12 -11 -25 -23 -39 -36c-60 -53 -72 -71 -79 -113
c-3 -20 -3 -26 -4 -61zM227 0v100h100v-100h-100z" />
    <glyph glyph-name="CNS1.33" unicode="@" horiz-adv-x="1015" 
d="M893 9h89c-21 -42 -58 -84 -107 -121c-89 -68 -190 -98 -324 -98c-308 0 -494 166 -494 439c0 178 86 346 219 430c72 46 164 70 265 70c241 0 417 -160 417 -381c0 -180 -143 -350 -294 -350c-64 0 -89 21 -94 82c-45 -52 -99 -81 -150 -81c-100 0 -177 95 -177 219
c0 158 124 311 253 311c60 0 112 -31 148 -90l16 76h88l-71 -328l-7 -34c-6 -27 -7 -34 -7 -41c0 -18 15 -33 34 -33c23 0 63 22 94 51c59 56 94 138 94 220c0 176 -149 308 -349 308c-235 0 -407 -178 -407 -421c0 -237 156 -375 421 -375c105 0 184 20 257 67
c45 28 59 41 86 80zM333 210c0 -80 45 -139 105 -139c91 0 178 120 178 246c0 84 -45 140 -113 140c-88 0 -170 -119 -170 -247z" />
    <glyph glyph-name="CNS1.34" unicode="A" horiz-adv-x="667" 
d="M-1 0l275 716h102l292 -716h-107l-84 217h-299l-79 -217h-100zM205 294h243l-75 198c-29 76 -36 98 -49 149h-2c-8 -42 -23 -96 -38 -137z" />
    <glyph glyph-name="CNS1.35" unicode="B" horiz-adv-x="667" 
d="M73 -1l1 717h268c101 0 158 -22 200 -75c24 -31 37 -70 37 -108c0 -66 -35 -120 -99 -152c86 -26 134 -88 134 -175c0 -80 -45 -152 -113 -181c-44 -19 -81 -26 -155 -26h-273zM168 84h178c64 0 77 2 109 18c38 18 61 58 61 105c0 50 -26 91 -68 108
c-32 13 -50 16 -114 16h-166v-247zM168 415h155c64 0 80 2 108 15c35 15 55 48 55 91c0 49 -25 88 -64 100c-25 7 -56 10 -111 10h-143v-216z" />
    <glyph glyph-name="CNS1.36" unicode="C" horiz-adv-x="722" 
d="M589 251l95 -24c-40 -154 -145 -239 -296 -239c-145 0 -242 57 -294 173c-28 62 -43 130 -43 202c0 222 133 365 338 365c143 0 244 -74 283 -209l-93 -22c-34 103 -93 150 -192 150c-150 0 -238 -105 -238 -283c0 -187 84 -295 231 -295c111 0 184 64 209 182z" />
    <glyph glyph-name="CNS1.37" unicode="D" horiz-adv-x="722" 
d="M79 -1v717h246c101 0 128 -5 181 -28c29 -13 56 -34 78 -59c58 -68 86 -154 86 -266c0 -155 -56 -275 -153 -327c-52 -27 -97 -37 -180 -37h-258zM173 84h153c71 0 111 8 144 27c67 40 103 127 103 253c0 84 -15 142 -49 191c-16 23 -37 41 -61 54c-35 18 -60 22 -139 22
h-151v-547z" />
    <glyph glyph-name="CNS1.38" unicode="E" horiz-adv-x="667" 
d="M79 0v716h518v-85h-423v-219h396v-84h-396v-244h440v-84h-535z" />
    <glyph glyph-name="CNS1.39" unicode="F" horiz-adv-x="611" 
d="M80 0v716h483v-85h-388v-222h336v-84h-336v-325h-95z" />
    <glyph glyph-name="CNS1.40" unicode="G" horiz-adv-x="778" 
d="M714 365v-265c-96 -77 -190 -112 -297 -112c-220 0 -365 145 -365 367c0 146 65 273 169 329c54 29 119 44 189 44c124 0 218 -47 264 -132c14 -27 19 -40 29 -80l-86 -24c-10 36 -14 47 -24 64c-33 58 -100 91 -182 91c-164 0 -262 -107 -262 -286
c0 -182 98 -288 264 -288c54 0 97 12 155 41c29 15 36 18 53 33v134h-210v84h303z" />
    <glyph glyph-name="CNS1.41" unicode="H" horiz-adv-x="722" 
d="M80 0v716h95v-294h372v294h95v-716h-95v337h-372v-337h-95z" />
    <glyph glyph-name="CNS1.42" unicode="I" horiz-adv-x="278" 
d="M92 0v716h95v-716h-95z" />
    <glyph glyph-name="CNS1.43" unicode="J" horiz-adv-x="500" 
d="M27 203l85 12c2 -52 9 -80 24 -103c16 -25 47 -40 83 -40c44 0 80 21 94 54c10 24 13 41 13 97v493h94v-488c0 -62 -7 -106 -22 -141c-28 -63 -94 -99 -179 -99c-110 0 -172 52 -189 159c-2 16 -3 31 -3 46v10z" />
    <glyph glyph-name="CNS1.44" unicode="K" horiz-adv-x="667" 
d="M74 0v716h94v-355l356 355h128l-300 -290l313 -426h-125l-254 362l-118 -114v-248h-94z" />
    <glyph glyph-name="CNS1.45" unicode="L" horiz-adv-x="556" 
d="M75 0v716h95v-632h353v-84h-448z" />
    <glyph glyph-name="CNS1.46" unicode="M" horiz-adv-x="833" 
d="M74 0v716h139l173 -513c13 -40 26 -78 33 -106h2c11 38 20 63 38 115l175 504h123v-716h-96l14 566l1 43l1 16l-2 2l-5 -22l-24 -67l-188 -538h-85l-213 627l-2 -2l1 -17l1 -80l11 -528h-97z" />
    <glyph glyph-name="CNS1.47" unicode="N" horiz-adv-x="722" 
d="M78 0v716h97l310 -464c42 -63 61 -93 83 -141l2 2c-8 43 -15 120 -15 172l-4 431h91v-716h-97l-360 537c-10 14 -16 24 -28 50l-2 -2l1 -15c2 -31 5 -63 5 -81l8 -489h-91z" />
    <glyph glyph-name="CNS1.48" unicode="O" horiz-adv-x="778" 
d="M47 356c0 222 137 372 342 372c204 0 343 -149 343 -371c0 -219 -140 -369 -343 -369c-201 0 -342 151 -342 368zM145 356c0 -175 95 -287 244 -287s245 112 245 288s-96 290 -243 290c-153 0 -246 -110 -246 -291z" />
    <glyph glyph-name="CNS1.49" unicode="P" horiz-adv-x="667" 
d="M77 0v716h270c87 0 111 -3 156 -19c74 -26 120 -99 120 -190c0 -85 -43 -158 -112 -189c-43 -20 -84 -27 -156 -27h-183v-291h-95zM172 375h185c48 0 80 6 108 20c38 19 61 60 61 110c0 22 -5 45 -15 64c-25 51 -53 62 -156 62h-183v-256z" />
    <glyph glyph-name="CNS1.50" unicode="Q" horiz-adv-x="778" 
d="M564 28l-6 4c-66 -37 -96 -44 -175 -44c-201 0 -341 152 -341 370c0 220 138 370 342 370c203 0 342 -149 342 -369c0 -117 -37 -214 -108 -282c37 -26 91 -55 122 -67l-28 -66c-52 19 -98 51 -148 84zM387 129l23 69c57 -16 97 -37 135 -69c55 51 83 129 83 230
c0 175 -95 288 -243 288c-152 0 -246 -110 -246 -289c0 -178 95 -289 246 -289c42 0 58 3 96 19c-31 20 -60 33 -94 41z" />
    <glyph glyph-name="CNS1.51" unicode="R" horiz-adv-x="722" 
d="M80 0v716h317c76 0 105 -4 144 -19c67 -25 112 -95 112 -176c0 -110 -70 -177 -202 -194v-2c31 -14 44 -22 62 -40c25 -23 53 -58 73 -90l125 -195h-119l-95 149c-41 64 -49 75 -73 105c-17 21 -35 37 -53 47c-25 15 -35 17 -86 17h-110v-318h-95zM175 400h204
c59 0 83 4 114 18c37 18 62 58 62 102c0 40 -22 79 -55 97c-26 14 -53 20 -99 20h-226v-237z" />
    <glyph glyph-name="CNS1.52" unicode="S" horiz-adv-x="667" 
d="M45 230l90 8c4 -38 7 -51 19 -73c31 -57 104 -92 192 -92c107 0 177 48 177 122c0 38 -20 70 -54 87c-34 18 -49 23 -162 50c-94 23 -129 36 -168 65c-43 32 -66 80 -66 134c0 118 101 197 251 197c163 0 264 -80 269 -214l-91 -7c-10 94 -65 137 -174 137
c-102 0 -164 -40 -164 -107c0 -60 35 -84 170 -114c112 -25 146 -36 190 -62c58 -34 91 -91 91 -159c0 -125 -110 -214 -265 -214c-189 0 -301 89 -305 242z" />
    <glyph glyph-name="CNS1.53" unicode="T" horiz-adv-x="611" 
d="M257 0v631h-235v85h567v-85h-237v-631h-95z" />
    <glyph glyph-name="CNS1.54" unicode="U" horiz-adv-x="722" 
d="M548 716h95v-414c0 -96 -7 -138 -32 -188c-41 -81 -128 -126 -245 -126c-129 0 -217 43 -255 126c-24 53 -31 94 -31 188v414h95v-413c0 -67 6 -109 19 -142c23 -55 83 -88 163 -88c90 0 151 31 173 88c14 36 18 76 18 142v413z" />
    <glyph glyph-name="CNS1.55" unicode="V" horiz-adv-x="667" 
d="M282 0l-277 716h102l186 -520l15 -39c5 -13 12 -32 17 -56l5 -22h2c12 44 22 76 37 117l194 520h96l-280 -716h-97z" />
    <glyph glyph-name="CNS1.56" unicode="W" horiz-adv-x="944" 
d="M201 0l-191 716h97l110 -470c12 -50 23 -91 27 -128l2 -18h2l4 22l14 62l13 49l136 483h115l102 -362c23 -80 46 -184 55 -254h2c8 48 19 96 34 156l113 460h95l-197 -716h-91l-151 545l-15 53l-6 32h-2c-8 -40 -12 -55 -20 -85l-152 -545h-96z" />
    <glyph glyph-name="CNS1.57" unicode="X" horiz-adv-x="667" 
d="M5 0l277 373l-245 343h113l130 -184c32 -45 44 -64 57 -88c5 7 8 13 11 16c2 4 8 13 19 28c15 22 25 35 27 38l144 190h103l-251 -337l271 -379h-117l-180 255c-13 18 -19 27 -32 48l-5 -9l-29 -45l-179 -249h-114z" />
    <glyph glyph-name="CNS1.58" unicode="Y" horiz-adv-x="667" 
d="M279 0v303l-276 413h115l141 -216c31 -47 47 -70 66 -107l7 -14c21 37 50 83 78 126l139 211h110l-285 -413v-303h-95z" />
    <glyph glyph-name="CNS1.59" unicode="Z" horiz-adv-x="611" 
d="M18 0v88l367 458c24 30 52 63 74 85h-399v85h512v-85l-401 -496c-2 -2 -12 -14 -32 -37c-3 -3 -7 -8 -12 -14h457v-84h-566z" />
    <glyph glyph-name="CNS1.60" unicode="[" horiz-adv-x="278" 
d="M66 -199v915h194v-73h-106v-769h106v-73h-194z" />
    <glyph glyph-name="CNS1.61" unicode="\" horiz-adv-x="278" 
d="M207 -12l-207 740h71l207 -740h-71z" />
    <glyph glyph-name="CNS1.62" unicode="]" horiz-adv-x="278" 
d="M212 -199h-194v73h106v769h-106v73h194v-915z" />
    <glyph glyph-name="CNS1.63" unicode="^" horiz-adv-x="469" 
d="M116 337h-90l173 391h71l173 -391h-89l-120 292z" />
    <glyph glyph-name="CNS1.64" unicode="_" horiz-adv-x="556" 
d="M-13 -199v64h582v-64h-582z" />
    <glyph glyph-name="CNS1.65" unicode="`" horiz-adv-x="333" 
d="M227 583h-71l-113 137h118z" />
    <glyph glyph-name="CNS1.66" unicode="a" horiz-adv-x="556" 
d="M516 0h-92c-10 20 -15 37 -18 64c-62 -53 -120 -76 -191 -76c-108 0 -177 58 -177 149c0 71 45 126 124 148c22 6 35 9 80 14c69 8 124 19 157 30v23c0 74 -37 106 -125 106c-83 0 -116 -25 -135 -99l-86 11c8 36 12 48 23 67c36 62 107 93 210 93c102 0 168 -30 189 -87
c11 -28 13 -43 13 -108v-118c0 -115 1 -134 7 -164c5 -23 9 -32 21 -53zM399 228v32c-30 -12 -83 -24 -144 -33c-92 -13 -123 -35 -123 -88c0 -50 40 -82 105 -82c49 0 95 18 124 49c29 30 38 60 38 122z" />
    <glyph glyph-name="CNS1.67" unicode="b" horiz-adv-x="556" 
d="M149 0h-82v716h88v-256h2c36 48 81 70 140 70c132 0 220 -105 220 -263c0 -166 -91 -279 -224 -279c-60 0 -110 27 -142 77h-2v-65zM148 263v-14c0 -116 52 -188 138 -188s141 78 141 199c0 122 -52 198 -138 198c-84 0 -141 -72 -141 -195z" />
    <glyph glyph-name="CNS1.68" unicode="c" horiz-adv-x="500" 
d="M404 190l87 -11c-19 -119 -100 -191 -216 -191c-147 0 -236 102 -236 270c0 170 89 272 237 272c74 0 139 -30 174 -81c18 -25 24 -41 32 -83l-85 -13c-16 69 -57 105 -118 105c-96 0 -150 -71 -150 -198c0 -129 52 -199 145 -199c50 0 94 26 114 68c9 20 12 29 16 61z
" />
    <glyph glyph-name="CNS1.69" unicode="d" horiz-adv-x="556" 
d="M404 0v66h-2c-30 -51 -80 -78 -143 -78c-130 0 -223 113 -223 271c0 165 86 271 220 271c59 0 109 -25 140 -71h2v257h88v-716h-82zM126 258c0 -120 56 -197 142 -197c85 0 138 72 138 190c0 129 -53 207 -142 207c-87 0 -138 -75 -138 -200z" />
    <glyph glyph-name="CNS1.70" unicode="e" horiz-adv-x="556" 
d="M423 167l90 -11c-29 -109 -109 -168 -227 -168c-155 0 -248 100 -248 267c0 168 94 275 243 275c144 0 236 -105 236 -270c0 -5 -1 -13 -1 -23h-387c6 -110 66 -176 157 -176c67 0 111 33 137 106zM134 309h290c-3 35 -5 45 -14 66c-20 49 -72 83 -129 83
c-81 0 -141 -61 -147 -149z" />
    <glyph glyph-name="CNS1.71" unicode="f" horiz-adv-x="278" 
d="M85 0v450h-77v68h77v56c0 50 4 70 17 94c23 40 65 60 127 60c26 0 50 -3 82 -9l-13 -77c-20 4 -35 5 -52 5c-56 0 -73 -19 -73 -80v-49h101v-68h-101v-450h-88z" />
    <glyph glyph-name="CNS1.72" unicode="g" horiz-adv-x="556" 
d="M52 -43l85 -13c8 -55 46 -82 119 -82c58 0 104 21 124 55c18 31 22 56 22 125v26c-39 -46 -85 -68 -144 -68c-132 0 -224 107 -224 262c0 162 89 268 225 268c62 0 111 -24 149 -74h2v62h81v-448c0 -118 -16 -177 -58 -218c-43 -41 -102 -62 -176 -62
c-126 0 -206 60 -206 156c0 3 0 7 1 11zM124 263c0 -119 54 -190 143 -190c27 0 53 8 75 24c47 33 67 82 67 169c0 117 -56 192 -144 192c-87 0 -141 -75 -141 -195z" />
    <glyph glyph-name="CNS1.73" unicode="h" horiz-adv-x="556" 
d="M68 0v716h87v-257c42 48 92 71 157 71c68 0 128 -28 154 -73c18 -31 24 -65 24 -129v-328h-88v328c0 42 -6 69 -21 88c-18 23 -53 38 -89 38c-47 0 -94 -25 -115 -62c-16 -27 -22 -54 -22 -108v-284h-87z" />
    <glyph glyph-name="CNS1.74" unicode="i" horiz-adv-x="222" 
d="M68 0v518h88v-518h-88zM68 615v101h88v-101h-88z" />
    <glyph glyph-name="CNS1.75" unicode="j" horiz-adv-x="222" 
d="M-44 -201l17 75c19 -6 30 -7 41 -7c35 0 49 18 51 65l2 42v544h88v-546c0 -104 -18 -148 -67 -170c-20 -9 -39 -12 -63 -12s-47 3 -69 9zM67 614v102h88v-102h-88z" />
    <glyph glyph-name="CNS1.76" unicode="k" horiz-adv-x="500" 
d="M66 0v716h88v-408l208 210h114l-198 -192l218 -326h-108l-172 265l-62 -59v-206h-88z" />
    <glyph glyph-name="CNS1.77" unicode="l" horiz-adv-x="222" 
d="M66 0v716h87v-716h-87z" />
    <glyph glyph-name="CNS1.78" unicode="m" horiz-adv-x="833" 
d="M66 0v518h78v-72h2c34 54 89 84 155 84c76 0 126 -31 147 -91c42 63 92 91 161 91c63 0 116 -27 140 -73c14 -28 19 -54 19 -101v-356h-87v327c0 93 -26 127 -93 127c-42 0 -82 -20 -104 -54c-17 -25 -23 -50 -23 -99v-301h-87v337c0 81 -29 117 -93 117
c-45 0 -87 -24 -106 -60c-16 -31 -22 -60 -22 -125v-269h-87z" />
    <glyph glyph-name="CNS1.79" unicode="n" horiz-adv-x="556" 
d="M68 0v518h79v-73h2c36 56 93 85 164 85c69 0 128 -29 154 -76c20 -36 23 -53 23 -135v-319h-88v315c0 56 -4 74 -20 98c-17 26 -51 41 -89 41c-51 0 -99 -26 -119 -65c-13 -26 -18 -57 -18 -106v-283h-88z" />
    <glyph glyph-name="CNS1.80" unicode="o" horiz-adv-x="556" 
d="M35 259c0 113 35 189 108 234c40 24 86 37 135 37c148 0 243 -103 243 -263c0 -121 -33 -194 -108 -241c-39 -24 -86 -38 -135 -38c-106 0 -196 61 -225 151c-12 37 -18 77 -18 120zM125 259c0 -123 58 -198 153 -198c96 0 153 75 153 201c0 120 -59 196 -153 196
c-95 0 -153 -75 -153 -199z" />
    <glyph glyph-name="CNS1.81" unicode="p" horiz-adv-x="556" 
d="M68 -199v717h80v-67h2c37 55 82 79 148 79c133 0 220 -105 220 -267s-93 -275 -226 -275c-54 0 -102 23 -134 66h-2v-253h-88zM147 250c0 -116 54 -189 139 -189c88 0 142 77 142 203c0 121 -53 197 -138 197c-86 0 -143 -84 -143 -211z" />
    <glyph glyph-name="CNS1.82" unicode="q" horiz-adv-x="556" 
d="M399 -199v254h-2c-28 -41 -80 -67 -135 -67c-132 0 -225 114 -225 276c0 161 87 266 219 266c64 0 114 -26 149 -81h2v69h79v-717h-87zM127 258c0 -120 56 -197 143 -197c84 0 137 74 137 191c0 126 -57 209 -143 209c-85 0 -137 -76 -137 -203z" />
    <glyph glyph-name="CNS1.83" unicode="r" horiz-adv-x="333" 
d="M65 0v518h79v-78h2c35 68 63 90 110 90c31 0 59 -9 90 -28l-30 -81c-22 13 -43 19 -65 19c-64 0 -99 -60 -99 -168v-272h-87z" />
    <glyph glyph-name="CNS1.84" unicode="s" horiz-adv-x="500" 
d="M31 155l87 13c10 -71 55 -108 134 -108c72 0 119 33 119 83c0 36 -22 54 -87 70l-58 14c-56 14 -91 27 -119 43c-38 21 -62 64 -62 111c0 89 77 149 191 149c94 0 161 -30 189 -86c9 -18 12 -28 17 -59l-86 -12c-8 56 -46 85 -114 85c-70 0 -112 -25 -112 -67
c0 -39 14 -48 122 -76c71 -19 101 -29 129 -41c53 -22 81 -64 81 -122c0 -96 -86 -164 -209 -164c-132 0 -202 52 -222 167z" />
    <glyph glyph-name="CNS1.85" unicode="t" horiz-adv-x="278" 
d="M256 79l13 -78c-28 -6 -44 -8 -67 -8c-58 0 -98 20 -112 57c-9 24 -10 34 -10 102v298h-64v68h64v129l88 53v-182h88v-68h-88v-303c0 -59 9 -72 50 -72c11 0 21 1 38 4z" />
    <glyph glyph-name="CNS1.86" unicode="u" horiz-adv-x="556" 
d="M408 0v76h-2c-38 -58 -94 -88 -164 -88c-66 0 -127 30 -152 76c-21 37 -24 55 -24 133v321h88v-287c0 -70 0 -78 8 -103c12 -39 51 -64 100 -64c51 0 100 28 119 69c13 27 18 52 18 108v277h87v-518h-78z" />
    <glyph glyph-name="CNS1.87" unicode="v" horiz-adv-x="500" 
d="M210 0l-197 518h93l111 -310c13 -36 22 -65 32 -105h2c8 33 16 56 32 99l115 316h90l-196 -518h-82z" />
    <glyph glyph-name="CNS1.88" unicode="w" horiz-adv-x="722" 
d="M163 0l-158 518h91l82 -299l8 -31l15 -53l7 -27h2l5 27l11 40l10 40l82 303h91l77 -300c2 -8 5 -21 10 -37c9 -33 10 -39 15 -62h2c5 22 6 25 16 58c5 15 9 29 13 42l89 299h85l-162 -518h-91l-83 311l-17 76l-2 12h-2l-104 -399h-92z" />
    <glyph glyph-name="CNS1.89" unicode="x" horiz-adv-x="500" 
d="M7 0l190 270l-175 248h109l80 -121c20 -31 24 -37 36 -58c16 24 22 32 40 57l87 122h105l-179 -243l193 -275h-108l-106 161l-18 27l-11 17l-136 -205h-107z" />
    <glyph glyph-name="CNS1.90" unicode="y" horiz-adv-x="500" 
d="M62 -200l-9 83c22 -6 34 -8 50 -8c56 0 71 15 102 103c2 4 5 11 8 21l-197 519h95l108 -300c15 -41 26 -75 37 -120h2c10 47 19 76 35 119l110 301h89l-198 -527l-18 -49c-40 -110 -85 -152 -157 -152c-19 0 -33 2 -57 10z" />
    <glyph glyph-name="CNS1.91" unicode="z" horiz-adv-x="500" 
d="M20 0v71l330 379c-44 -2 -62 -3 -99 -3h-212v71h424v-57l-281 -329c-2 -3 -16 -19 -43 -48c-2 -3 -6 -7 -11 -13c7 1 12 1 16 1c21 1 34 3 38 3h13h44h240v-75h-459z" />
    <glyph glyph-name="CNS1.92" unicode="{" horiz-adv-x="334" 
d="M28 219v80c23 0 33 2 47 10c44 24 54 57 54 179c1 133 5 159 34 196c25 33 54 44 121 44h27v-76h-15c-70 0 -84 -18 -84 -101v-72c0 -102 -15 -157 -53 -190c-16 -14 -23 -18 -49 -30c76 -32 102 -88 102 -221v-71c0 -84 14 -101 84 -101h15v-76h-27
c-67 0 -97 11 -121 44c-29 38 -33 63 -34 196c0 122 -10 154 -54 178c-14 8 -24 11 -47 11z" />
    <glyph glyph-name="CNS1.93" unicode="|" horiz-adv-x="260" 
d="M92 -210v938h76v-938h-76z" />
    <glyph glyph-name="CNS1.94" unicode="}" horiz-adv-x="334" 
d="M306 299v-80c-23 0 -33 -3 -47 -11c-44 -24 -54 -56 -54 -178c-1 -133 -6 -159 -34 -196c-26 -34 -54 -44 -121 -44h-27v76h15c70 0 84 18 84 101v71c0 133 26 189 102 221c-46 22 -68 43 -82 78c-14 37 -20 77 -20 142v72c0 83 -14 101 -84 101h-15v76h27
c67 0 97 -11 121 -44c29 -38 33 -63 34 -196c0 -122 10 -155 54 -179c14 -8 24 -10 47 -10z" />
    <glyph glyph-name="CNS1.95" unicode="~" horiz-adv-x="584" 
d="M43 272v100c33 38 82 59 135 59c38 0 79 -10 134 -34l39 -17c23 -10 45 -15 65 -15c40 0 87 25 126 67v-103c-43 -40 -82 -56 -135 -56c-39 0 -69 8 -119 30l-30 13c-32 14 -63 22 -88 22c-44 0 -75 -15 -127 -66z" />
    <glyph glyph-name="CNS1.96" horiz-adv-x="737" 
d="M737 360c0 -204 -165 -369 -368 -369c-204 0 -369 165 -369 369c0 203 165 368 369 368c203 0 368 -165 368 -368zM676 360c0 169 -138 307 -307 307c-170 0 -308 -138 -308 -307c0 -170 138 -308 308 -308c169 0 307 138 307 308zM547 282c-20 -83 -88 -134 -178 -134
c-118 0 -193 83 -193 211s75 207 197 207c85 0 145 -41 166 -115l-58 -14c-19 48 -58 75 -110 75c-78 0 -129 -61 -129 -155s47 -151 124 -151c60 0 106 36 121 94z" />
    <glyph glyph-name="CNS1.100" unicode="&#xff0c;" 
d="M449 362v100h100v-100c0 -34 0 -106 -82 -141l-24 37c47 21 54 62 55 104h-49z" />
    <glyph glyph-name="CNS1.537" unicode="&#xf6cf;" 
d="M580 229c-58 81 -190 225 -286 290l58 54c85 -53 235 -205 292 -290z" />
    <glyph glyph-name="CNS1.554" unicode="&#xf6e0;" 
d="M104 -6v58h639v290h-525v58h525v301h-570v58h630v-707h143v-58h-842z" />
    <glyph glyph-name="CNS1.558" unicode="&#xf6e4;" 
d="M560 696c-31 32 -74 61 -116 83l31 42c39 -14 92 -48 128 -87zM282 611v-271c0 -81 -17 -157 -47 -225c-26 -60 -72 -123 -131 -175l-46 48c107 86 157 198 162 325l-134 -73l-44 53c72 29 117 52 178 87v288h678v-57h-616zM137 433c-21 68 -46 113 -67 147l46 31
c36 -47 60 -96 73 -152z" />
    <glyph glyph-name="CNS1.560" unicode="&#xf6e6;" 
d="M233 662l-62 66c195 -5 406 26 563 97l56 -57c-179 -70 -384 -100 -557 -106zM250 513l-63 67c187 -2 379 41 552 101l55 -45c-178 -71 -378 -105 -544 -123zM928 -12l-362 -2c-119 -1 -217 56 -305 132c-20 -74 -80 -144 -150 -190l-58 41c121 70 174 112 178 379h60
c-1 -64 -4 -107 -15 -166c58 -52 118 -98 192 -117v344c-114 -19 -216 -30 -298 -35l-44 58c206 2 478 50 643 122l51 -56c-80 -31 -180 -56 -289 -78v-125h288v-59l-288 1v-184c78 -10 150 -11 222 -9c68 2 136 7 203 8z" />
    <glyph glyph-name="CNS1.562" unicode="&#x2400;" 
d="M748 18h-164v731h58v-672h106v-59zM820 78h109v-60h-166v731h57v-671zM308 18h-58l-94 434l-2 -434h-59v731h61l91 -429l2 429h59v-731zM545 749v-632c0 -45 -29 -78 -63 -91c-33 -13 -72 -5 -97 16s-34 49 -34 82v625h59v-615c3 -22 8 -48 31 -54c9 -1 17 1 24 5
c25 20 22 53 22 83v581h58z" />
    <glyph glyph-name="CNS1.13649" horiz-adv-x="500" 
d="M294 596l-21 -379h-45l-21 379v160h87v-160zM289 37h-79v101h79v-101z" />
    <glyph glyph-name="CNS1.13754" unicode="&#xf6f0;" 
d="M516 185c33 -25 98 -73 149 -123l-50 -53c-106 89 -211 167 -325 242l45 54c41 -25 77 -47 123 -80c81 91 149 191 211 294h-359c-33 -55 -75 -113 -111 -161l-58 42c45 59 81 115 117 172c26 42 71 126 109 204l66 -27c-28 -62 -56 -112 -88 -166h388l45 -29
c-87 -143 -158 -245 -262 -369z" />
    <glyph glyph-name="CNS1.14124" unicode="&#xe312;" 
 />
    <glyph glyph-name="CNS1.14125" unicode="&#x26ed3;" 
 />
    <glyph glyph-name="CNS1.14126" unicode="&#xe314;" 
d="M927 468c-31 11 -62 29 -89 47c-29 20 -54 41 -86 66v-44h-217v46c-47 -42 -101 -83 -161 -115l-45 45c137 56 244 198 303 324l54 -24c-2 -10 -5 -17 -10 -27c47 -73 102 -152 174 -203c35 -25 71 -45 116 -63zM730 238l-52 32c39 42 64 81 81 127h-306v63h382
c-6 -84 -49 -169 -105 -222zM910 8c-32 61 -77 117 -140 153l51 34c59 -30 104 -89 140 -148zM682 127c-28 49 -68 92 -120 124l41 38c49 -24 92 -73 124 -120zM718 -26h-141c-31 0 -70 31 -70 67v171h60v-151c-3 -20 8 -30 31 -30l109 -1c20 2 30 19 36 37c5 15 8 34 12 52
l58 -20c-10 -57 -41 -125 -95 -125zM262 492c-1 -91 -1 -116 -2 -135c0 -18 0 -30 -3 -94c36 -26 81 -65 103 -93l-42 -48c-19 25 -53 64 -73 81c-23 -99 -76 -183 -153 -261l-44 44c130 109 154 283 154 383v460h60v-268c31 31 51 60 71 92c6 -5 15 -12 23 -19
c9 -8 18 -16 25 -22c-35 -42 -81 -94 -119 -120zM93 366c-20 9 -35 16 -54 25c35 75 53 161 50 252l55 -19c0 -94 -12 -179 -51 -258zM355 2l-49 44c56 43 99 96 127 157l50 -28c-26 -67 -71 -123 -128 -173zM647 731c-37 -59 -65 -99 -103 -136l200 -1
c-30 33 -72 90 -97 137z" />
    <glyph glyph-name="CNS1.14129" unicode="&#x28be9;" 
 />
    <glyph glyph-name="CNS1.14130" unicode="&#xe319;" 
 />
    <glyph glyph-name="CNS1.14131" unicode="&#xe31a;" 
d="M922 542c-43 -34 -95 -55 -149 -65c-13 15 -24 33 -37 50c54 8 107 25 153 58zM935 397l-32 -51c-48 36 -104 61 -164 65l29 49c62 -6 117 -31 167 -63zM723 392h-62v194l62 1v-195zM635 523l-30 -50c-38 37 -97 55 -154 60l29 49c57 -9 100 -16 155 -59zM632 406
l-154 -52l-39 50c66 14 129 38 193 58c1 -18 0 -37 0 -56zM904 605l-477 1l1 -221c1 -126 3 -257 -55 -359c-18 -33 -37 -66 -62 -96l-5 1l-47 41c54 65 96 137 102 223l5 76l-3 521h541v-187zM948 76l-225 -1v-144l-62 -1v145h-233v59h232v90h-114c-13 -30 -28 -59 -50 -84
l-56 32c48 46 70 104 74 169c-3 2 2 5 1 7l52 -19c3 -15 -3 -30 -5 -46h99v88l62 -1l1 -88l180 1v-59l-181 -1v-88h225v-59zM354 307c-17 -14 -37 -22 -54 -35c-12 49 -33 96 -68 134v-477h-62v395c-9 -18 -15 -42 -24 -62c-20 -47 -44 -93 -74 -135l-53 42
c79 100 123 221 144 347h-115v60h120v142c-31 -5 -63 -13 -96 -15c-14 16 -29 37 -42 56c95 8 185 28 265 72l41 -44c-31 -22 -68 -37 -105 -49l-1 -162h108v-60h-106v-80l30 21c41 -46 74 -94 92 -150zM842 664v68l-415 1l1 -68z" />
    <glyph glyph-name="CNS1.14133" unicode="&#x294d9;" 
 />
    <glyph glyph-name="CNS1.14134" unicode="&#xe31d;" 
 />
    <glyph glyph-name="CNS1.14135" unicode="&#xe31e;" 
 />
    <glyph glyph-name="CNS1.14136" unicode="&#x259ac;" 
d="M868 543l-36 -49c-81 72 -184 131 -292 155l37 42c69 -13 216 -79 291 -148zM896 613h-62v91h-681v-91h-62v150l377 -1c-18 22 -42 38 -66 49l55 38c32 -18 62 -56 84 -87h355v-149zM453 653c-95 -69 -190 -141 -306 -160l-41 49c163 33 226 89 303 148zM846 -71h-62v58
h-580v-58h-62v539h217c37 45 67 92 79 148l59 -29c-13 -43 -39 -84 -67 -119h416v-539zM784 45v365h-580v-365h580zM753 126l-46 -45c-46 30 -96 53 -148 70c-81 -46 -183 -78 -290 -87l-44 58c89 4 182 20 256 50v2c-34 6 -75 8 -112 6l39 51c49 -2 95 -12 142 -21
c34 20 61 43 88 71h-204c-46 -41 -96 -68 -150 -89l-46 42c84 30 169 81 222 163l45 -30l-21 -32h234v-50c-30 -37 -63 -66 -100 -94c45 -20 93 -38 135 -65z" />
    <glyph glyph-name="CNS1.14138" unicode="&#xe321;" 
d="M871 535l-43 -48c-57 66 -169 115 -261 133l39 44c71 -11 197 -57 265 -129zM910 579h-64v97h-692v-101h-64v162h425c-34 37 -72 53 -118 68l45 47c49 -16 94 -41 132 -81l-33 -34h369v-158zM942 208h-410v-167h256v136h64v-248h-64v51l-638 -1l-2 198h65v-136h255v167
h-410v62h102l-51 35c79 41 134 130 153 207c-32 -14 -58 -25 -106 -38l-37 55c84 15 196 66 264 136l44 -38c-52 -53 -99 -81 -144 -105l44 -11c-1 -13 -5 -29 -13 -46h550v-61h-332v-134h410v-62zM468 270v134h-180c-28 -47 -74 -108 -121 -132z" />
    <glyph glyph-name="CNS1.14140" unicode="&#xe323;" 
 />
    <glyph glyph-name="CNS1.14141" unicode="&#xe324;" 
 />
    <glyph glyph-name="CNS1.14142" unicode="&#x2648d;" 
 />
    <glyph glyph-name="CNS1.14143" unicode="&#xe326;" 
 />
    <glyph glyph-name="CNS1.14144" unicode="&#xe327;" 
d="M656 678c-20 -13 -39 -26 -59 -35c-22 54 -55 110 -107 149l50 36c52 -41 91 -94 116 -150zM899 457h-58v121h-462v-121h-58v178h578v-178zM926 49h-649v58h649v-58zM321 805c-16 -90 -51 -158 -83 -232v-641h-58v519c-24 -41 -67 -91 -99 -127l-43 41
c127 126 180 285 229 464c17 -7 36 -16 54 -24z" />
    <glyph glyph-name="CNS1.14146" unicode="&#xe329;" 
d="M950 472l-48 -48c-86 24 -176 57 -250 106c-74 -49 -153 -84 -240 -100l-43 50c78 15 165 42 235 88c-52 45 -106 101 -138 161h-45v57h430v-66c-36 -53 -97 -111 -147 -154c75 -47 159 -74 246 -94zM353 375h-62v439h62v-439zM838 247h-681v59h334c-18 29 -47 57 -75 75
l48 36c28 -19 65 -56 83 -80l-43 -29l334 -2v-59zM179 427h-58v338h58v-338zM946 -16h-902l-1 59h487c67 48 116 123 147 192l65 -25c-32 -60 -72 -119 -126 -167l330 1v-60zM448 86l-52 -38c-12 21 -22 37 -35 55c-29 42 -60 69 -100 97l54 33c52 -39 102 -90 133 -147z
M777 729h-249c41 -53 71 -87 121 -126c50 37 93 80 128 126z" />
    <glyph glyph-name="CNS1.14148" unicode="&#xe32b;" 
 />
    <glyph glyph-name="CNS1.14149" unicode="&#x25c01;" 
d="M932 700h-187c20 -22 43 -46 58 -74l-55 -29c-2 5 -6 12 -9 18c-16 33 -45 64 -71 86h-65c-26 -44 -57 -91 -101 -122c-20 11 -41 22 -61 35c92 50 136 149 161 241c18 -6 36 -14 54 -22c-6 -24 -15 -50 -25 -73h301v-60zM915 493l-330 1c-25 -52 -75 -111 -111 -135
c-18 11 -33 28 -51 43c81 49 124 148 145 238l54 -18c-2 -23 -12 -45 -16 -68h309v-61zM513 705h-165c20 -23 39 -52 54 -80c-15 -11 -36 -22 -54 -30c-16 40 -45 83 -75 110h-58c-28 -54 -64 -105 -115 -143l-58 34c93 56 140 158 167 258c18 -6 36 -14 53 -23
c-7 -23 -14 -45 -22 -67h273v-59zM974 -14l-48 -53c-103 36 -201 126 -217 240c-3 1 -6 1 -9 1c-25 -129 -151 -210 -267 -238c-13 19 -26 39 -38 58c101 18 208 75 238 180h-196l1 59l209 1c5 27 8 65 8 96h-58c-19 -30 -44 -60 -73 -80l-56 33c65 43 107 114 130 186
l54 -18c-6 -29 -12 -43 -21 -62h245v-59h-159c-2 -30 -2 -68 -6 -96h222v-60h-164c9 -28 24 -57 41 -81c41 -57 103 -84 164 -107zM452 498l-1 -59l-216 -1c-2 -33 -1 -69 -3 -102h165c-1 -98 -6 -193 -19 -285c-5 -37 -27 -71 -66 -83c-33 -11 -71 -4 -104 1
c-6 24 -13 47 -20 70c31 -7 63 -16 97 -17c13 2 26 13 30 25c16 72 13 153 19 230l-106 -1c-11 -123 -46 -237 -122 -333c-5 -3 -7 -8 -13 -9l-48 41c53 59 87 128 104 204c18 82 22 171 23 259l-103 1v59h211c-17 39 -64 84 -108 108c13 11 33 19 47 31
c46 -16 94 -62 119 -108c-13 -11 -30 -20 -45 -29v-2h159z" />
    <glyph glyph-name="CNS1.14152" unicode="&#xe32f;" 
d="M609 848l54 -26c-3 -22 -8 -40 -20 -67h313v-60h-202c28 -22 52 -42 72 -72l-49 -36c-28 48 -66 77 -114 108h-46c-12 -22 -59 -81 -92 -114l-55 36c75 69 107 130 139 231zM366 695c29 -32 45 -56 59 -80l-57 -36c-18 52 -46 90 -86 116h-49c-33 -62 -69 -106 -109 -139
l-56 40c73 48 119 134 153 255l56 -27c-6 -29 -16 -49 -24 -69h278v-60h-165zM918 418l5 -57l-304 -21c14 -72 124 -345 219 -345c27 0 48 43 65 111l54 -31c-30 -102 -69 -147 -117 -147c-149 0 -252 274 -285 405l-222 -14l-3 57l217 16c-11 58 -15 100 -18 161l61 12
c4 -72 8 -117 18 -168c111 9 205 15 310 21zM820 423c-33 49 -70 83 -115 110c21 15 27 20 44 35c41 -16 95 -67 118 -107l-23 -19c-4 -4 -7 -6 -24 -19zM359 495c-13 -17 -33 -44 -78 -105v-460h-63v386c-39 -45 -96 -91 -121 -110l-49 41c109 76 210 196 275 322l62 -34
c-10 -17 -15 -25 -26 -40z" />
    <glyph glyph-name="CNS1.14155" unicode="&#xe332;" 
d="M920 694h-160c31 -29 51 -66 67 -100c-13 -12 -33 -17 -49 -25c-23 42 -52 96 -91 126h-50c-40 -72 -51 -104 -98 -139l-41 42c65 47 94 121 111 234c19 -8 36 -7 54 -17c-7 -16 -4 -46 -10 -63h267v-58zM902 389h-58v91h-703v-91l-59 -1v152h387c-18 21 -39 34 -60 48
l49 28c24 -19 53 -51 77 -76h367v-151zM509 694h-182c31 -29 41 -52 58 -86c-13 -12 -33 -17 -50 -25c-23 42 -35 82 -75 112h-46c-40 -72 -72 -98 -127 -149l-41 41c65 47 139 127 152 252c19 -7 36 -16 54 -25c-7 -16 -11 -45 -17 -62h274v-58zM936 101
c-11 -44 -10 -102 -62 -121l-25 -5h-253c-29 0 -57 21 -69 49l-7 22v357h287c-1 -84 -2 -161 -17 -240c-5 -24 -28 -46 -51 -52c-28 -8 -57 0 -84 5c-5 19 -14 38 -16 58c26 -4 54 -12 81 -6c12 6 13 20 15 31c5 40 11 89 13 145h-169v-285c2 -12 10 -23 22 -28h248
c22 8 21 33 26 51l7 47c20 -6 37 -17 54 -28zM475 323c-33 -94 -65 -162 -134 -240c-67 -75 -148 -116 -233 -150l-44 47c106 46 174 75 237 145c-20 32 -51 62 -83 81c11 13 25 29 40 41c30 -19 60 -46 76 -77h2c37 46 59 102 77 155h-151c-33 -66 -87 -137 -166 -185
c-11 13 -27 27 -36 41c91 54 157 154 182 252l7 27c19 -5 36 -12 54 -19c-6 -20 -10 -41 -19 -58h191v-60z" />
    <glyph glyph-name="CNS1.14157" unicode="&#xe334;" 
d="M934 668h-223v-88h-64v88h-306v-78h-64v78h-224v61h224v107h64v-107h306v107h64v-107h223v-61zM969 -26l-45 -53c-78 40 -171 101 -235 166c-71 -65 -214 -140 -312 -170l-37 58c112 31 216 81 307 159c-46 57 -79 129 -86 201h-2c-21 -42 -52 -89 -87 -125l-54 40
c93 98 140 221 165 348l58 -20c-6 -35 -15 -69 -24 -102h309v-61h-75c-15 -104 -46 -204 -121 -281c69 -72 152 -123 239 -160zM392 78h-62v406h62v-406zM313 566c-20 -64 -47 -127 -86 -183v-462h-63v373c-30 -31 -61 -64 -95 -91l-49 45c117 88 194 211 236 340zM790 415
h-189c12 -86 38 -168 93 -236c59 66 86 150 96 236z" />
    <glyph glyph-name="CNS1.14159" unicode="&#x26c7f;" 
d="M296 701h-230v59h230v81h62v-81h287v81h62v-81h228v-59h-228v-71h-62v71h-287v-68h-62v68zM896 -74c-82 46 -153 102 -220 182c-62 -65 -171 -144 -266 -184l-43 45c103 35 231 136 272 187c-39 56 -80 149 -99 251c-17 -42 -48 -92 -71 -121l-42 34v-218h-63v385h63
v-151c61 94 92 194 106 297l63 -20c-5 -30 -8 -58 -17 -94h353v-59h-85c-15 -97 -68 -232 -130 -306c61 -69 143 -141 220 -176zM587 460c9 -62 49 -195 95 -253c56 84 88 178 100 253h-195zM316 601c-52 -85 -103 -143 -187 -199l-52 39c91 51 147 119 184 195
c27 -18 45 -30 55 -35zM258 311v-380h-64v323c-22 -15 -36 -25 -52 -37c-15 -10 -33 -21 -51 -31l-45 46c105 54 188 133 242 218l51 -35c-12 -23 -49 -73 -81 -104z" />
    <glyph glyph-name="CNS1.14161" unicode="&#xe338;" 
 />
    <glyph glyph-name="CNS1.14162" unicode="&#xe339;" 
d="M779 489h-576v60h512v62h-471v59h471v58h-512v60h576v-299zM904 278h-64v93h-308v-88h274v-181c0 -38 -15 -72 -66 -72h-77l-22 63c28 -2 57 -10 85 -1c11 7 17 15 17 32v100h-211v-296h-64v296h-212v-213h-63v272h275v88h-309v-93h-64v153h809v-153z" />
    <glyph glyph-name="CNS1.14165" 
d="M924 728l-1 -58l-191 -1c25 -25 46 -54 58 -88l-55 -30c-10 45 -35 83 -68 118h-65c-27 -52 -56 -99 -98 -141l-59 35c54 47 94 109 121 174c-2 1 4 6 4 9c13 31 22 64 32 97l58 -19c-7 -32 -23 -65 -34 -96h298zM513 669h-169c20 -25 38 -54 50 -83l-52 -30
c-10 18 -15 41 -27 59c-11 18 -24 37 -39 54h-56c-30 -60 -64 -120 -119 -166l-56 34c70 57 111 139 144 219c10 32 20 58 27 91l55 -26c-7 -31 -17 -64 -28 -93h269zM961 -14l-39 -53c-88 32 -167 80 -238 148c-91 -72 -191 -121 -301 -146l-33 58c105 23 206 65 291 135
c-5 13 -17 23 -25 36c-29 48 -50 101 -68 154h-2c-18 -30 -42 -63 -68 -90l-59 36c76 67 116 163 146 254l17 76l56 -20c-3 -38 -19 -73 -29 -109h314l1 -61l-87 1c-10 -99 -38 -202 -109 -278c65 -69 149 -108 233 -141zM405 90h-62v374h62v-374zM320 547
c-20 -61 -48 -120 -80 -176v-442l-64 1v351h-2c-25 -33 -58 -69 -91 -95l-54 39c115 89 194 217 239 350zM774 404h-182l-2 -1c10 -85 48 -157 95 -227h2c54 63 80 145 87 228z" />
    <glyph glyph-name="CNS1.14167" unicode="&#xe33f;" 
 />
    <glyph glyph-name="CNS1.14168" 
 />
    <glyph glyph-name="CNS1.14169" unicode="&#xe341;" 
 />
    <glyph glyph-name="CNS1.14170" unicode="&#x25cc1;" 
 />
    <glyph glyph-name="CNS1.14171" unicode="&#xe343;" 
 />
    <glyph glyph-name="CNS1.14172" unicode="&#xe344;" 
 />
    <glyph glyph-name="CNS1.14173" unicode="&#x24882;" 
 />
    <glyph glyph-name="CNS1.14174" unicode="&#xe346;" 
d="M874 777c-30 -40 -71 -81 -114 -109l-47 44c43 23 89 58 117 101zM931 472l-39 -49c-81 35 -166 83 -223 178l-2 -190h-61v193c-48 -87 -145 -150 -232 -186l-42 50c77 25 152 68 206 135h-178v58h146c-27 48 -73 88 -119 103l49 42c43 -23 94 -68 125 -109l-50 -34
l95 -2v178h61v-178h249v-58h-185c42 -60 133 -107 200 -131zM949 62h-102v-131h-61v131h-144l27 196l57 -8l-16 -131h76v158h-132v57h132v87h61v-87h71v-57h-71v-158h102v-57zM638 353c-2 -141 -47 -254 -148 -341c-44 -38 -93 -62 -142 -88l-47 52c70 25 140 65 191 123
c-17 28 -47 55 -76 71l45 42c24 -15 45 -39 64 -62c28 36 45 92 51 146h-105c-21 -44 -50 -91 -88 -127l-55 28c77 67 122 179 139 257l53 -18c-6 -29 -17 -56 -30 -83h148zM352 708h-130c-9 -71 -22 -140 -44 -207h145v-469h-61v64h-85v-75h-61v348c-9 -18 -26 -37 -38 -54
l-53 31c82 104 127 231 138 362h-105v58h294v-58zM262 153v291h-85v-291h85z" />
    <glyph glyph-name="CNS1.14176" unicode="&#xe349;" 
d="M916 557h-62v104h-349v-104h-62v162h229c-26 46 -68 77 -113 100l48 38c16 -8 29 -17 44 -28c28 -20 55 -48 75 -77l-35 -33h225v-162zM846 483h-332v57h332v-57zM413 759c-4 -76 -19 -153 -51 -219l-59 16c32 65 53 135 52 214zM972 56l-54 -42c-27 83 -83 159 -158 211
l48 35c58 -39 138 -136 164 -204zM944 308h-222v-299c0 -48 -30 -75 -66 -75h-81l-21 61c36 -3 58 -4 77 -5c17 0 30 6 30 24v294h-245v58h528v-58zM180 564l-60 -18c-3 73 -22 141 -57 203l54 18c35 -62 56 -130 63 -203zM606 230c-36 -81 -110 -159 -184 -214l-54 40
c77 47 153 121 190 204zM429 221l-55 -35c-19 60 -52 117 -103 163v-420h-62v354h-2c-39 -95 -88 -155 -130 -198l-47 40c86 92 149 198 173 317h-147v58h153v338h62v-338h150v-58h-150v-77l41 22c53 -45 91 -105 117 -166z" />
    <glyph glyph-name="CNS1.14179" 
d="M939 41l-45 -51c-137 64 -279 177 -352 315h-13v-375h-60v374l-16 1c-88 -179 -256 -265 -355 -314l-44 48c128 55 228 117 331 265h-303v59h251c-19 42 -57 96 -90 129l51 33c39 -39 73 -84 100 -130c-15 -12 -31 -22 -46 -30v-2h121v217h61v-218h97v2l-44 29
c41 38 71 82 95 127l52 -30c-24 -43 -51 -90 -85 -128h261v-57l-299 -1c-2 -5 6 -9 6 -14c81 -112 205 -196 326 -249zM962 501l-39 -61c-138 41 -352 166 -438 289c-76 -138 -258 -228 -418 -290l-40 59c161 49 329 126 415 271c-32 30 -67 19 -120 14l46 59
c52 4 108 -5 148 -48c114 -175 310 -259 446 -293z" />
    <glyph glyph-name="CNS1.14181" unicode="&#xe34e;" 
 />
    <glyph glyph-name="CNS1.14182" unicode="&#xe350;" 
 />
    <glyph glyph-name="CNS1.14183" unicode="&#xe351;" 
 />
    <glyph glyph-name="CNS1.14184" unicode="&#x26e44;" 
 />
    <glyph glyph-name="CNS1.14185" unicode="&#xe353;" 
d="M964 452l-43 -51c-58 30 -112 76 -157 126v-50h-221v55c-50 -55 -105 -98 -165 -134l-45 52c90 44 182 123 220 218h-171v61h194c12 37 25 77 28 118l59 -20c-6 -33 -12 -66 -21 -98h286v-61h-174c32 -92 124 -172 210 -216zM904 322h-289l-33 -97h249
c-8 -63 -16 -139 -26 -192c-8 -41 -19 -74 -55 -91c-49 -23 -107 -1 -156 8l-17 66c44 -9 88 -32 135 -20c13 7 24 17 27 32c10 44 15 84 18 138h-260l51 156h-141v60h497v-60zM394 288c-74 -18 -201 -51 -298 -81l-31 58c58 58 114 122 155 186c-29 -8 -90 -23 -126 -35
l-34 61c49 78 122 238 168 358l56 -26c-28 -65 -107 -237 -154 -319c33 4 92 17 128 25c25 37 47 79 68 120l58 -26c-57 -114 -130 -229 -225 -319c38 5 158 36 235 53v-55zM417 124l-318 -110l-30 56c115 37 231 77 348 114v-60zM759 537c-33 40 -57 85 -73 131h-65
c-18 -46 -43 -90 -76 -131h214z" />
    <glyph glyph-name="CNS1.14187" unicode="&#xe356;" 
d="M950 411l-38 -53c-129 38 -210 128 -243 193l-2 -183h-62v184c-46 -89 -132 -159 -225 -192l-43 49c79 26 157 68 201 142h-162v59h229v81c-63 -6 -129 -15 -195 -17l-28 61c161 3 316 21 453 79l36 -47c-63 -29 -133 -49 -204 -62v-95h235v-59h-169
c39 -63 107 -116 217 -140zM892 189c-6 -64 -11 -129 -28 -192c-13 -49 -34 -68 -88 -71c-44 3 -88 6 -129 16l-12 63c47 -13 82 -21 134 -23c15 0 28 11 34 25c11 41 16 80 21 124h-106l20 146h-141c-4 -62 -18 -159 -43 -211c-27 -56 -91 -125 -193 -153l-48 56
c83 16 171 68 194 156c13 50 22 99 24 152h-97v59h372l-20 -147h106zM352 246c-76 -16 -167 -34 -269 -65l-24 58c58 58 116 152 157 216c-26 1 -99 -13 -128 -21l-27 52c50 81 115 203 155 323l53 -29c-33 -107 -84 -200 -138 -282c33 4 75 10 113 16c23 40 35 65 56 106
l51 -29c-46 -91 -114 -244 -208 -335c38 5 126 27 209 42v-52zM367 88l-281 -98l-30 51c113 35 194 71 311 107v-60z" />
    <glyph glyph-name="CNS1.14190" unicode="&#xe359;" 
d="M938 10c0 -36 -23 -64 -60 -64h-85l-22 62c34 -4 64 -5 87 -6c12 0 22 8 22 23v261h-111c0 -129 -11 -259 -86 -359l-51 36c30 47 50 92 63 152c18 83 16 178 16 255v422h227v-782zM629 34c0 -42 -29 -71 -63 -71h-89l-20 60c31 -2 66 -5 91 -4c17 -1 24 8 24 25v242
h-105c-3 -140 -47 -249 -124 -352l-51 42c38 45 68 90 88 145c24 65 30 161 30 241v430h219v-758zM345 250c-77 -23 -167 -46 -268 -80l-24 58c63 62 123 147 162 221c-27 -2 -104 -18 -133 -26l-27 52c62 79 112 200 155 323l53 -29c-41 -110 -81 -193 -137 -281
c37 3 74 8 111 11c23 40 36 69 57 110l50 -28c-46 -95 -112 -244 -208 -335c61 15 119 30 209 56v-52zM326 73l-257 -90l-30 51c116 37 170 58 287 99v-60zM880 568v166h-111v-166h111zM880 341v172h-111v-172h111zM572 568v166h-105v-166h105zM572 341v172h-105v-172h105z
" />
    <glyph glyph-name="CNS1.14192" unicode="&#x24057;" 
 />
    <glyph glyph-name="CNS1.14193" unicode="&#x26029;" 
 />
    <glyph glyph-name="CNS1.14194" unicode="&#xe35d;" 
 />
    <glyph glyph-name="CNS1.14195" unicode="&#xe35e;" 
d="M386 355v424h464v-424h-267h-197zM704 208c-14 -11 -30 -23 -50 -37c-40 66 -81 114 -124 143l44 32c41 -28 103 -87 130 -138zM901 39c-25 54 -78 118 -132 156l44 40c65 -42 117 -111 138 -153zM263 619c-44 52 -98 93 -160 128l34 44c81 -38 132 -86 169 -124z
M778 -10c-12 -19 -32 -29 -67 -29h-195c-51 0 -79 28 -79 80v219h62v-213c0 -15 9 -27 25 -27h184c12 0 26 14 37 44c5 15 10 34 15 56l56 -30c-12 -48 -26 -82 -38 -100zM210 426c-24 22 -47 43 -72 63s-53 39 -84 55l31 44c66 -33 115 -64 163 -115zM291 31l-52 38
c58 54 83 112 98 171l56 -31c-18 -68 -44 -124 -102 -178zM114 -59l-51 36c77 96 133 249 148 375l57 -24c-17 -129 -67 -279 -154 -387zM788 720h-138v-120h138v120zM788 541h-138v-127h138v127zM588 720h-140v-120h140v120zM588 541h-140v-127h140v127z" />
    <glyph glyph-name="CNS1.14197" unicode="&#x217f9;" 
d="M568 -24c21 17 65 55 92 79c41 52 74 95 101 147c-12 36 -19 69 -25 102c-6 34 -8 69 -18 110l-5 20c-13 -26 -38 -72 -64 -109l-48 39c16 22 40 62 61 91c35 91 75 200 70 378c11 -3 20 -4 30 -6s19 -4 28 -8c2 -45 -1 -129 -13 -186h179v-57h-53
c0 -100 -28 -279 -80 -381c22 -59 72 -151 140 -221l-50 -43c-51 55 -84 112 -128 197c-33 -59 -94 -130 -170 -195zM341 -14c-12 18 -22 34 -37 54c45 9 110 19 152 28v161h-103v59l104 1l-1 131l59 -1v-130h109v-60h-109v-149c43 7 89 17 132 26v-56
c-100 -23 -208 -44 -306 -64zM596 426c-2 6 -3 12 -5 18c-3 7 -6 14 -11 27c-69 -6 -147 -25 -221 -38l-36 54c62 73 109 149 128 237h-118v55h315v-56h-137c-16 -81 -53 -148 -117 -226c58 4 115 18 172 22c-20 26 -34 42 -60 69l48 27c45 -46 75 -96 94 -160
c-16 -10 -35 -22 -52 -29zM318 86c-26 34 -66 67 -89 81c-35 -80 -72 -147 -132 -210l-48 41c63 61 101 126 129 198c-30 17 -64 29 -104 43c23 93 43 224 52 323h-72v61h75c5 52 5 113 7 207l56 -7c1 -72 -4 -136 -7 -200h121c-4 -139 -14 -277 -54 -398
c28 -19 71 -57 105 -88zM765 575c-1 0 -7 -23 -9 -28c9 -81 16 -164 35 -225l7 -22c17 52 45 175 47 276zM183 562c-13 -108 -23 -200 -42 -286c20 -9 39 -17 60 -24c30 98 42 205 46 310h-64z" />
    <glyph glyph-name="CNS1.14199" unicode="&#x2836d;" 
 />
    <glyph glyph-name="CNS1.14200" 
 />
    <glyph glyph-name="CNS1.14201" unicode="&#x26121;" 
 />
    <glyph glyph-name="CNS1.14202" unicode="&#x2615a;" 
 />
    <glyph glyph-name="CNS1.14203" unicode="&#xe366;" 
d="M926 733h-561v53h561v-53zM868 451h-450v238h450v-238zM948 350h-599v54h599v-54zM879 61h-471v247h471v-247zM347 249c-76 -16 -167 -34 -269 -65l-24 58c58 58 116 152 157 216c-26 1 -99 -13 -128 -21l-27 52c50 81 115 203 155 323l53 -29
c-33 -107 -84 -200 -138 -282c33 4 75 10 113 16c23 40 35 65 56 106l51 -29c-46 -91 -114 -241 -208 -334c39 6 126 26 209 41v-52zM926 -41h-568v54h568v-54zM366 93l-281 -98l-30 51c113 39 198 70 311 107v-60zM807 593v45h-135v-45h135zM807 503v46h-135v-46h135z
M611 593v45h-132v-45h132zM611 503v46h-132v-46h132zM819 210v46h-147v-46h147zM818 114v52h-146v-52h146zM611 210v46h-142v-46h142zM611 114v51h-142v-51h142z" />
    <glyph glyph-name="CNS1.14205" unicode="&#xe368;" 
 />
    <glyph glyph-name="CNS1.14206" unicode="&#xe369;" 
 />
    <glyph glyph-name="CNS1.14207" unicode="&#xe36a;" 
d="M967 367l-35 -51c-98 30 -207 88 -268 137c-95 -67 -182 -110 -294 -140l237 -2v76h59v-76h270v-57h-269v-238c0 -22 -8 -41 -25 -57c-28 -25 -68 -18 -106 -19l-24 61c24 -1 48 -7 72 -6c12 2 22 13 24 23v237h-248v61l-29 46c106 26 209 72 291 137
c-33 35 -71 88 -95 141c-41 -57 -67 -79 -147 -135l-40 44c105 72 160 134 218 286c18 -7 35 -16 53 -24c-9 -24 -21 -49 -30 -72h260v-56c-36 -72 -99 -150 -136 -185c61 -47 174 -109 262 -131zM966 28c-15 -15 -30 -33 -46 -45c-51 59 -119 133 -196 192l42 37
c57 -46 127 -111 200 -184zM351 591c-46 -91 -129 -247 -208 -335c38 5 110 27 193 42v-52c-76 -16 -151 -34 -253 -65l-24 58c58 58 116 152 157 216c-26 1 -107 -13 -136 -21l-27 52c53 79 122 210 163 323l53 -28c-40 -108 -92 -209 -146 -283c33 4 83 10 121 16
c23 40 35 65 56 106zM521 177c-59 -106 -131 -153 -210 -196l-38 41c81 50 151 102 206 191zM356 88l-269 -98l-30 51c113 35 186 67 299 107v-60zM771 682h-205c28 -52 61 -103 100 -146c46 42 80 96 105 146z" />
    <glyph glyph-name="CNS1.14209" unicode="&#xe36c;" 
 />
    <glyph glyph-name="CNS1.14210" unicode="&#xe36d;" 
d="M936 701h-196v-71l142 -1v-377h-491v378l157 -1l2 73l-187 -1v59h171c-19 23 -44 42 -72 54l48 44c40 -22 73 -60 94 -98h66c38 27 71 62 90 103c19 -8 35 -25 54 -36c-14 -24 -34 -48 -57 -64l179 -3v-59zM947 134h-131l-1 -124c-3 -27 -19 -55 -46 -65
c-31 -11 -69 -4 -104 -6l-20 60c34 4 84 -19 107 16l1 120l-384 -1l-1 60h385v44h63l-1 -44h132v-60zM365 456h-119v-309l35 1v241h62v-331h-62v30h-201v302h61v-243h43v308l-145 1v58l145 1v153h-38c-16 -45 -33 -90 -66 -126l-47 36c58 79 83 172 91 273l54 -23
c-3 -34 -8 -69 -16 -101h183v-59l-99 -1v-153l119 1v-59zM649 47l-43 -41c-48 42 -104 69 -167 78l41 43c62 -11 119 -37 169 -80zM820 498v76h-80v-54c9 -13 19 -22 33 -22h47zM678 630v72h-71l-1 -72h72zM820 311l-1 127c-40 5 -87 -10 -117 19c-37 27 -19 76 -25 117
l-70 -1c0 -15 -2 -30 -4 -45c-6 -57 -61 -96 -107 -121c-13 18 -28 30 -40 48c18 5 34 18 51 27c27 23 45 54 41 92h-94v-264zM773 345h-270v59h270v-59z" />
    <glyph glyph-name="CNS1.14212" unicode="&#x262d0;" 
 />
    <glyph glyph-name="CNS1.14213" unicode="&#xe370;" 
d="M847 582h-314v213h314v-213zM457 582h-314v213h314v-213zM902 290l-1 -47c-2 -115 -20 -194 -36 -244c-11 -37 -31 -57 -84 -59c-38 -2 -71 2 -100 7l-15 66c36 -7 56 -14 93 -16c31 -2 47 7 53 35c15 67 22 123 26 199h-596v60c15 45 29 93 37 137l64 -9
c-12 -57 -25 -97 -35 -129h341c12 57 21 114 30 175h-556v59h628c-1 -87 -22 -165 -36 -234h187zM770 84h-683v60h683v-60zM785 641v95h-192v-95h192zM395 641v95h-193v-95h193z" />
    <glyph glyph-name="CNS1.14218" unicode="&#x20068;" 
 />
    <glyph glyph-name="CNS1.14219" unicode="&#xe376;" 
 />
    <glyph glyph-name="CNS1.14220" unicode="&#x23766;" 
 />
    <glyph glyph-name="CNS1.14221" unicode="&#x2833a;" 
 />
    <glyph glyph-name="CNS1.14222" unicode="&#xe37a;" 
 />
    <glyph glyph-name="CNS1.14223" unicode="&#x26489;" 
d="M745 608c-12 32 -25 52 -52 76c7 7 14 11 21 15s15 8 22 12c27 -17 42 -45 56 -75c-17 -9 -28 -16 -47 -28zM428 503c-13 13 -23 27 -34 41c47 20 122 54 171 80v-58c-49 -21 -85 -42 -137 -63zM863 636v97h-172v57h232v-344h-59v119l-158 -79c-8 9 -28 38 -41 51
c68 24 158 71 198 99zM354 738l56 -28c-10 -58 -33 -120 -73 -176c-16 6 -30 12 -53 22c34 54 57 114 70 182zM269 478h160v-58h-94v-297c31 17 53 31 90 55v-69c-46 -29 -83 -55 -128 -88l-20 20s-14 14 -22 21c14 16 21 33 21 65v293h-65c-4 -198 -10 -356 -124 -475
l-43 41c99 118 109 275 107 434h-100v58h156v358h61c0 -275 0 -279 1 -358zM398 790h253l1 -341l12 23l51 -39c-12 -17 -46 -58 -62 -76h243v-420h-67v76h-307v-76h-65v420h120c25 18 70 87 70 87h-54l1 291h-196v55zM528 647c-16 -10 -34 -18 -51 -28c-9 31 -21 56 -52 84
l45 25c30 -23 45 -47 58 -81zM829 297h-307v-85h307v85zM829 156h-307v-84h307v84zM113 526c-4 72 -28 128 -60 187l54 18c33 -59 56 -118 65 -188z" />
    <glyph glyph-name="CNS1.14226" unicode="&#xe37e;" 
 />
    <glyph glyph-name="CNS1.14227" 
d="M876 630h-345v56h345v-56zM960 329l-36 -50c-114 31 -220 131 -258 242h-71v-152l113 39v-58l-159 -54l-37 43c12 8 22 23 22 40v142h-55v-186c0 -62 -9 -164 -21 -212c-13 -54 -39 -126 -73 -176l-62 31c40 63 68 128 80 204l-45 -29c-16 54 -46 102 -90 142v-361h-64
v309h-2c-28 -72 -62 -131 -121 -190l-53 40c92 85 140 184 167 302h-136v59h145v88h-111v58h111v75h-125v59h125v106h64v-106h121v-59h-121v-75h108v-58h-108v-88h131v-59h-131v-68l29 15c55 -44 80 -79 107 -137h2c5 41 9 69 9 147v441h513v-59h-450v-154h460v-59h-210
c16 -31 33 -61 57 -85c35 18 69 45 93 78l42 -40c-24 -32 -59 -57 -93 -76c29 -26 89 -55 133 -69zM955 180h-131v-174c0 -46 -21 -72 -69 -72h-72l-22 63c26 -3 52 -5 71 -5c16 0 30 10 30 31v157h-279v58h279v69h62v-69h131v-58zM685 44l-50 -40c-22 52 -72 95 -122 121
l45 37c50 -24 98 -70 127 -118z" />
    <glyph glyph-name="CNS1.14229" unicode="&#x2a087;" 
 />
    <glyph glyph-name="CNS1.14230" unicode="&#x26cc3;" 
 />
    <glyph glyph-name="CNS1.14231" unicode="&#xe383;" 
d="M948 -28h-511v60h75v534h63v-534h120v790h63v-332h148v-59h-148v-399h190v-60zM477 198l-71 -24v-251h-63v232l-265 -83l-40 54c26 5 48 12 73 19v576h-53v60h416v-60h-68v-487l71 24v-60zM343 587v134h-169v-134h169zM343 388v141h-169v-141h169zM343 216v114h-169v-168
z" />
    <glyph glyph-name="CNS1.14233" unicode="&#xe385;" 
 />
    <glyph glyph-name="CNS1.14234" unicode="&#x22714;" 
 />
    <glyph glyph-name="CNS1.14235" unicode="&#xe387;" 
d="M901 -59h-63v68l-302 -1v-67h-59v847l424 -1v-846zM471 -32l-1 -6c-19 -10 -37 -24 -57 -32c-4 37 -20 67 -33 100h-7c-88 -26 -179 -42 -261 -83l-46 62c44 64 80 133 103 205c8 26 16 49 21 75h-148v60h69l2 438c109 -1 215 2 324 1l1 -59l-260 -1v-87h219v-56h-219
v-88h219l1 -58h-221v-89h280v-61l-204 -1c-20 -91 -53 -177 -104 -255h6c65 18 130 33 195 51c-20 32 -45 63 -72 92l53 31c63 -74 118 -149 140 -239zM839 298l-1 430h-65v-415c10 -25 44 -11 66 -15zM839 243c-26 -1 -55 -3 -78 4c-25 8 -47 33 -47 58v423l-52 1
c-1 -108 1 -211 0 -324c0 -82 -27 -153 -77 -214c-16 11 -29 21 -41 32l-7 3l-1 -157h302zM603 397c1 108 1 227 0 332l-67 -1l1 -494c47 44 65 105 66 163z" />
    <glyph glyph-name="CNS1.14237" unicode="&#x23de3;" 
 />
    <glyph glyph-name="CNS1.14238" unicode="&#x266e8;" 
 />
    <glyph glyph-name="CNS1.14239" unicode="&#xe38b;" 
 />
    <glyph glyph-name="CNS1.14240" unicode="&#xe38c;" 
 />
    <glyph glyph-name="CNS1.14241" unicode="&#x28a48;" 
 />
    <glyph glyph-name="CNS1.14242" unicode="&#xe38e;" 
d="M960 243c-19 -9 -38 -19 -57 -26c-13 59 -35 117 -65 169c-12 -112 -24 -247 -32 -319c-5 -45 -20 -97 -65 -121c-39 -22 -94 -11 -136 -3l-16 70c33 -10 68 -20 105 -20c15 2 28 12 36 25c21 115 49 373 50 541h-149c-1 -209 -33 -406 -148 -567
c-15 -21 -32 -41 -53 -57l-50 42c99 98 146 219 172 350c14 73 17 152 17 231h-192v58h192v218h61v-218h210l-3 -178c10 1 19 7 28 10c43 -60 76 -131 95 -205zM515 434c-10 -77 -28 -155 -71 -221l-61 26c45 62 67 132 76 210c19 -5 37 -10 56 -15zM347 792l-1 -787
c-5 -26 -27 -54 -53 -60c-28 -6 -60 -2 -90 -3l-24 63c29 -3 57 -6 87 -6c9 5 18 13 20 23v235h-122c1 -116 -14 -229 -79 -321l-54 35c53 73 70 170 70 257l3 564h243zM288 556v178h-123l-1 -178h124zM286 315v184l-122 1v-185h122z" />
    <glyph glyph-name="CNS1.14245" unicode="&#x226f6;" 
 />
    <glyph glyph-name="CNS1.14246" unicode="&#xe392;" 
 />
    <glyph glyph-name="CNS1.14247" unicode="&#x26498;" 
 />
    <glyph glyph-name="CNS1.14248" unicode="&#xe395;" 
d="M544 615l-52 -26c-29 88 -67 150 -121 213l45 26c58 -69 94 -125 128 -213zM292 620l-48 -30c-39 73 -97 124 -157 169l41 33c70 -55 115 -89 164 -172zM958 261l-46 -50c-68 35 -131 76 -185 121v-54h-209v-123h305v-56h-305v-184h-61v184h-298v56h298v123h-203v48
c-65 -44 -114 -77 -193 -115l-38 50c174 81 256 166 325 257h-298v57h586c77 98 122 173 160 249l55 -32c-46 -81 -86 -147 -146 -218h224v-56h-297c67 -107 198 -206 326 -257zM725 334c-53 45 -117 119 -157 184h-153c-36 -64 -95 -132 -154 -184h196v137h61v-137h207z
" />
    <glyph glyph-name="CNS1.14250" unicode="&#xe397;" 
 />
    <glyph glyph-name="CNS1.14251" unicode="&#x2185e;" 
d="M806 558l-54 29c39 44 61 91 75 146l55 -19c-15 -65 -49 -124 -76 -156zM646 727c-89 -11 -181 -15 -272 -19l-27 55c184 3 360 13 507 74l41 -49c-79 -33 -162 -50 -249 -61zM633 560c-7 45 -26 86 -52 123l53 19c31 -35 48 -75 57 -123zM410 668l54 22
c36 -35 53 -82 63 -118l-59 -22c-9 38 -28 86 -58 118zM917 536v-130h-58v69h-435v-71h-59l-1 132h553zM811 101v-163h-62v163h-141c10 45 23 109 34 167l59 -12c-5 -29 -9 -66 -15 -96h63v135h-102v57h102v87h62v-87h100v-57h-100v-135h127v-59h-127zM377 -56l-42 46
c66 35 118 83 153 142c-15 19 -32 36 -51 45l33 47c18 -8 35 -19 45 -33c20 36 30 69 40 119h-64c-24 -48 -50 -90 -93 -137l-46 36c54 62 100 147 113 233l62 -13c-4 -23 -10 -42 -16 -60h114c-23 -155 -60 -307 -248 -425zM318 73c-23 32 -47 50 -71 65
c-34 -81 -66 -131 -126 -193l-48 41c63 60 95 108 123 181c-29 16 -80 44 -122 59c23 94 49 235 51 324h-71v61h74c5 60 7 132 8 207l59 -8c0 -75 -4 -136 -7 -199h142c-4 -140 -19 -299 -60 -420c32 -18 61 -42 87 -66zM186 550c-7 -57 -12 -108 -19 -156
c-6 -47 -18 -95 -30 -138c32 -11 61 -23 82 -33c30 97 49 221 52 327h-85z" />
    <glyph glyph-name="CNS1.14255" unicode="&#xe39c;" 
 />
    <glyph glyph-name="CNS1.14256" unicode="&#xe39d;" 
 />
    <glyph glyph-name="CNS1.14257" unicode="&#x26a52;" 
 />
    <glyph glyph-name="CNS1.14258" unicode="&#x23d7e;" 
 />
    <glyph glyph-name="CNS1.14259" unicode="&#xe3a1;" 
 />
    <glyph glyph-name="CNS1.14260" unicode="&#x214fd;" 
 />
    <glyph glyph-name="CNS1.14261" unicode="&#xe3a3;" 
 />
    <glyph glyph-name="CNS1.14262" unicode="&#xe3a4;" 
 />
    <glyph glyph-name="CNS1.14263" 
d="M932 664h-232v-88h-62v88h-302v-89h-62v89h-229v58h229v111h62v-111h302v111h62v-111h232v-58zM946 145c-8 -44 -20 -86 -38 -126c-15 -33 -42 -50 -82 -50h-546c-42 0 -88 17 -88 71v309h555v147h-613v58h675v-318h-62v55h-493v-225c0 -29 15 -39 43 -39h517
c53 0 63 100 73 148z" />
    <glyph glyph-name="CNS1.14265" unicode="&#x23530;" 
 />
    <glyph glyph-name="CNS1.14266" unicode="&#x21773;" 
 />
    <glyph glyph-name="CNS1.14267" unicode="&#x23df8;" 
 />
    <glyph glyph-name="CNS1.14268" unicode="&#xe3aa;" 
d="M924 666h-210v-97h-67v97h-307v-97h-67v97h-209v61h209v114h67v-114h307v114h67v-114h210v-61zM952 92c-10 -63 -16 -154 -91 -168c-38 -7 -67 14 -99 28c-120 52 -223 169 -246 301h-285v-251l300 68v-58c-121 -33 -246 -58 -368 -89l-33 52c22 10 34 30 34 52v465
c105 3 451 -4 653 88l49 -49c-92 -40 -202 -61 -305 -78c-2 -49 4 -94 12 -141h349v-59h-337c22 -115 122 -203 229 -251c13 -6 27 -11 45 -4c27 21 28 90 30 124zM509 312c-6 45 -10 94 -10 137c-32 -4 -63 -7 -95 -8l-173 -6v-123h278z" />
    <glyph glyph-name="CNS1.14270" unicode="&#x2f994;" 
 />
    <glyph glyph-name="CNS1.14271" unicode="&#xe3ad;" 
d="M613 836l59 -23c-2 -10 -5 -19 -9 -28c-4 -11 -9 -22 -18 -42h305v-60h-202c38 -29 79 -84 102 -118l-50 -36c-29 50 -87 122 -137 154h-49c-18 -34 -47 -72 -89 -115l-54 34c10 10 21 19 30 30c54 60 90 142 112 204zM366 683c29 -32 62 -86 78 -115l-57 -35
c-19 54 -65 124 -105 150h-49c-32 -61 -92 -112 -135 -145l-52 37c73 49 150 135 185 257l57 -22c-10 -29 -19 -46 -27 -67h270v-60h-165zM64 -17v60h191v381h66v-381h178v501h63v-179h303v-60h-303v-262h382v-60h-880z" />
    <glyph glyph-name="CNS1.14273" unicode="&#xe3af;" 
 />
    <glyph glyph-name="CNS1.14274" unicode="&#xe3b0;" 
d="M930 671h-219v-88h-66v88h-306v-88h-66v88h-215v59h215v99h66v-99h306v99h66v-99h219v-59zM881 188c0 -39 -33 -80 -84 -80h-75l-21 63c37 -3 58 -8 81 -4c22 -1 36 16 33 35v271h-219v-547h-67v608h352v-346zM484 546c-31 -19 -67 -33 -103 -46
c-61 -21 -127 -32 -194 -39v-107h263v-61h-263v-197l293 75l1 -61l-338 -89l-50 51c20 16 29 39 29 69v373c116 2 224 25 319 78z" />
    <glyph glyph-name="CNS1.14276" unicode="&#x217b4;" 
 />
    <glyph glyph-name="CNS1.14277" unicode="&#xe3b3;" 
d="M791 408l-58 30c46 50 97 148 110 242l56 -31c-14 -89 -67 -192 -108 -241zM524 408c-9 90 -29 171 -88 240c20 10 37 17 56 26c55 -72 81 -152 99 -241zM635 363v354h-212v59h503v-59h-229v-354h256v-62h-256v-368h-62v368h-255v62h255zM304 189c25 -20 56 -54 97 -107
l-46 -49c-28 36 -53 73 -87 103c-48 -68 -107 -128 -183 -185l-41 50c81 61 138 117 175 174c-34 30 -72 59 -130 89c29 86 56 194 72 308h-104v59h111l21 190l64 -11l-24 -179h159c0 -99 -3 -179 -19 -261c-20 -97 -37 -132 -65 -181zM224 572c-11 -62 -20 -114 -30 -161
c-10 -46 -20 -86 -35 -123l97 -59c47 89 69 198 69 343h-101z" />
    <glyph glyph-name="CNS1.14279" unicode="&#x2355a;" 
 />
    <glyph glyph-name="CNS1.14280" unicode="&#xe3b6;" 
 />
    <glyph glyph-name="CNS1.14281" unicode="&#xe3b7;" 
 />
    <glyph glyph-name="CNS1.14282" unicode="&#xe3b8;" 
d="M938 696h-226v-73h-63v73h-308v-73h-63v73h-224v59h223v86h65v-86h307v86h63v-86h226v-59zM810 586c-4 -53 -7 -104 -21 -155c-9 -23 -29 -44 -52 -55c-44 -12 -95 -4 -140 -1l-15 63c37 -7 76 -11 115 -11c9 1 21 5 26 17c12 26 14 51 17 84h-237
c-18 -40 -44 -78 -82 -103c-84 -55 -187 -66 -289 -78l-32 64c121 10 257 10 330 117h-251v58h276c10 28 18 55 20 86l59 -18c-1 -22 -7 -45 -12 -68h288zM904 286c-4 -79 -5 -117 -12 -170c-8 -61 -2 -124 -60 -155c-32 -17 -76 -6 -112 -3l-11 62c28 -5 73 -26 101 4
c17 32 19 67 23 108c3 32 7 69 6 96h-116c-11 -92 -49 -184 -127 -242c-30 -23 -61 -41 -95 -54l-41 54c79 24 162 85 186 168c7 24 13 50 16 74h-142v58h147c3 22 4 48 3 71l62 -18c-2 -14 -3 -35 -7 -53h179zM474 286c0 -89 -6 -164 -22 -256c-5 -28 -23 -53 -48 -67
c-31 -17 -87 -7 -127 -2l-6 65c30 -11 63 -21 92 -13c28 8 30 36 35 65c8 47 12 75 16 150h-105c-15 -92 -58 -177 -136 -239c-30 -24 -61 -45 -96 -58l-44 53c85 27 173 99 199 188c5 18 11 37 15 56h-166v58h174c6 23 6 49 8 73l59 -15c-1 -18 -4 -42 -6 -58h158z" />
    <glyph glyph-name="CNS1.14284" unicode="&#x26da3;" 
 />
    <glyph glyph-name="CNS1.14285" unicode="&#x26b05;" 
d="M947 662h-224v-112h-63v112h-305v-112h-63v112h-229v62h229v111h63v-111h305v111h63v-111h224v-62zM854 -67h-64v93h-566v-93h-62v580h692v-580zM789 83v373h-565v-373h565z" />
    <glyph glyph-name="CNS1.14287" unicode="&#x235ce;" 
 />
    <glyph glyph-name="CNS1.14288" unicode="&#xe3be;" 
 />
    <glyph glyph-name="CNS1.14289" unicode="&#xe3bf;" 
 />
    <glyph glyph-name="CNS1.14290" unicode="&#xe3c0;" 
d="M913 664h-136v-99h-63v99h-183v-81h-63v81h-131v60h131v106h63v-106h183v106h63v-106h136v-60zM936 467h-72v-465c0 -34 -29 -73 -79 -73h-74l-22 65l86 -2c22 -1 25 13 25 31v444h-282v60h418v-60zM733 53h-61v52h-71v-60h-61v334h193v-326zM507 556
c-11 -50 -28 -99 -47 -145v-497h-64v377c-12 -22 -36 -47 -57 -66l-40 43v-140h-63v64h-93v-64h-63v588h219v-438c73 62 129 194 156 303zM672 164v156h-71v-156h71zM236 250v408h-93v-408h93z" />
    <glyph glyph-name="CNS1.14293" unicode="&#x26da5;" 
 />
    <glyph glyph-name="CNS1.14294" unicode="&#xe3c4;" 
d="M933 675h-220v-75h-63v75h-312v-72h-63v72h-215v59h215v100h63v-100h312v100h63v-100h220v-59zM952 124c-2 -7 -3 -17 -5 -28c-3 -17 -6 -38 -9 -56c-8 -46 -53 -76 -99 -76h-220c-38 0 -84 26 -84 65v178h-30c-73 -165 -261 -247 -428 -270l-30 62
c194 27 323 91 390 208h-228l-1 147c-30 -21 -58 -35 -94 -50l-41 52c172 71 265 199 309 298l57 -24c-4 -11 -16 -37 -32 -65h269c-4 -44 -15 -85 -36 -135h187v-223h-229v-141c0 -28 15 -43 42 -43h193c40 10 49 49 53 78c3 20 5 34 7 44zM764 266v105h-214
c-9 -47 -15 -77 -24 -105h238zM602 507h-231c-9 -13 -27 -33 -67 -77h266c19 38 29 60 32 77zM488 371h-216v-105h190c15 49 23 80 26 105z" />
    <glyph glyph-name="CNS1.14298" unicode="&#xe3c9;" 
 />
    <glyph glyph-name="CNS1.14299" unicode="&#xe3ca;" 
 />
    <glyph glyph-name="CNS1.14300" unicode="&#xe3cb;" 
 />
    <glyph glyph-name="CNS1.14301" unicode="&#x26e42;" 
 />
    <glyph glyph-name="CNS1.14302" unicode="&#xe3ce;" 
 />
    <glyph glyph-name="CNS1.14303" unicode="&#x25be4;" 
 />
    <glyph glyph-name="CNS1.14304" unicode="&#xe3d0;" 
d="M923 685h-217v-75h-66v75h-320v-78h-66v78h-196v58h196v91h66v-91h320v88h66v-88h217v-58zM958 27l-51 -41c-26 61 -76 101 -132 132l49 37c70 -28 101 -76 134 -128zM848 581c-6 -117 -16 -236 -48 -344c-7 -23 -29 -40 -52 -47c-37 -4 -73 4 -107 12l-11 67
c28 -8 56 -17 86 -20c16 3 22 9 28 21c17 58 35 210 35 251h-110c-9 -55 -31 -105 -63 -149c27 -18 53 -30 81 -48l-45 -42c-24 15 -45 31 -71 43c-79 -76 -177 -124 -285 -153l-45 54c92 19 219 73 271 127c-27 10 -68 27 -97 35c-68 -60 -158 -92 -249 -112l-50 58
c81 9 161 27 222 72c-25 7 -49 8 -79 10l47 51c31 -2 60 -9 89 -14c17 15 37 50 44 68h-106c-59 -57 -138 -93 -216 -118l-50 53c70 17 139 43 196 86c42 32 81 72 98 121l52 -21c-4 -22 -19 -42 -31 -61h466zM599 99l-54 -39c-16 59 -56 102 -110 128l51 31
c57 -20 90 -70 113 -120zM739 89c-16 -72 -39 -139 -104 -139h-236c-57 0 -89 44 -89 87v118h67v-105c0 -26 23 -44 45 -44h194c19 0 36 13 43 28c12 26 18 54 22 83zM257 113c-39 -61 -100 -107 -167 -133l-49 46c62 20 129 62 168 123zM608 521h-107
c-9 -30 -24 -59 -42 -84c33 -12 65 -24 97 -37c28 33 45 78 52 121z" />
    <glyph glyph-name="CNS1.14306" unicode="&#xe3d2;" 
d="M936 690h-221v-73h-61v73l-306 -1v-45l28 -15c-7 -8 -18 -22 -34 -42h513c-6 -122 -15 -230 -34 -296c-6 -23 -34 -50 -56 -54c-18 -4 -39 -4 -61 -2c-19 1 -37 3 -52 5l-10 59c31 -7 78 -12 92 -11c13 0 28 18 32 31c14 47 20 142 24 205h-113
c-32 -168 -148 -237 -299 -286l-39 44c126 37 250 105 275 242h-120c-55 -135 -200 -202 -328 -237c-6 6 -10 13 -15 19c-7 9 -15 19 -24 30c126 29 250 89 300 188h-135c-42 -43 -95 -84 -164 -113c-14 17 -21 24 -39 44c100 44 162 103 196 150v85h-218v60h218v70h63v-70
h306v71h61v-72h221v-59zM946 36c-4 -7 -37 -29 -51 -39c-42 66 -85 113 -157 160c18 13 34 26 46 37c69 -38 111 -77 162 -158zM602 119l-56 -36c-30 57 -55 97 -114 135l56 32c57 -36 87 -80 114 -131zM736 98c-3 -15 -5 -31 -8 -46c-4 -17 -9 -33 -15 -47
c-12 -26 -32 -45 -67 -49h-249c-56 0 -76 25 -76 73v167h63v-147c0 -20 14 -35 33 -39h214c21 9 30 28 35 49c4 19 6 41 8 66zM248 178c-35 -87 -97 -155 -139 -191l-53 39c53 40 104 104 138 180c9 -5 20 -11 30 -16c9 -5 18 -9 24 -12z" />
    <glyph glyph-name="CNS1.14308" unicode="&#xe3d4;" 
 />
    <glyph glyph-name="CNS1.14309" unicode="&#xe3d6;" 
 />
    <glyph glyph-name="CNS1.14310" 
 />
    <glyph glyph-name="CNS1.14311" unicode="&#x26b96;" 
 />
    <glyph glyph-name="CNS1.14312" unicode="&#x26e77;" 
 />
    <glyph glyph-name="CNS1.14313" unicode="&#x26e43;" 
 />
    <glyph glyph-name="CNS1.14314" unicode="&#xe3db;" 
 />
    <glyph glyph-name="CNS1.14315" 
d="M947 733l-1 -59h-219v-76h-65v77h-311v-77h-63v77h-209v58h209v99h63v-99h311v100h65v-100h220zM872 -62l-64 1v62h-562v-61h-64v357c-13 -13 -30 -29 -48 -40l-52 44c134 75 239 202 300 342l56 -22c-12 -26 -24 -43 -32 -62h356c-18 -58 -48 -116 -65 -156
c-11 -27 -38 -34 -60 -33c-25 2 -52 11 -74 17c-1 14 -6 43 -8 62c24 -11 44 -20 50 -22c20 -7 32 3 40 13c9 13 21 45 29 64h-294c-35 -58 -108 -140 -153 -175l10 -11c87 21 170 50 234 101l37 -52c-78 -57 -186 -89 -262 -103v-53h230v-57h-230l-1 -95h563l-1 95h-230v57
h231v77h-269v58h332z" />
    <glyph glyph-name="CNS1.14317" unicode="&#xe3de;" 
 />
    <glyph glyph-name="CNS1.14318" unicode="&#xe3df;" 
d="M921 698h-261v-61h-59v61h-211v-80h-62v79h-264v56h264v80h59v-79h213v79h59v-80h262v-55zM941 124c-3 -41 -11 -82 -29 -117c-13 -25 -39 -37 -67 -34h-169c-29 0 -61 21 -68 51l-6 27v140h-166v250h60v-194h105v235h-205v57h206v78h58v-78h244v-56h-243l-1 -236h127
v193h60v-249h-187l1 -139c3 -9 15 -19 25 -22h154c13 0 25 13 31 24c9 30 15 62 18 94c18 -7 34 -17 52 -24zM377 483c-57 -88 -154 -205 -205 -252c40 2 128 21 203 36v-58c-89 -19 -180 -37 -276 -61c-10 21 -18 43 -30 62c40 35 110 104 146 154c-42 -4 -85 -11 -124 -23
l-29 61c43 44 118 148 171 252c20 -7 38 -20 57 -29c-38 -74 -86 -144 -144 -211c41 5 82 11 122 18l57 85c18 -10 35 -22 52 -34zM396 44l-307 -55l-33 56c126 21 250 42 339 56z" />
    <glyph glyph-name="CNS1.14320" unicode="&#x25c91;" 
 />
    <glyph glyph-name="CNS1.14321" unicode="&#xe3e2;" 
 />
    <glyph glyph-name="CNS1.14322" unicode="&#x25cc0;" 
 />
    <glyph glyph-name="CNS1.14323" unicode="&#xe3e4;" 
 />
    <glyph glyph-name="CNS1.14324" unicode="&#xe3e5;" 
d="M940 149l-44 -44c-64 55 -121 143 -150 220l-2 -396h-62v390c-20 -79 -78 -163 -152 -229l-51 41c98 73 178 221 188 326h-118v59h133v138h62v-138h141v-59h-136c21 -109 116 -239 191 -308zM903 677h-718v-462c0 -107 -43 -208 -91 -285l-58 37c55 67 86 169 86 262v508
h389c-23 29 -60 54 -94 71l51 38c35 -14 88 -67 108 -109h327v-60zM574 264l-49 -37c-16 52 -77 103 -108 124v-422h-62v385c-19 -82 -78 -179 -123 -225l-47 45c85 78 138 218 155 323h-128v59h143v138h62v-138h121v-59h-121v-85l32 24c42 -26 97 -74 125 -132z" />
    <glyph glyph-name="CNS1.14327" unicode="&#xe3e8;" 
 />
    <glyph glyph-name="CNS1.14328" unicode="&#xe3e9;" 
 />
    <glyph glyph-name="CNS1.14329" unicode="&#xe3ea;" 
 />
    <glyph glyph-name="CNS1.14330" unicode="&#xe3eb;" 
 />
    <glyph glyph-name="CNS1.14331" unicode="&#xe3ec;" 
d="M932 711h-217l-1 -54h-14c7 -12 13 -28 16 -43h163v-52h-107v-2l45 -20c-5 -20 -21 -39 -35 -53h137v-52h-192v-56h152v-51h-152v-73h-60v73h-151v51h151v56h-189v52h147c-8 22 -27 46 -45 60l38 13v2h-101v52h143c-10 22 -26 40 -45 52l36 13v32h-306v-53h-42l-20 -36
h156v-152h-261v-34h280v-157h-341v343h89c24 16 39 44 47 71l30 -8v26h-217v58h217v77h62v-77h305v77h64v-77h218v-58zM956 35l-40 -59c-141 29 -290 75 -383 184v-226h-64v223h-2c-74 -91 -215 -147 -384 -176l-41 55c122 21 248 44 342 124h-304v57h389v54h64v-54h386v-57
h-301c68 -71 222 -110 338 -125zM758 562h-115c19 -20 33 -47 38 -75h29c24 20 42 47 48 75zM379 521v50h-201v-50h201zM398 331v53h-221v-53h221z" />
    <glyph glyph-name="CNS1.14333" unicode="&#x2863b;" 
 />
    <glyph glyph-name="CNS1.14334" unicode="&#xe3ef;" 
d="M952 722h-236v-40h-62v40h-152c15 -17 27 -36 33 -59h395v-52h-860v52h399c-3 14 -15 28 -30 41l43 16v2h-140v-40h-62v40h-233v55h234v60h62v-60h311v59h63v-59h235v-55zM776 458h-549v122h549v-122zM894 279c0 -42 -23 -75 -70 -75h-55l-20 57c25 -4 37 -6 55 -4
c14 2 28 10 28 27v86h-654v-176h-60v227h776v-142zM968 29l-39 -57c-110 10 -214 33 -307 82c-30 16 -57 38 -83 62h-9v-185h-60v185h-14c-105 -104 -244 -137 -392 -145l-31 57c122 3 244 26 340 86v2h-316v53h413v44h-183v123h430v-123h-187v-43h406v-54h-314v-2
c74 -42 163 -66 252 -79c31 -5 63 -4 94 -6zM719 500v37h-435v-37h435zM659 255v41h-318v-41h318z" />
    <glyph glyph-name="CNS1.14336" unicode="&#xe3f1;" 
 />
    <glyph glyph-name="CNS1.14337" unicode="&#x21582;" 
 />
    <glyph glyph-name="CNS1.14338" unicode="&#x270cd;" 
 />
    <glyph glyph-name="CNS1.14339" unicode="&#x2f9b2;" 
 />
    <glyph glyph-name="CNS1.14340" unicode="&#xe3f5;" 
 />
    <glyph glyph-name="CNS1.14341" unicode="&#xe3f6;" 
 />
    <glyph glyph-name="CNS1.14342" unicode="&#xe3f7;" 
 />
    <glyph glyph-name="CNS1.14343" unicode="&#x218a2;" 
 />
    <glyph glyph-name="CNS1.14344" unicode="&#xe3f9;" 
d="M745 529h-528v271h528v-271zM915 411h-522c-11 -31 -18 -65 -28 -97h413c-18 -105 -38 -214 -79 -310c-18 -43 -51 -66 -92 -64c-34 1 -69 10 -100 19l-24 78c36 -16 74 -28 114 -34c16 -3 33 7 40 22c38 79 50 142 67 231h-426l46 155h-271v57h862v-57zM683 586v156
h-404v-156h404z" />
    <glyph glyph-name="CNS1.14348" unicode="&#x2a0f8;" 
 />
    <glyph glyph-name="CNS1.14349" unicode="&#xe3fe;" 
d="M949 254h-573v58h165c-12 29 -41 52 -67 70l46 24l-128 2v58h235v79h-177v58h177v72h-215v58h159c-16 32 -47 53 -76 72l56 36c38 -32 67 -67 87 -108h46c32 27 63 70 80 107l53 -33c-12 -25 -37 -53 -59 -74h146v-58h-215v-72h176v-58h-176v-79h244v-58h-161l49 -28
c-12 -22 -25 -47 -43 -68h171v-58zM857 -73h-63v62h-271v-62h-63v273h397v-273zM421 50l-61 -22c1 20 -3 41 -8 60l-280 -69l-36 57c60 9 111 19 161 33v184h-109v352h109v163h58v-163h109v-352h-109v-172l79 20c-10 19 -21 41 -34 59l53 18c26 -30 63 -114 68 -168z
M765 408h-76v-96h22c26 25 47 68 54 96zM627 312v96h-90c36 -24 56 -70 67 -96h23zM794 45v99h-271v-99h271zM307 352v234h-52v-234h52zM197 352v234h-52v-234h52z" />
    <glyph glyph-name="CNS1.14352" unicode="&#xe401;" 
 />
    <glyph glyph-name="CNS1.14353" unicode="&#xee3e;" 
 />
    <glyph glyph-name="CNS1.14354" unicode="&#xe403;" 
 />
    <glyph glyph-name="CNS1.14355" unicode="&#xe404;" 
d="M940 132c-9 -69 -21 -167 -100 -175h-147c-62 0 -95 34 -102 89v772l65 -1v-755c0 -24 14 -46 51 -46h106c20 0 37 15 47 30c13 32 17 72 20 108zM540 14l-61 -23c0 8 -3 16 -3 24c-6 19 -9 40 -17 58l-369 -86l-37 59c69 10 136 24 203 40v196h-153l1 347l152 1v178
l62 -1v-176l156 -1v-349h-156v-179c38 7 76 18 115 27c-7 22 -27 42 -41 61l57 19c47 -59 76 -122 91 -195zM413 338v234h-95v-234h95zM256 339l-1 233h-91l-1 -233h93z" />
    <glyph glyph-name="CNS1.14357" unicode="&#xe406;" 
d="M914 133c-25 -25 -60 -33 -103 -33c-15 0 -32 3 -48 6c-15 3 -29 6 -40 9l-17 69c45 -14 79 -22 105 -22c47 0 74 22 74 65c0 59 -37 149 -125 235l104 258h-190v-789h-64v848h321v-64l-100 -246c86 -90 116 -168 116 -241c0 -36 -8 -70 -33 -95zM70 15l-34 61l68 11v562
h112c31 41 65 127 75 174l60 -21c-9 -40 -39 -111 -66 -153h242v-491l49 10v-64zM468 586h-68v-447l68 10v437zM345 586h-62v-468l62 8v460zM229 586h-65v-488l65 11v477z" />
    <glyph glyph-name="CNS1.14360" unicode="&#x275e0;" 
d="M905 722h-289l-1 61l290 -1v-60zM590 679l-52 -42c-40 59 -102 110 -168 130l43 41c70 -20 129 -72 177 -129zM950 558l-1 -60h-139v-494c-4 -23 -16 -46 -38 -59c-32 -19 -78 -9 -117 -12l-19 62l81 -3c11 1 20 9 26 18v488h-157c-1 19 0 41 -1 60h365zM537 419l-49 -43
c-31 61 -94 124 -158 146l47 43c63 -26 125 -87 160 -146zM302 799c-53 -108 -107 -187 -191 -258l-51 42c94 59 153 153 189 249c19 -10 35 -22 53 -33zM576 287c-37 -125 -105 -241 -202 -338l-53 42c103 90 165 206 201 328c19 -10 37 -20 54 -32zM331 567
c-25 -47 -51 -97 -87 -138l1 -501h-65v428c-32 -28 -66 -58 -102 -81l-48 45c105 64 200 174 252 281z" />
    <glyph glyph-name="CNS1.14362" unicode="&#x275e4;" 
 />
    <glyph glyph-name="CNS1.14363" unicode="&#xe40c;" 
d="M925 -6h-860v60h332v641l-274 1v59h699c-7 -175 -12 -366 -44 -470c-7 -24 -34 -44 -59 -50c-48 -7 -96 4 -140 14l-13 70c38 -9 74 -25 114 -26c15 -1 29 9 36 22c24 89 37 285 43 380h-300v-641h466v-60z" />
    <glyph glyph-name="CNS1.14366" unicode="&#xe40f;" 
d="M980 446l-43 -48c-60 35 -117 78 -159 131l-2 -55h-226v55c-46 -49 -95 -93 -153 -129c-12 19 -26 35 -39 51c85 51 171 125 212 216l-180 1v59h202c15 38 23 79 30 119l55 -25c-5 -31 -13 -63 -21 -95l281 1v-59h-176c38 -96 129 -175 219 -222zM256 707
c-18 -11 -35 -24 -52 -36c-17 47 -50 93 -93 124l-15 11c16 11 34 22 49 34c48 -33 89 -82 111 -133zM926 376l-1 -58h-322l-26 -99l265 -1c-5 -78 -14 -157 -35 -230c-16 -37 -56 -62 -96 -63c-33 0 -62 9 -92 15l-34 11c-5 24 -12 44 -17 68c45 -15 94 -36 148 -33
c28 7 39 38 43 64c5 35 13 74 17 110h-296l57 158l-138 -1v59h527zM394 276l-37 -57c-29 39 -67 67 -110 85l-1 -394h-64l1 423c-31 -29 -66 -58 -100 -85c-19 14 -33 29 -50 43c73 51 137 126 192 199l3 4c21 27 32 66 45 97h-218v59l289 1c-3 -50 -18 -94 -38 -138
c-16 -36 -36 -69 -60 -100v-45l31 -11c22 26 32 57 42 88l52 -35c-12 -28 -26 -57 -47 -80c26 -14 49 -32 70 -54zM771 534c-33 40 -57 86 -77 133h-59c-21 -47 -45 -95 -81 -133h217z" />
    <glyph glyph-name="CNS1.14370" unicode="&#xe415;" 
 />
    <glyph glyph-name="CNS1.14371" 
d="M863 617h-741l-1 163h742v-163zM900 243l-8 -158c-11 -49 0 -126 -65 -145c-37 -11 -80 -4 -115 3l-17 63c31 -8 61 -17 95 -17c11 1 20 4 26 14c11 38 16 80 19 121l9 108h-291v55c24 57 34 116 36 182c18 -5 36 -10 53 -16c-3 -57 -17 -115 -34 -168h137
c13 71 13 146 20 219h-233v54h294c-4 -96 -17 -206 -25 -273h99v-42zM787 93h-255v55h255v-55zM512 484h-96v-102h-99v-38h158v-175h-156v-40h175v-53h-176v-143h-59v142h-209v53h209v40h-158v176h158v38h-100v102h-96v53h97v60h58l1 -60h138v60h59v-60h96v-53zM803 669v59
h-167v-59h167zM576 670v58h-168v-58h168zM350 728h-168v-58h167zM356 436v48h-138v-48h138zM417 222v68h-99v-68h99zM259 222v68h-98v-68h98z" />
    <glyph glyph-name="CNS1.14373" 
 />
    <glyph glyph-name="CNS1.14374" unicode="&#xe419;" 
 />
    <glyph glyph-name="CNS1.14375" unicode="&#xe41a;" 
 />
    <glyph glyph-name="CNS1.14376" unicode="&#x28a25;" 
 />
    <glyph glyph-name="CNS1.14377" unicode="&#xe41c;" 
 />
    <glyph glyph-name="CNS1.14378" unicode="&#x27924;" 
 />
    <glyph glyph-name="CNS1.14379" unicode="&#x27abd;" 
 />
    <glyph glyph-name="CNS1.14380" unicode="&#xe41f;" 
 />
    <glyph glyph-name="CNS1.14381" unicode="&#xe420;" 
d="M909 -76l-60 1v904h60v-905zM513 684l-47 -39c-24 54 -67 104 -113 144l40 37c48 -35 93 -89 120 -142zM766 84h-55v638h55v-638zM626 296c0 -147 -15 -260 -109 -376l-54 42c44 49 70 102 85 156l-139 -89l-34 54c14 12 22 26 22 50v343h-90v-452h-55v73h-106v-73h-55
v745h216v-232h149v-410l108 69c8 73 3 144 3 205v424h59v-529zM251 569v140h-104v-140h104zM251 365v147l-104 1v-148h104zM251 155v154h-104v-154h104z" />
    <glyph glyph-name="CNS1.14384" unicode="&#x27a59;" 
 />
    <glyph glyph-name="CNS1.14385" unicode="&#xe424;" 
 />
    <glyph glyph-name="CNS1.14386" unicode="&#x27b3a;" 
 />
    <glyph glyph-name="CNS1.14387" unicode="&#xe427;" 
 />
    <glyph glyph-name="CNS1.14388" unicode="&#x27b38;" 
 />
    <glyph glyph-name="CNS1.14389" unicode="&#xe429;" 
 />
    <glyph glyph-name="CNS1.14390" unicode="&#xe42a;" 
 />
    <glyph glyph-name="CNS1.14391" unicode="&#xe42b;" 
d="M895 699c-11 -77 -35 -152 -82 -215l-58 29c15 17 29 37 39 57l2 4c23 46 38 94 44 144c1 2 1 5 3 8c18 -8 36 -17 52 -27zM912 800c-145 -72 -339 -87 -515 -88c-14 23 -32 44 -46 67c173 -12 368 3 514 67zM680 511l-63 -14c1 2 -3 5 2 7c-2 66 -21 127 -56 180
c19 4 37 9 56 12c37 -54 55 -113 61 -185zM516 503c-20 -11 -40 -18 -60 -30c-7 71 -36 127 -83 181c16 9 38 20 56 27c46 -53 77 -111 87 -178zM308 675l-50 -41c-26 54 -89 123 -138 163l45 38c52 -35 114 -107 143 -160zM899 -68h-64v58h-349c-1 -19 0 -39 0 -59h-69
l1 479c76 10 121 20 181 61l47 -37c-44 -37 -116 -66 -163 -70v-122h145v-57h-145v-138h352v140l-153 1v55l153 -1v121h-162v56h226v-487zM407 84l-190 -140l-37 54c15 12 24 26 24 50v423h-141v57h203v-471l141 94v-67z" />
    <glyph glyph-name="CNS1.14393" unicode="&#x25565;" 
 />
    <glyph glyph-name="CNS1.14394" unicode="&#xe42e;" 
 />
    <glyph glyph-name="CNS1.14395" 
d="M539 650l-51 -39c-29 54 -84 113 -137 149l48 36c55 -38 108 -90 140 -146zM903 540c-9 -163 -17 -402 -41 -529c-5 -28 -29 -59 -58 -69c-50 -17 -104 0 -151 11l-11 64c39 -5 85 -22 128 -18c30 14 28 44 36 70c16 135 24 270 28 407h-182c-12 -38 -13 -66 -28 -100
c62 -42 115 -110 146 -164c-16 -12 -35 -22 -52 -33c-27 53 -73 104 -117 140c-37 -94 -131 -276 -289 -371c-12 16 -26 28 -43 45c24 14 49 32 72 52c142 121 205 272 245 431h-229v63h243c10 35 13 76 17 113c6 58 11 116 12 175c22 -5 42 -11 63 -19l-9 -152l-15 -116
h235zM309 675l-50 -41c-26 54 -89 123 -138 163l45 38c52 -35 114 -107 143 -160zM408 124l-190 -140l-37 54c15 12 24 26 24 50v383h-141v57h203v-431l141 94v-67z" />
    <glyph glyph-name="CNS1.14397" unicode="&#xe431;" 
 />
    <glyph glyph-name="CNS1.14398" unicode="&#x24a7a;" 
 />
    <glyph glyph-name="CNS1.14399" unicode="&#xe433;" 
 />
    <glyph glyph-name="CNS1.14400" unicode="&#xe434;" 
 />
    <glyph glyph-name="CNS1.14401" unicode="&#xe435;" 
 />
    <glyph glyph-name="CNS1.14402" unicode="&#x216df;" 
d="M936 649v-58h-254c4 -123 11 -251 46 -366c50 100 94 231 108 308l54 -33c-23 -109 -75 -241 -134 -337c18 -36 57 -102 114 -156c8 38 11 77 13 114l59 -26c-2 -52 -10 -98 -30 -138c-6 -12 -15 -19 -25 -19c-38 0 -67 41 -92 64c-7 8 -19 24 -33 42
c-14 19 -29 40 -45 67c-56 -68 -116 -134 -183 -180l-48 42c76 52 151 130 200 194c-48 128 -59 278 -64 423h-115v-440l116 77v-64c-48 -40 -105 -70 -154 -108l-47 44c16 13 23 30 23 51v499h176v180h62v-180h253zM776 720c-17 15 -36 28 -59 40l32 40
c50 -22 92 -53 133 -100c-22 -16 -36 -34 -43 -40c-20 22 -11 14 -63 60zM338 61c-22 29 -52 62 -74 80c-44 -75 -90 -134 -161 -204l-48 44c72 65 119 121 160 197c-36 27 -78 50 -127 72c19 54 31 107 40 159c10 54 17 108 27 169h-96v59h106l19 194l63 -4
c-5 -68 -15 -128 -22 -190h148c-6 -153 -20 -311 -82 -441c29 -27 63 -50 87 -81zM217 578c-14 -88 -44 -253 -55 -299c28 -12 52 -30 79 -45c45 104 65 257 68 344h-92z" />
    <glyph glyph-name="CNS1.14404" unicode="&#xe438;" 
 />
    <glyph glyph-name="CNS1.14405" unicode="&#xe439;" 
 />
    <glyph glyph-name="CNS1.14406" unicode="&#x27d54;" 
 />
    <glyph glyph-name="CNS1.14407" unicode="&#x27d8f;" 
 />
    <glyph glyph-name="CNS1.14408" unicode="&#x2f9d4;" 
 />
    <glyph glyph-name="CNS1.14409" unicode="&#xe43d;" 
 />
    <glyph glyph-name="CNS1.14410" unicode="&#x27d53;" 
 />
    <glyph glyph-name="CNS1.14411" unicode="&#xe43f;" 
 />
    <glyph glyph-name="CNS1.14412" unicode="&#x27d98;" 
 />
    <glyph glyph-name="CNS1.14413" unicode="&#x27dbd;" 
 />
    <glyph glyph-name="CNS1.14414" unicode="&#xe442;" 
 />
    <glyph glyph-name="CNS1.14415" unicode="&#xe443;" 
 />
    <glyph glyph-name="CNS1.14416" unicode="&#x21910;" 
 />
    <glyph glyph-name="CNS1.14417" unicode="&#xe445;" 
 />
    <glyph glyph-name="CNS1.14418" unicode="&#xe446;" 
 />
    <glyph glyph-name="CNS1.14419" unicode="&#xe447;" 
 />
    <glyph glyph-name="CNS1.14420" unicode="&#xe449;" 
 />
    <glyph glyph-name="CNS1.14421" 
d="M917 307c-11 -47 -24 -93 -47 -136c-14 -21 -38 -38 -66 -38h-166c-41 0 -82 22 -82 73v290h243v212h-277v58h340v-370h-63v42h-180v-217c0 -24 9 -31 33 -31h133c30 0 44 28 54 61c8 26 15 56 20 81zM954 47l-28 -66h-210l-186 2c-131 1 -252 50 -341 140
c-16 -69 -52 -139 -95 -196l-55 37c46 56 78 127 91 199c11 62 14 130 14 192l63 -10c0 -51 -1 -96 -8 -145c26 -39 67 -73 108 -92v339h-218v58h181v133h-150v58h150v148h64v-148h149v-58h-149v-133h180v-58h-143v-124h126v-57h-126v-189c101 -43 230 -37 342 -37
c39 0 202 4 241 7z" />
    <glyph glyph-name="CNS1.14423" unicode="&#x28002;" 
 />
    <glyph glyph-name="CNS1.14424" unicode="&#x21014;" 
 />
    <glyph glyph-name="CNS1.14425" unicode="&#x2498a;" 
d="M902 398c-87 59 -156 139 -184 202l-15 34v-171c0 -22 -9 -53 -48 -60c-15 -3 -31 -4 -47 -4h-47c-6 20 -13 39 -19 60c24 -3 45 -8 69 -5c15 0 24 6 29 16c3 8 3 17 3 26v347h61v-87c15 -37 43 -89 51 -105c43 29 90 66 127 118c8 -8 15 -15 21 -22c7 -8 15 -15 24 -22
c-33 -48 -100 -102 -142 -126c49 -71 70 -97 160 -157zM815 -62v70h-304v-67h-61v420h426v-423h-61zM540 539c-50 -80 -101 -122 -135 -146l-51 38v-17h-108v-230l146 53v-61c-114 -40 -194 -70 -308 -110l-35 55c42 13 109 31 133 41v253h-104v57h104v203h-123v58h320v-59
h-133v-202h108v-35c50 29 100 84 123 116c25 35 38 74 54 127h-109v59h186c-2 -78 -35 -148 -68 -200zM815 302h-304v-91h304v91zM814 152h-303v-85h303v85z" />
    <glyph glyph-name="CNS1.14429" unicode="&#xe452;" 
 />
    <glyph glyph-name="CNS1.14430" unicode="&#xe453;" 
d="M965 124c-8 -47 -16 -98 -42 -137c-8 -12 -18 -21 -39 -26c-41 -1 -86 -4 -130 7c-26 13 -42 38 -42 66v420h63v-409c0 -16 10 -21 21 -24h72c28 18 23 54 33 81l3 43c20 -7 41 -13 61 -21zM908 475l-64 -1l1 134l-154 1c-4 -180 7 -379 -97 -528
c-39 -57 -82 -108 -137 -156l-50 48c95 73 171 170 196 283c16 70 24 145 24 221v131h-102v-137h-62v196l164 1l-1 162c21 0 41 2 63 1l1 -163h216zM508 395c-14 -32 -39 -61 -57 -92l-41 -55v-246c-3 -25 -17 -48 -39 -61c-32 -15 -73 -7 -110 -9c-7 19 -14 38 -20 58
c31 0 63 -8 92 1c9 5 12 13 15 22v157c-78 -89 -175 -162 -273 -223l-52 47c40 17 79 44 116 68c63 42 124 94 171 156l6 8c13 13 24 26 34 41v7c-91 -18 -182 -43 -272 -63l-34 53l80 16l-1 458h72c30 32 47 68 61 107c19 -6 37 -18 56 -27c-11 -29 -24 -55 -42 -81l140 1
v-385l50 74c17 -9 32 -20 48 -32zM348 597l-1 82l-161 -1l-1 -80zM348 459v79l-163 1l1 -80h162zM348 328v71l-162 1v-104z" />
    <glyph glyph-name="CNS1.14432" unicode="&#xe455;" 
 />
    <glyph glyph-name="CNS1.14433" unicode="&#xe456;" 
 />
    <glyph glyph-name="CNS1.14434" unicode="&#xe457;" 
 />
    <glyph glyph-name="CNS1.14435" unicode="&#xe458;" 
d="M914 657c-4 -68 -21 -142 -43 -204l-64 11c24 48 33 88 40 134l-193 -1c-29 -86 -59 -139 -105 -205l-60 33c69 80 138 243 142 419l63 -15c-2 -59 -15 -136 -24 -172h244zM956 -16l-50 -49c-98 73 -169 171 -198 281c-28 -100 -127 -217 -214 -284l-56 44
c103 60 186 171 220 293c20 72 20 152 23 230l60 -9l-6 -153c20 -141 115 -289 221 -353zM512 201l-155 -42v-230h-63v211l-182 -54l-33 59c72 16 149 37 215 57v143h-183v67c38 64 75 149 93 224h-127v59h138c11 43 16 90 21 136l59 -17c-2 -40 -9 -79 -15 -119h225v-59
h-238c-21 -82 -50 -159 -92 -232h119v157h63v-157h139v-59h-139v-122l155 39v-61z" />
    <glyph glyph-name="CNS1.14439" unicode="&#xe45c;" 
 />
    <glyph glyph-name="CNS1.14440" unicode="&#x2a29f;" 
 />
    <glyph glyph-name="CNS1.14441" unicode="&#x20a50;" 
 />
    <glyph glyph-name="CNS1.14442" unicode="&#xe45f;" 
 />
    <glyph glyph-name="CNS1.14443" 
 />
    <glyph glyph-name="CNS1.14444" unicode="&#x289de;" 
 />
    <glyph glyph-name="CNS1.14445" unicode="&#x2853d;" 
 />
    <glyph glyph-name="CNS1.14446" unicode="&#x23dbb;" 
 />
    <glyph glyph-name="CNS1.14447" unicode="&#xe464;" 
d="M890 62h-63v72l-398 -1v-50h-62v586h227v170h62v-170l234 1v-608zM969 31l-33 -67l-399 1c-124 0 -234 39 -324 116c-42 -57 -85 -112 -138 -157l-46 45c55 49 104 98 138 157c-51 60 -90 126 -116 198l49 24c22 -43 40 -94 73 -134l24 -29c28 67 49 142 53 219h-186
l-1 58c76 63 144 145 184 230l-194 -1l1 59h257l-1 -63c-33 -85 -92 -156 -159 -224h165c-1 -116 -29 -230 -76 -329c95 -88 215 -112 351 -111l230 1c50 0 99 5 148 7zM828 436l-1 174h-171v-174h172zM594 436v173l-165 1l-1 -174h166zM828 193v185l-172 -1v-185zM594 193
l-1 185l-165 -1v-184h166z" />
    <glyph glyph-name="CNS1.14449" unicode="&#xe466;" 
d="M925 306l-57 -27c-20 78 -56 151 -113 210l52 27c58 -59 93 -135 118 -210zM898 642h-173v-505c0 -50 -25 -71 -60 -71h-90l-22 60c33 -2 64 -4 91 0c16 2 19 9 19 31v485h-93v-199c0 -105 -16 -207 -79 -286c-32 -41 -53 -66 -95 -97l-51 41c54 40 95 88 120 132
c36 63 43 128 43 203v206h-187v60h271c-36 45 -87 71 -138 87l46 41c41 -3 130 -61 160 -96l-33 -32h271v-60zM267 649l-55 -41c-25 52 -74 111 -124 155l50 40c50 -44 85 -89 129 -154zM450 493c-8 -82 -44 -153 -91 -217l-57 24c52 64 88 131 95 213zM969 28l-27 -66h-431
c-141 0 -229 75 -281 138c-48 -47 -87 -91 -147 -137l-43 52c51 38 98 76 155 141v273h-136v60h199v-332c52 -67 138 -131 255 -137c118 -6 263 -2 456 8z" />
    <glyph glyph-name="CNS1.14451" unicode="&#x22325;" 
d="M404 533l1 250h437v-250h-438zM348 104v56h251v90h-189v61h189v88c-64 -6 -84 -6 -153 -8l-33 60c169 0 299 18 398 60l40 -58c-73 -26 -119 -34 -191 -44v-98h193v-61h-192v-90h258v-56h-571zM940 -24l-387 -1c-132 0 -231 24 -329 118c-33 -54 -78 -108 -141 -163
l-39 49c61 46 108 108 137 157c-49 58 -79 114 -110 178l44 39c12 -22 25 -47 38 -71c15 -27 31 -54 54 -85c16 40 28 68 37 98c9 29 16 61 19 103h-190v57c76 66 143 149 188 227h-193v59h255v-66c-29 -64 -98 -151 -163 -218h169c-3 -119 -28 -220 -76 -312
c94 -90 178 -111 346 -111h238c47 0 72 5 126 8zM778 724h-311v-133h311v133z" />
    <glyph glyph-name="CNS1.14453" unicode="&#x26ed7;" 
 />
    <glyph glyph-name="CNS1.14454" unicode="&#xe46d;" 
 />
    <glyph glyph-name="CNS1.14455" unicode="&#x2853c;" 
 />
    <glyph glyph-name="CNS1.14456" unicode="&#x27abe;" 
 />
    <glyph glyph-name="CNS1.14457" unicode="&#xe470;" 
 />
    <glyph glyph-name="CNS1.14458" unicode="&#x2856c;" 
 />
    <glyph glyph-name="CNS1.14459" unicode="&#x2860b;" 
 />
    <glyph glyph-name="CNS1.14460" unicode="&#xe473;" 
d="M947 631l-1 -60h-132v-510c0 -65 -19 -133 -101 -133h-103l-22 71c48 -2 66 -8 114 -4c31 -3 49 9 49 46v530h-274v60l274 -1v206h63v-205h133zM679 210l-56 -29c-24 95 -63 186 -134 259l52 31c76 -72 113 -167 138 -261zM480 287c-16 -10 -35 -22 -52 -35
c-25 63 -65 128 -115 175v-502h-61v459c-39 -91 -100 -175 -173 -249l-48 42c111 114 190 244 219 394h-173l1 59l173 1v199h62v-200l127 1v-59l-127 -1v-123l30 28c57 -49 107 -125 137 -189z" />
    <glyph glyph-name="CNS1.14462" unicode="&#xe475;" 
d="M948 271c9 -48 -3 -95 -39 -128c-37 -33 -97 -42 -144 -23l-22 9c-6 27 -16 54 -23 79c40 -19 90 -54 136 -22c25 17 37 45 30 75c-15 67 -61 120 -108 174l-40 38c46 86 87 173 121 264h-155l-1 -803h-64l-1 864l285 1l-1 -75c-31 -82 -72 -160 -110 -239
c63 -61 113 -134 136 -214zM585 817c-44 -54 -101 -103 -158 -144c57 -43 108 -96 155 -151l-45 -47c-46 61 -104 116 -165 162l-7 -2c-75 -45 -154 -79 -234 -113l-49 49c80 30 158 63 233 106c-59 41 -123 72 -190 95c12 16 23 35 36 50c75 -26 143 -65 211 -109l6 1
c60 40 112 86 160 141c17 -11 30 -25 47 -38zM619 394h-316c-38 -151 -114 -281 -223 -399h-3c-16 16 -30 29 -47 46c26 26 49 53 71 80v2c63 83 107 172 134 270h-169v63l185 -1c6 31 10 67 11 98c22 -5 43 -11 63 -19c-3 -26 -5 -52 -9 -78h303v-62zM620 -20
c-19 -11 -36 -25 -55 -36c-7 27 -17 52 -29 78l-2 2c-90 -9 -178 -24 -263 -45c-16 18 -29 38 -44 58c41 55 71 115 97 178c8 20 16 42 22 64l19 74c21 -8 39 -21 59 -32c-23 -93 -60 -182 -115 -261c64 4 129 14 194 20l1 2c-16 25 -33 47 -56 70l48 36
c20 -17 38 -40 53 -63c30 -44 54 -94 71 -145z" />
    <glyph glyph-name="CNS1.14464" unicode="&#xe477;" 
d="M923 216c-1 -44 -31 -84 -70 -105c-33 -17 -72 -16 -111 -16l-21 68c44 -3 106 -20 131 28c7 15 9 32 11 49c-10 93 -67 166 -134 235c44 82 81 168 117 253h-171v-802h-60v862h296l-1 -59c-36 -81 -63 -162 -108 -242c67 -76 122 -165 121 -271zM515 8h-60v77h-300v-76
h-63v644h181v180h64v-179h178v-646zM455 410v185h-119v-185h119zM273 410v186h-119v-186h119zM455 142v209h-119v-209h119zM273 144v207h-119v-207h119z" />
    <glyph glyph-name="CNS1.14468" unicode="&#xe47c;" 
 />
    <glyph glyph-name="CNS1.14469" unicode="&#xe47d;" 
 />
    <glyph glyph-name="CNS1.14470" unicode="&#x28933;" 
 />
    <glyph glyph-name="CNS1.14471" unicode="&#x21e89;" 
 />
    <glyph glyph-name="CNS1.14472" unicode="&#xe480;" 
d="M915 685c-2 -138 -9 -364 -14 -440c-4 -63 -10 -123 -15 -175c-5 -49 -9 -101 -53 -129c-50 -23 -110 -3 -163 0l-13 67c40 -9 81 -16 124 -18c11 4 26 5 31 25c21 83 28 300 29 345c2 49 5 196 5 265h-265c-28 -66 -62 -134 -109 -192l-60 36c92 97 140 236 155 369
l62 -19c-3 -45 -15 -91 -25 -134h311zM815 137l-65 -26c0 29 -4 59 -11 86l-226 -51l-38 51c63 61 121 214 131 343l62 -24c-15 -108 -51 -206 -108 -297l160 35c-12 30 -30 70 -51 98l56 24c43 -75 83 -149 90 -239zM437 310h-141v-251l138 67v-62l-200 -103l-38 52
c26 14 37 43 37 73v224h-146v59h146v118h-59c-25 -35 -47 -68 -81 -97l-47 50c96 82 157 230 167 394l59 -15c3 -48 -5 -102 -13 -122h171v-59h-183c-11 -33 -25 -60 -38 -92h207v-59h-120v-117h141v-60z" />
    <glyph glyph-name="CNS1.14475" unicode="&#xe483;" 
d="M965 130l-45 -43c-99 99 -152 225 -187 354c-15 55 -21 76 -30 142l-2 -396h123v-57h-123v-198h-62v198h-120v57h120v398c-15 -120 -69 -340 -199 -499l-48 41c90 94 166 311 189 488h-179v57h237v165h62v-165h242v-57h-191c26 -149 74 -352 213 -485zM376 301h-128v-236
l126 75v-67l-159 -98l-37 49c5 7 8 17 8 29v248h-122v57h122v100h-71l-42 -55l-50 41c98 109 131 245 156 386l62 -24c-7 -35 -18 -77 -28 -116h163v-57h-179c-14 -41 -28 -81 -47 -118h205v-57h-107v-100h128v-57z" />
    <glyph glyph-name="CNS1.14477" unicode="&#x28ac6;" 
 />
    <glyph glyph-name="CNS1.14478" unicode="&#x23c9b;" 
 />
    <glyph glyph-name="CNS1.14479" unicode="&#x28b0c;" 
 />
    <glyph glyph-name="CNS1.14480" unicode="&#x255db;" 
 />
    <glyph glyph-name="CNS1.14481" unicode="&#x20d31;" 
d="M843 -67v77h-386v-80h-62v854l509 1v-852h-61zM251 120v64h-111v-64h-58v589h231v-589h-62zM843 723h-386v-654h386v654zM251 650h-111v-407h111v407zM683 512v-111h90v-241h-240v241h88v111h-126v59h126v118h63v-119h120v-58h-121zM715 347h-123v-134h123v134z" />
    <glyph glyph-name="CNS1.14483" unicode="&#xe48c;" 
 />
    <glyph glyph-name="CNS1.14484" unicode="&#x28ae1;" 
 />
    <glyph glyph-name="CNS1.14485" unicode="&#x28beb;" 
 />
    <glyph glyph-name="CNS1.14486" unicode="&#xe490;" 
 />
    <glyph glyph-name="CNS1.14487" unicode="&#x28ae2;" 
 />
    <glyph glyph-name="CNS1.14488" unicode="&#x28ae5;" 
 />
    <glyph glyph-name="CNS1.14489" unicode="&#xe493;" 
 />
    <glyph glyph-name="CNS1.14490" unicode="&#xe494;" 
d="M963 -18l-42 -51c-14 3 -26 14 -37 21c-127 99 -172 248 -196 398h-5c-24 -151 -105 -296 -238 -376c-27 -16 -52 -32 -79 -45l-50 49c128 59 238 158 284 301c7 21 13 43 18 72h-200v60h210c9 57 12 121 13 180h-105c-20 -54 -46 -106 -82 -151l-56 35
c62 85 107 183 103 296l60 -16c0 -36 -5 -70 -8 -104h89c3 61 1 128 -1 190l61 -6c0 -64 2 -123 2 -184h180v-60h-182c-2 -59 -5 -120 -12 -180h236v-60h-175c12 -97 47 -188 99 -268c28 -43 69 -79 113 -101zM396 297h-134v-225l123 70v-62l-197 -115l-34 51
c34 19 45 58 45 88v193h-137v59h137v98h-61c-25 -35 -27 -50 -61 -79l-47 40c91 90 141 245 151 409l56 -15c-1 -50 -13 -97 -16 -121h165v-59h-178c-5 -28 -26 -82 -41 -116h208v-59h-113v-98h134v-59z" />
    <glyph glyph-name="CNS1.14492" unicode="&#x28c39;" 
 />
    <glyph glyph-name="CNS1.14493" unicode="&#x28bff;" 
 />
    <glyph glyph-name="CNS1.14494" unicode="&#xe498;" 
 />
    <glyph glyph-name="CNS1.14495" unicode="&#xe499;" 
d="M759 681l-51 -27c-21 54 -58 102 -105 145l43 27c50 -39 88 -91 113 -145zM934 635l-1 -57h-375v-281c0 -148 -34 -225 -107 -321c-16 -21 -19 -25 -36 -43l-48 44c71 78 129 168 129 272v386h438zM429 635h-148c-5 -59 -17 -119 -33 -174l164 1l-1 -391h-185v-61h-62
v289c-22 -24 -40 -41 -70 -64l-40 42c101 90 162 217 169 358h-146v58h352v-58zM350 404h-120l-5 -6l1 -269h123z" />
    <glyph glyph-name="CNS1.14497" unicode="&#xe49b;" 
 />
    <glyph glyph-name="CNS1.14498" unicode="&#xe49c;" 
 />
    <glyph glyph-name="CNS1.14499" unicode="&#xe49d;" 
 />
    <glyph glyph-name="CNS1.14500" unicode="&#xe49e;" 
 />
    <glyph glyph-name="CNS1.14501" unicode="&#xe49f;" 
d="M339 744l-38 -40c-45 45 -98 77 -150 97l28 39c52 -15 119 -59 160 -96zM887 783l-1 -754c0 -50 -16 -64 -49 -71c-27 -6 -61 -5 -106 -5l-20 58l90 -3c14 0 24 8 24 33l-1 684h-428v58h491zM787 432h-184v-97l128 1v-272h-63v55h-190v-56h-62v273l125 -1v97l-182 1v57
h182v82c-44 -5 -88 -14 -135 -15l-33 49c111 6 221 31 316 77l39 -40c-43 -25 -81 -44 -125 -57v-96h184v-58zM358 570l-34 -37c-31 34 -65 63 -104 87l31 36c41 -21 75 -52 107 -86zM313 424l-36 -37c-28 38 -65 68 -101 94l31 35c35 -16 78 -57 106 -92zM360 314
c-28 -80 -74 -179 -129 -250l-48 33c61 73 102 158 132 245zM163 -58h-62v762h62v-762zM669 177v102l-191 -1v-101h191z" />
    <glyph glyph-name="CNS1.14504" unicode="&#x2127c;" 
 />
    <glyph glyph-name="CNS1.14505" unicode="&#x23e2e;" 
 />
    <glyph glyph-name="CNS1.14506" unicode="&#xe4a5;" 
d="M851 744c-9 -86 -26 -159 -68 -253c-22 3 -43 12 -62 18c27 55 46 115 59 176h-201c-31 -96 -88 -183 -160 -250c-17 12 -39 24 -56 37c113 92 176 230 187 375l56 -18c-2 -28 -7 -58 -13 -85h258zM907 -68h-65v73l-343 -1v-70h-66v459c68 14 134 44 180 94l43 -47
c-40 -44 -98 -72 -157 -90v-90h128l-1 -59l-127 -1v-137l342 1v136h-130v59h130l1 126l-144 1v58l209 1v-513zM381 250v-1c0 -36 -28 -69 -63 -79c-32 -10 -65 1 -96 5l-15 67c28 -6 56 -15 86 -15c10 0 20 6 24 15c10 33 3 68 -5 101c-13 56 -50 108 -91 151
c38 78 67 161 90 246l-122 -1v-803l-67 -1v865h251l-1 -54c-21 -84 -48 -165 -81 -244c58 -70 90 -156 90 -252z" />
    <glyph glyph-name="CNS1.14508" unicode="&#xe4a7;" 
 />
    <glyph glyph-name="CNS1.14509" unicode="&#xe4a8;" 
 />
    <glyph glyph-name="CNS1.14510" unicode="&#xe4a9;" 
d="M726 626l-48 42c49 44 92 98 116 152c18 -13 39 -23 54 -34c-21 -55 -85 -131 -122 -160zM415 613h498v-59h-147v-111c0 -25 16 -29 32 -29h130v-56h-160c-38 0 -64 28 -64 60v136l-289 1v58zM593 512c-15 -47 -79 -146 -140 -188c25 1 -53 1 415 1v-287h80v-59h-618v59
h96l1 270l-35 -24c1 -4 2 -7 3 -10l-54 -26c-16 55 -28 91 -66 148v-460h-62v409c-21 -63 -69 -138 -125 -197l-47 39c85 82 148 241 165 342h-150v59h157v124c-47 -10 -96 -14 -123 -15l-30 58c117 3 222 21 309 62l30 -59c-36 -14 -86 -26 -124 -35v-135h115v-59h-115
v-112l34 24c25 -27 45 -61 64 -103c77 51 136 134 161 208c15 -11 51 -29 59 -34zM806 266h-65v-228h65v228zM680 266h-64v-228h64v228zM556 266h-66v-228h66v228zM554 627c-37 68 -77 112 -130 150l42 34c36 -19 112 -93 138 -143z" />
    <glyph glyph-name="CNS1.14513" unicode="&#xe4ac;" 
 />
    <glyph glyph-name="CNS1.14514" unicode="&#xe4ad;" 
d="M959 78l-40 -55c-185 64 -283 142 -381 247v-247c0 -39 -19 -82 -75 -82h-77l-22 64c42 -4 64 -5 88 -3c14 3 22 9 22 26v373h-276v59h276v98h-404v59h404v93h-276v59h276v72h64v-72h269v-152h123v-59h-123v-157h-269v-49c11 -26 73 -86 117 -120c55 32 120 83 167 131
l40 -39c-56 -52 -104 -89 -161 -127c44 -34 72 -48 123 -71c45 -20 86 -34 135 -48zM362 266l-43 -44c-43 50 -112 84 -174 114l36 40c61 -19 144 -65 181 -110zM441 164c-91 -36 -243 -109 -322 -144l-51 54c94 31 279 112 373 155v-65zM743 617v93h-205v-93h205zM743 460
v98h-205v-98h205z" />
    <glyph glyph-name="CNS1.14516" unicode="&#x28ae0;" 
 />
    <glyph glyph-name="CNS1.14517" unicode="&#xe4b0;" 
 />
    <glyph glyph-name="CNS1.14518" unicode="&#xe4b1;" 
d="M965 -17l-44 -46c-104 68 -178 185 -233 279c-63 -103 -141 -209 -245 -282l-42 49c109 74 196 189 254 297c-79 168 -119 321 -144 439h-36v59h391c9 -67 -16 -133 -33 -196c-27 -103 -60 -206 -109 -301c61 -109 134 -216 241 -298zM493 155l-58 -33
c-26 78 -61 153 -92 211c-59 -130 -154 -247 -260 -338l-42 49c101 77 198 204 265 351c-52 78 -120 153 -181 216l50 30c56 -56 114 -117 157 -175c28 81 42 165 51 253h-319v59h383c-10 -132 -26 -256 -73 -374c52 -78 95 -159 119 -249zM805 718h-238
c30 -126 74 -267 125 -363c41 93 80 226 113 363z" />
    <glyph glyph-name="CNS1.14520" unicode="&#x26cb8;" 
 />
    <glyph glyph-name="CNS1.14521" unicode="&#x20274;" 
 />
    <glyph glyph-name="CNS1.14522" unicode="&#x26410;" 
 />
    <glyph glyph-name="CNS1.14523" unicode="&#x290af;" 
 />
    <glyph glyph-name="CNS1.14524" unicode="&#x290e5;" 
 />
    <glyph glyph-name="CNS1.14525" unicode="&#x24ad1;" 
 />
    <glyph glyph-name="CNS1.14526" unicode="&#x21915;" 
 />
    <glyph glyph-name="CNS1.14527" unicode="&#x2330a;" 
 />
    <glyph glyph-name="CNS1.14528" unicode="&#xe4bb;" 
 />
    <glyph glyph-name="CNS1.14529" unicode="&#xe4bc;" 
 />
    <glyph glyph-name="CNS1.14530" unicode="&#xe4bd;" 
 />
    <glyph glyph-name="CNS1.14531" unicode="&#xe4be;" 
 />
    <glyph glyph-name="CNS1.14532" unicode="&#xe4bf;" 
 />
    <glyph glyph-name="CNS1.14533" unicode="&#xe4c0;" 
 />
    <glyph glyph-name="CNS1.14534" unicode="&#x24ae9;" 
 />
    <glyph glyph-name="CNS1.14535" unicode="&#xe4c2;" 
d="M785 428h-607v59h545v100l-506 -1v57h506v96h-545v60h607v-371zM851 315c-31 -56 -64 -120 -109 -165l-51 33c52 50 85 108 113 166zM935 -3l-33 -60l-45 17c-131 50 -261 138 -340 259c-64 -142 -198 -232 -363 -260l-59 -10l-35 57c175 26 377 120 420 309
c9 39 16 78 19 108l62 -18c-6 -36 -15 -87 -24 -121c93 -146 244 -236 398 -281zM324 326c-22 -59 -39 -90 -76 -138c-17 -21 -27 -32 -46 -50l-52 34c64 65 98 117 121 184z" />
    <glyph glyph-name="CNS1.14537" unicode="&#xe4c4;" 
 />
    <glyph glyph-name="CNS1.14538" 
d="M951 353h-58v-153h-183v-200c-5 -23 -26 -48 -50 -55c-26 -8 -58 -4 -86 -4c-8 19 -18 39 -24 59c31 5 82 -19 101 17v183h-170v54h169l1 99h-189l-1 55h189v105h-151v54h15c-12 11 -25 24 -36 37c79 62 126 150 153 242l48 -22c-7 -29 -17 -55 -28 -83l181 -1
c-3 -25 8 -56 -9 -75c-17 -31 -33 -66 -48 -98h118l1 -158h57v-56zM481 450h-409v54h172v87h-137v52h138v68h-175v56h174v73h61v-73h175v-55h-174v-69h136v-53h-136v-86h175v-54zM434 9c0 -26 -26 -52 -50 -58c-25 -6 -54 0 -79 -1l-20 56l74 -3c7 -1 14 5 18 12v88h-185
v-163h-59v468h301v-399zM767 685h-140c-26 -43 -59 -82 -100 -119h182c23 38 43 80 58 119zM836 409v103h-126v-103h126zM835 255v98h-125v-98h125zM375 285v66h-184v-66h184zM377 157v73h-186v-73h186z" />
    <glyph glyph-name="CNS1.14541" unicode="&#xe4c8;" 
 />
    <glyph glyph-name="CNS1.14542" unicode="&#x291eb;" 
 />
    <glyph glyph-name="CNS1.14543" unicode="&#xe4ca;" 
 />
    <glyph glyph-name="CNS1.14544" unicode="&#xe4cb;" 
 />
    <glyph glyph-name="CNS1.14545" unicode="&#xe4cc;" 
 />
    <glyph glyph-name="CNS1.14546" unicode="&#x230b7;" 
 />
    <glyph glyph-name="CNS1.14547" unicode="&#x230bc;" 
 />
    <glyph glyph-name="CNS1.14548" unicode="&#xe4cf;" 
 />
    <glyph glyph-name="CNS1.14549" unicode="&#xe4d0;" 
 />
    <glyph glyph-name="CNS1.14550" unicode="&#xe4d1;" 
d="M920 689c-13 -74 -39 -140 -82 -202c-18 7 -38 19 -58 28c47 59 77 126 90 201zM712 514c-22 -4 -43 -4 -64 -9c17 52 11 115 -2 166l60 7c16 -54 14 -107 6 -164zM570 503c-19 -10 -38 -18 -56 -29c-10 58 -33 112 -69 159c-2 0 -3 3 -4 5l48 29c16 -18 29 -39 41 -59
c20 -32 31 -69 40 -105zM901 -80h-66v69l-302 -1v-68h-64v489c63 10 118 38 171 71l47 -43c-47 -32 -98 -60 -154 -72v-129h122v-57h-122v-132h303l-1 133l-122 -1v59h123l-1 133h-134l1 59h198zM948 784c-153 -71 -323 -83 -499 -93l-18 19l1 -36h-58v-137l-83 -1l-1 -65
l123 1v-238h-124l1 -77l163 -1v-59h-162l-1 -177h-59v178l-173 -1v59h172l1 78h-123v238l123 -1v66l-85 -1l1 138h-80v59h80v88h61l-1 -88h104v88h63v-88h45c-2 7 -7 12 -10 19c14 2 25 -2 40 1h9c153 0 312 22 451 79c13 -16 24 -32 39 -48zM312 592v81h-105v-81h105z
M354 292v121h-64l1 -121h63zM231 291v122h-64v-122h64z" />
    <glyph glyph-name="CNS1.14552" unicode="&#xe4d3;" 
 />
    <glyph glyph-name="CNS1.14553" unicode="&#xe4d4;" 
 />
    <glyph glyph-name="CNS1.14554" unicode="&#xe4d5;" 
 />
    <glyph glyph-name="CNS1.14555" unicode="&#x2546c;" 
 />
    <glyph glyph-name="CNS1.14556" unicode="&#xe4d7;" 
d="M931 -17l-881 1v60l312 1v162l-273 1l1 59h272v145h-240l-1 59h240v136l-261 1v58h262v158h65v-779l127 -1l-1 778h65v-156h267v-59h-266v-136h243v-59h-244l1 -145l271 1v-61l-271 1v-163l312 -1v-61z" />
    <glyph glyph-name="CNS1.14558" unicode="&#x29433;" 
 />
    <glyph glyph-name="CNS1.14559" 
d="M895 16c-2 -22 -13 -44 -33 -56c-40 -24 -105 -14 -141 -13l-21 65c33 -1 68 -6 102 -5c10 2 21 6 26 17l4 15v610l-401 -1l-1 -714l-61 -1l-1 775h148c53 42 82 102 99 165c21 -10 39 -24 58 -37c-17 -45 -41 -93 -78 -128h299zM753 190l-245 -1v334h245v-333zM298 139
h-63v63l-89 -1v-63h-64l1 598l214 -1zM691 463h-120v-215h119zM235 261v416h-89l-1 -416h90z" />
    <glyph glyph-name="CNS1.14563" unicode="&#xe4de;" 
 />
    <glyph glyph-name="CNS1.14564" unicode="&#xe4df;" 
 />
    <glyph glyph-name="CNS1.14565" unicode="&#xe4e0;" 
 />
    <glyph glyph-name="CNS1.14566" unicode="&#xe4e1;" 
 />
    <glyph glyph-name="CNS1.14567" unicode="&#xe4e2;" 
 />
    <glyph glyph-name="CNS1.14568" unicode="&#xe4e3;" 
 />
    <glyph glyph-name="CNS1.14569" unicode="&#x27175;" 
 />
    <glyph glyph-name="CNS1.14570" unicode="&#xe4e5;" 
 />
    <glyph glyph-name="CNS1.14571" unicode="&#x20630;" 
 />
    <glyph glyph-name="CNS1.14572" unicode="&#x2415c;" 
 />
    <glyph glyph-name="CNS1.14573" unicode="&#x25706;" 
d="M691 717c-23 37 -58 68 -101 90l43 37c41 -22 88 -53 113 -98c-7 -4 -13 -13 -37 -29h223v-58h-215c-26 -60 -69 -129 -129 -185h17l225 21c-26 26 -38 38 -71 53l50 40c65 -43 106 -97 135 -168l-52 -36c-10 24 -20 43 -31 60c-135 -14 -259 -20 -345 -39l-36 56
c66 36 138 132 162 198h-145v58h194zM344 722v-69h105v-227h-364v227h103v69h-128v59h421v-59h-137zM289 722h-47v-69h47v69zM391 602h-47v-125h47v125zM289 602h-47v-125h47v125zM188 602h-45v-125h45v125zM940 11c-7 -28 -34 -61 -57 -64c-26 -3 -66 -7 -89 19
c-11 12 -18 29 -18 57v337h59v-324c0 -23 9 -37 26 -36c16 1 22 20 24 34c1 4 1 7 2 10c4 26 8 64 10 95l59 -21c-3 -42 -9 -78 -16 -107zM655 -50v410h59v-410h-59zM447 -65l-42 46c100 43 126 128 126 208v167h60c0 -46 1 -127 1 -173c0 -95 -40 -201 -145 -248zM102 335
v50h314v-50h-314zM426 42c-20 43 -70 94 -101 117l40 34c32 -19 88 -76 106 -116zM297 223v-198c0 -23 -22 -50 -41 -56c-18 -5 -33 -7 -50 -8c-16 0 -31 1 -50 1l-15 60c15 -2 41 -6 50 -7c23 -4 44 2 44 41v167h-185v59h417v-59h-170zM83 24l-38 38c61 37 95 87 116 126
l45 -33c-25 -51 -69 -102 -123 -131z" />
    <glyph glyph-name="CNS1.14575" unicode="&#xe4ea;" 
d="M901 769c-8 -50 -25 -97 -54 -137l-56 24c29 40 50 84 59 132zM911 537l-39 -48c-44 43 -96 80 -154 96c-29 -46 -99 -92 -147 -112l-48 48c65 17 157 85 170 154c1 14 6 21 8 34c6 42 8 87 4 130l60 -18c3 -59 -3 -130 -23 -186c63 -17 120 -52 169 -98zM649 765
c-6 -46 -26 -94 -52 -133l-55 23c30 39 49 83 56 130zM900 428c-1 -24 -11 -48 -18 -71c-9 -28 -24 -53 -39 -76l-56 24c32 43 52 91 63 143zM885 139l-48 -40c-34 46 -67 80 -113 105l-13 3c-20 -35 -83 -92 -123 -116l-46 45c65 37 134 108 147 180c10 57 13 121 13 185
l57 -8c-2 -82 0 -164 -25 -237c41 -19 83 -49 117 -80zM653 437c-7 -55 -26 -106 -58 -151l-52 23c31 39 48 94 59 147zM956 90c-5 -44 -12 -91 -44 -126c-25 -26 -65 -20 -99 -17c-89 8 -206 28 -273 85c-95 82 -110 207 -110 325v369l-251 -1l-1 -122c12 6 42 22 47 26
c28 -42 68 -114 88 -160c10 43 24 127 32 187c19 -3 38 -12 58 -18c-9 -80 -27 -174 -50 -254c36 -70 67 -149 86 -221c-18 -9 -33 -34 -52 -42c-12 48 -39 131 -62 175c-23 -57 -59 -144 -93 -197c-20 15 -34 23 -54 36c44 69 89 169 110 246c-28 63 -70 156 -109 212
l1 -208c0 -57 1 -102 -2 -160c-6 -109 -49 -213 -101 -302l-57 36c77 112 100 254 100 387v440l370 1v-380c0 -94 -1 -195 46 -275c61 -106 214 -127 330 -124c25 9 22 40 28 63c1 14 3 28 3 42z" />
    <glyph glyph-name="CNS1.14577" unicode="&#xe4ec;" 
 />
    <glyph glyph-name="CNS1.14578" unicode="&#xe4ed;" 
 />
    <glyph glyph-name="CNS1.14579" unicode="&#x26d27;" 
 />
    <glyph glyph-name="CNS1.14580" unicode="&#x216d3;" 
 />
    <glyph glyph-name="CNS1.14581" unicode="&#xe4f0;" 
 />
    <glyph glyph-name="CNS1.14582" unicode="&#xe4f1;" 
 />
    <glyph glyph-name="CNS1.14583" unicode="&#xe4f2;" 
 />
    <glyph glyph-name="CNS1.14584" unicode="&#xe4f3;" 
 />
    <glyph glyph-name="CNS1.14585" unicode="&#xe4f4;" 
 />
    <glyph glyph-name="CNS1.14586" unicode="&#xe4f5;" 
 />
    <glyph glyph-name="CNS1.14587" unicode="&#x24a29;" 
 />
    <glyph glyph-name="CNS1.14588" unicode="&#xe4f7;" 
 />
    <glyph glyph-name="CNS1.14589" unicode="&#x29857;" 
 />
    <glyph glyph-name="CNS1.14590" unicode="&#x29905;" 
 />
    <glyph glyph-name="CNS1.14591" unicode="&#xe4fa;" 
 />
    <glyph glyph-name="CNS1.14592" unicode="&#xe4fb;" 
 />
    <glyph glyph-name="CNS1.14593" unicode="&#xe4fc;" 
 />
    <glyph glyph-name="CNS1.14594" unicode="&#xe4fd;" 
d="M972 511c-11 -17 -31 -31 -45 -47c-47 27 -102 74 -141 112l-2 -56h-223v56c-36 -38 -97 -83 -139 -112l-46 46c106 68 215 176 271 288l16 42c20 -5 35 -20 53 -29l-12 -31c38 -82 108 -154 181 -209c24 -18 61 -45 87 -60zM834 387c-20 -46 -65 -95 -96 -136
c-13 8 -32 22 -48 34c25 30 65 67 79 101h-285v60h350v-59zM953 56c-19 -11 -35 -23 -55 -32c-21 69 -51 130 -107 182l47 33c55 -54 90 -116 115 -183zM749 126l-53 -31c-12 64 -43 118 -88 166l48 27c45 -46 71 -104 93 -162zM828 89c-14 -50 -20 -126 -87 -131
c-47 -4 -100 -9 -142 7c-54 20 -46 84 -46 125v113l62 1l1 -163c3 -9 3 -18 17 -22c29 -9 61 -4 93 -4c19 0 27 21 34 35c7 28 16 55 16 83c14 -3 32 -17 49 -23c13 -3 2 -12 3 -21zM510 197c-6 -44 -24 -82 -44 -122c-12 -24 -28 -49 -48 -68l-46 25c-2 -9 -4 -17 -7 -25
c-9 -33 -42 -67 -76 -71c-37 -4 -76 6 -110 15l-13 63c29 -8 61 -15 90 -22c15 -4 26 3 36 11c21 29 23 50 29 90c11 72 14 171 18 253h-255v49c14 91 25 184 36 288l60 -7c-10 -90 -23 -196 -35 -271h115c11 99 28 231 33 325h-249v58h310c-7 -124 -20 -263 -34 -383h83
c-3 -129 -9 -257 -27 -355c42 48 67 116 78 174c17 -8 39 -17 56 -27zM300 184l-238 -72l-25 61l263 68v-57zM780 579c-42 43 -77 92 -105 141c-32 -49 -70 -99 -108 -141h213z" />
    <glyph glyph-name="CNS1.14596" unicode="&#x25725;" 
d="M917 622c-7 -17 -28 -37 -56 -37h-111c-44 0 -64 21 -64 62v187h59v-79c36 7 105 32 137 59l36 -47c-42 -29 -119 -59 -174 -68v-35c0 -15 5 -25 31 -25h68c21 0 30 5 33 27l5 43l55 -22c-4 -23 -12 -46 -19 -65zM610 567h-61v43l-147 -34l-23 55l170 32v47h-161v54h161
v70h61v-267zM594 39c-50 -44 -132 -83 -216 -111l-39 47c83 21 161 60 211 104zM368 87v58h158v49h-116v58h116v51h-99v244h444v-244h-94v-51h116v-58h-116v-49h170v-58l-396 -1zM902 -66c-53 47 -131 72 -214 86l38 44c71 -11 145 -35 214 -84zM342 657l-1 -59
c-20 -66 -64 -143 -87 -177l1 -30l39 33c42 -39 63 -68 87 -117c-19 -12 -37 -21 -56 -33c-22 61 -24 63 -71 110l1 -445h-63v402c-21 -36 -62 -75 -103 -111l-46 43c113 89 186 200 235 325h-220v59h284zM198 668c-19 52 -52 100 -90 133l49 35c48 -46 76 -88 98 -137z
M809 493h-130v-48h130v48zM809 402h-130v-49h130v49zM620 493h-129v-48h129v48zM620 402h-129v-49h129v49zM716 303h-129v-51h129v51zM716 194h-129v-49h129v49z" />
    <glyph glyph-name="CNS1.14599" unicode="&#x29bd5;" 
 />
    <glyph glyph-name="CNS1.14600" unicode="&#xe503;" 
 />
    <glyph glyph-name="CNS1.14601" unicode="&#xe504;" 
 />
    <glyph glyph-name="CNS1.14602" unicode="&#x29b05;" 
 />
    <glyph glyph-name="CNS1.14603" unicode="&#xe506;" 
d="M855 815c-84 -73 -173 -128 -278 -152c-12 18 -24 36 -37 53c104 19 195 71 276 142zM892 706c-87 -79 -181 -139 -292 -162c-12 17 -22 37 -35 54c110 17 203 76 287 151zM938 600c-102 -100 -225 -158 -362 -181l-41 55c118 12 226 53 316 128l48 40zM564 529h-139
c37 -26 73 -60 98 -99c-12 -12 -29 -22 -43 -35c-14 13 -22 28 -36 41c-111 -10 -222 -20 -330 -39c-12 18 -22 37 -36 54c34 18 64 47 89 78h-128v50h79l1 226h410v-55h-350v-26h323v-41h-322c-3 -11 1 -20 -1 -30h324l-1 -42h-323l1 -32h384v-50zM897 157
c-3 -47 -3 -94 -21 -136c-30 -55 -106 -35 -156 -28c-5 22 -12 44 -19 63c36 -7 72 -20 111 -15c20 14 14 38 20 59h-190l-1 -159h-61v159l-186 1c-69 -117 -197 -155 -324 -165l-45 62c93 -1 177 19 250 63c15 11 32 23 43 40c-66 1 -135 -2 -201 -1c16 53 30 110 44 164
h196v46l-256 1v57h255l-1 41h62v-41h163v43l62 -1l-1 -42h229l-1 -161h-228l1 -49zM807 264v47h-165v-47h165zM580 264v47l-161 -1v-46h161zM384 487c-11 9 -24 14 -35 21l25 21h-129c-15 -20 -36 -45 -56 -58zM580 158l-1 48l-160 1c0 -17 -4 -33 -6 -50zM356 206h-149
c-4 -16 -6 -32 -8 -48l150 -1c3 16 6 33 7 49z" />
    <glyph glyph-name="CNS1.14605" unicode="&#xe508;" 
 />
    <glyph glyph-name="CNS1.14606" unicode="&#xe509;" 
d="M520 617l-47 -51c-35 77 -112 141 -186 178l36 48c53 -23 100 -64 143 -107c20 -21 38 -44 54 -68zM942 211l-229 -13l-1 -266h-62l-1 260l-586 -36c-5 19 -10 40 -16 60l602 39l1 584h62v-578l224 15zM434 366l-45 -49c-39 82 -121 143 -198 181l35 47
c80 -40 158 -99 208 -179z" />
    <glyph glyph-name="CNS1.14608" unicode="&#xe50b;" 
 />
    <glyph glyph-name="CNS1.14609" unicode="&#xe50c;" 
 />
    <glyph glyph-name="CNS1.14610" unicode="&#xe50e;" 
 />
    <glyph glyph-name="CNS1.14611" unicode="&#x2307d;" 
d="M746 663l-47 -49c-37 57 -92 106 -149 140l41 41c58 -31 113 -76 155 -132zM943 324l-101 -24v-233h-62v218l-221 -53l-16 57l237 56v488h62v-474l90 21zM741 439l-49 -44c-29 58 -85 109 -139 145l40 42c57 -32 115 -87 148 -143zM962 145c-11 -61 -32 -172 -110 -172
h-476c-41 0 -81 40 -81 78v224h-2c-23 -93 -42 -137 -70 -186c-30 -53 -78 -118 -147 -165l-49 45c112 71 165 171 209 303c6 18 12 43 14 67h-147v388h108c33 31 76 86 90 125l56 -37c-17 -32 -43 -63 -70 -88h220v-388h-196c-2 -16 -7 -32 -11 -48h56v-218
c0 -25 20 -40 38 -40h445c25 0 43 25 51 46c7 25 15 60 15 90zM634 85l-57 -22l-12 40c-50 -6 -119 -17 -165 -34l-39 46c48 61 82 132 89 210l57 -27c-10 -63 -38 -122 -82 -166l2 -2c43 12 81 15 111 27c-8 15 -19 30 -31 41l49 23c38 -38 59 -89 78 -136zM445 569v100
h-113c-2 -37 -3 -73 -3 -100h116zM273 669h-108v-100h106c0 25 2 68 2 100zM445 397v116h-119c-4 -42 -6 -79 -9 -116h128zM268 513h-103v-116h93c5 38 7 74 10 116z" />
    <glyph glyph-name="CNS1.14613" unicode="&#xe511;" 
 />
    <glyph glyph-name="CNS1.14614" unicode="&#x29d3e;" 
 />
    <glyph glyph-name="CNS1.14615" unicode="&#xe513;" 
 />
    <glyph glyph-name="CNS1.14616" unicode="&#x21863;" 
 />
    <glyph glyph-name="CNS1.14617" unicode="&#xe515;" 
d="M915 573h-206v-222h173v-427h-64v72h-224v-72h-64v427h120v481h59v-200h206v-59zM473 161h-350v349c-10 -19 -31 -45 -48 -60l-49 47c105 98 165 220 196 351l54 -27c-8 -34 -18 -65 -29 -98h168v-55c-17 -34 -37 -70 -57 -102h115v-405zM486 59
c-113 -27 -255 -59 -384 -88l-29 57c132 27 283 65 413 92v-61zM818 55v237h-224v-237h224zM346 664h-124c-15 -36 -38 -74 -56 -98h126c21 30 42 67 54 98zM412 395v112h-85v-112h85zM269 395v112h-85v-112h85zM412 220v117h-85v-117h85zM269 220v117h-85v-117h85z" />
    <glyph glyph-name="CNS1.14621" unicode="&#x29e68;" 
 />
    <glyph glyph-name="CNS1.14622" unicode="&#xe51b;" 
 />
    <glyph glyph-name="CNS1.14623" unicode="&#x29fb7;" 
 />
    <glyph glyph-name="CNS1.14624" unicode="&#x2a192;" 
 />
    <glyph glyph-name="CNS1.14625" unicode="&#x2a1ab;" 
 />
    <glyph glyph-name="CNS1.14626" unicode="&#x2a0e1;" 
 />
    <glyph glyph-name="CNS1.14627" unicode="&#x2a123;" 
 />
    <glyph glyph-name="CNS1.14628" unicode="&#x2a1df;" 
 />
    <glyph glyph-name="CNS1.14629" unicode="&#xe522;" 
 />
    <glyph glyph-name="CNS1.14630" unicode="&#xe523;" 
 />
    <glyph glyph-name="CNS1.14631" unicode="&#x2a134;" 
 />
    <glyph glyph-name="CNS1.14632" unicode="&#xe525;" 
 />
    <glyph glyph-name="CNS1.14633" unicode="&#xe527;" 
d="M692 541l-47 -30c-21 43 -61 91 -93 115l41 27c38 -31 72 -64 99 -112zM902 371c0 -124 -11 -227 -30 -331c-13 -67 -39 -99 -92 -99c-41 0 -72 6 -109 13l-14 61l100 -19c38 -7 50 41 59 87c15 73 24 151 24 231h-388v427h110c18 32 36 67 45 104l53 -17
c-9 -30 -25 -61 -38 -87h221c1 -84 -8 -173 -20 -253c-5 -29 -18 -46 -41 -58c-38 -20 -89 -8 -130 -4l-15 58c35 -5 71 -20 107 -13c9 5 15 13 18 26c14 59 19 122 19 186h-266l-1 -311zM808 156h-372v57h372v-57zM455 68l-62 -32c-22 81 -57 156 -101 228
c-38 -81 -117 -222 -208 -298l-50 41c100 97 152 182 217 320c-54 79 -112 157 -174 227l45 35c54 -54 113 -129 157 -189c27 93 42 169 52 264h-267v60l333 -1c0 -83 -3 -101 -25 -209c-12 -61 -29 -121 -51 -179c25 -37 109 -191 134 -267z" />
    <glyph glyph-name="CNS1.14635" unicode="&#x2a220;" 
 />
    <glyph glyph-name="CNS1.14636" unicode="&#x2193b;" 
 />
    <glyph glyph-name="CNS1.14637" unicode="&#x2a233;" 
 />
    <glyph glyph-name="CNS1.14638" unicode="&#xe52d;" 
 />
    <glyph glyph-name="CNS1.14639" unicode="&#x2a0b9;" 
 />
    <glyph glyph-name="CNS1.14640" unicode="&#x2a2b4;" 
 />
    <glyph glyph-name="CNS1.14641" unicode="&#xe530;" 
 />
    <glyph glyph-name="CNS1.14642" unicode="&#xe531;" 
 />
    <glyph glyph-name="CNS1.14643" unicode="&#xe532;" 
 />
    <glyph glyph-name="CNS1.14644" unicode="&#xe533;" 
 />
    <glyph glyph-name="CNS1.14645" unicode="&#xe534;" 
 />
    <glyph glyph-name="CNS1.14646" unicode="&#xe535;" 
d="M920 789l-1 -59h-378c-8 -40 -18 -84 -35 -121h359v-682h-63l1 69h-623l-1 -78l-62 1v690h319c22 36 32 78 40 121h-421v59h865zM803 56v494h-152v-495zM589 436v113h-190v-113h190zM589 255v121l-190 1v-122h190zM589 55v141h-190l1 -141h189zM337 55v494l-157 1
l-1 -495h158z" />
    <glyph glyph-name="CNS1.14650" unicode="&#xe539;" 
 />
    <glyph glyph-name="CNS1.14651" unicode="&#xe53a;" 
 />
    <glyph glyph-name="CNS1.14652" unicode="&#xe53b;" 
 />
    <glyph glyph-name="CNS1.14653" unicode="&#xe53c;" 
d="M947 135c-12 -42 -26 -83 -45 -123c-16 -25 -42 -42 -70 -45l-209 -1c-37 0 -82 36 -76 78v409h62l1 -180c61 7 121 24 172 51c26 14 52 30 75 50l39 -45c-82 -69 -183 -99 -287 -118v-149c0 -19 19 -38 38 -35h168c53 10 56 71 69 113l4 25zM884 512h-441v-248
c0 -123 -38 -250 -108 -349l-52 46c19 25 35 56 48 86c31 76 46 163 46 253v477h506zM322 808c-19 -79 -42 -158 -73 -232v-656h-65v536c-24 -35 -51 -75 -80 -106l-61 32c124 124 181 284 222 446zM819 570v147l-376 1v-147z" />
    <glyph glyph-name="CNS1.14656" unicode="&#xe53f;" 
 />
    <glyph glyph-name="CNS1.14657" unicode="&#xe540;" 
 />
    <glyph glyph-name="CNS1.14658" unicode="&#xe541;" 
 />
    <glyph glyph-name="CNS1.14659" unicode="&#xe542;" 
 />
    <glyph glyph-name="CNS1.14660" unicode="&#x26da2;" 
 />
    <glyph glyph-name="CNS1.14661" unicode="&#xeda4;" 
d="M860 776c-58 -35 -120 -55 -189 -63l-27 50c65 4 126 21 181 53zM953 642c-7 -41 -34 -122 -99 -116l-233 -1c-41 0 -82 21 -82 63v246h58v-225c-2 -15 0 -30 33 -27h214c43 0 51 57 61 88zM862 632l-30 -45c-15 5 -28 17 -43 24c-51 25 -104 43 -167 38l31 49
c78 -2 146 -27 209 -66zM316 748l-31 -42c-14 7 -28 17 -42 24c-39 21 -83 32 -129 36l28 44c63 -8 122 -27 174 -62zM461 834c-5 -80 21 -188 -48 -249c-32 -29 -71 -44 -110 -57c-57 -20 -120 -26 -182 -34l-35 57c91 6 182 16 260 57c44 23 58 68 58 116v110h57zM348 656
l-242 -59l-32 50c29 7 61 12 92 18c62 12 121 32 182 44v-53zM963 -26l-36 -51c-73 21 -140 57 -200 105c-61 -41 -120 -77 -190 -96l-33 -9l-40 53c81 14 157 43 223 93c-38 49 -67 98 -88 154l-41 1l1 55h143l1 85l-163 -1l-1 49h-196v-53h177l-1 -48h-408v48h173v54h-212
v52h212v48l59 1v-49h217l-1 -47h144v83h59l1 -83h174v-55h-175v-85l126 1v-51c-24 -59 -67 -117 -118 -163c56 -47 123 -74 193 -91zM555 12l-480 -56l-30 59c66 0 133 7 198 15c-14 26 -37 53 -63 72l43 18v2h-93v149h369v-149h-96v-2l31 -16c-7 -22 -23 -37 -37 -56
l158 16v-52zM826 223h-170c18 -42 42 -82 73 -117h2c39 36 73 74 95 117zM440 170v51h-251v-50zM378 122h-141c26 -26 41 -55 57 -86l37 4c22 24 37 52 47 82z" />
    <glyph glyph-name="CNS1.14663" unicode="&#xe546;" 
 />
    <glyph glyph-name="CNS1.14664" unicode="&#xe547;" 
d="M918 739c-4 -93 -7 -188 -25 -277c-8 -20 -28 -36 -50 -41c-17 -2 -35 -4 -52 -1l-20 55c21 -4 63 -13 67 16c12 37 13 83 16 125l5 67h-45c-4 -89 -31 -167 -94 -231l-48 35c60 52 84 121 85 196h-34c-17 -41 -34 -79 -61 -116l-58 25c59 66 79 145 94 231l3 17l53 -18
c-3 -30 -9 -56 -17 -83h181zM632 517l-49 -28c-13 29 -32 55 -59 79v-161h-56v115c-24 -43 -69 -82 -111 -112l-39 43c22 14 28 18 44 32c45 40 87 85 102 141h-116v57h120l-1 54c-31 -6 -67 -10 -98 -11l-40 59c91 -5 178 11 260 47l34 -45c-31 -16 -67 -25 -99 -38v-66h96
v-56h-96v-37l30 17c35 -22 57 -57 78 -90zM980 282l-44 -55c-114 33 -218 99 -306 186c-82 -82 -185 -144 -289 -185l-35 41l-1 -114h-56v59l-90 -1v-58h-54v580l201 -1v-448c119 37 234 109 315 206l57 -22l-12 -16c92 -87 198 -143 314 -172zM845 238
c-26 -35 -62 -60 -98 -81l-52 40c22 9 45 21 63 37c15 9 29 26 41 37zM940 27l-40 -49c-65 58 -137 98 -217 117l36 47c82 -17 154 -67 221 -115zM669 358l-1 -354c0 -39 -20 -62 -62 -63l-75 -1l-17 53c33 -3 49 -3 67 -2c19 -1 26 8 26 25l1 341zM573 184l-51 -40
c-19 44 -62 74 -102 95l46 35c40 -21 80 -53 107 -90zM580 84l-226 -88l-42 51c93 27 178 62 268 98v-61zM249 275v398l-90 1l1 -399h89z" />
    <glyph glyph-name="CNS1.14666" unicode="&#xe549;" 
 />
    <glyph glyph-name="CNS1.14667" unicode="&#xe54a;" 
 />
    <glyph glyph-name="CNS1.14668" unicode="&#x2908b;" 
 />
    <glyph glyph-name="CNS1.14669" unicode="&#xe54c;" 
 />
    <glyph glyph-name="CNS1.14670" unicode="&#xe54d;" 
 />
    <glyph glyph-name="CNS1.14671" 
 />
    <glyph glyph-name="CNS1.14672" unicode="&#xe54f;" 
 />
    <glyph glyph-name="CNS1.14673" unicode="&#xe550;" 
 />
    <glyph glyph-name="CNS1.14674" unicode="&#xe551;" 
 />
    <glyph glyph-name="CNS1.14675" unicode="&#xe552;" 
 />
    <glyph glyph-name="CNS1.14676" unicode="&#xe553;" 
 />
    <glyph glyph-name="CNS1.14677" unicode="&#x24975;" 
 />
    <glyph glyph-name="CNS1.14678" unicode="&#x249bb;" 
 />
    <glyph glyph-name="CNS1.14679" unicode="&#xe556;" 
 />
    <glyph glyph-name="CNS1.14680" unicode="&#x249f8;" 
 />
    <glyph glyph-name="CNS1.14681" unicode="&#x24348;" 
 />
    <glyph glyph-name="CNS1.14682" unicode="&#x24a51;" 
 />
    <glyph glyph-name="CNS1.14683" unicode="&#xe55a;" 
 />
    <glyph glyph-name="CNS1.14684" unicode="&#x28bda;" 
 />
    <glyph glyph-name="CNS1.14685" unicode="&#x218fa;" 
 />
    <glyph glyph-name="CNS1.14686" unicode="&#xe55d;" 
 />
    <glyph glyph-name="CNS1.14687" unicode="&#x2897e;" 
 />
    <glyph glyph-name="CNS1.14688" unicode="&#x28e36;" 
d="M776 393l-55 32c55 64 98 158 111 249l60 -27c-24 -91 -56 -181 -116 -254zM691 302v-372h-62v372h-234v62h234v354h-207v59h483v-59h-214v-354h256v-62h-256zM514 394c-8 73 -51 182 -95 236l56 26c47 -60 79 -141 99 -241zM345 188c-19 -23 -43 -34 -73 -34
c-13 0 -34 3 -63 11l-12 69c20 -7 40 -13 61 -18c37 0 53 24 53 63c0 33 -10 68 -31 106c-19 36 -46 69 -80 98c49 97 83 174 103 241h-145v-794h-63v853h275v-56c-30 -88 -63 -166 -97 -237c69 -68 101 -136 101 -206c0 -43 -10 -74 -29 -96z" />
    <glyph glyph-name="CNS1.14690" unicode="&#xe561;" 
 />
    <glyph glyph-name="CNS1.14691" unicode="&#x28a44;" 
 />
    <glyph glyph-name="CNS1.14692" unicode="&#xe563;" 
 />
    <glyph glyph-name="CNS1.14693" unicode="&#xe564;" 
 />
    <glyph glyph-name="CNS1.14694" unicode="&#xe565;" 
 />
    <glyph glyph-name="CNS1.14695" unicode="&#x2896c;" 
 />
    <glyph glyph-name="CNS1.14696" unicode="&#x244b9;" 
 />
    <glyph glyph-name="CNS1.14697" unicode="&#xe568;" 
d="M938 477c-16 -46 -11 -116 -74 -130c-41 -5 -85 -3 -127 -3c-28 5 -55 29 -63 56c-9 20 -3 46 -5 69h-4c-34 -24 -69 -46 -108 -59l-32 50c52 24 100 50 145 89v285h57v-227c48 46 84 103 117 156c17 -9 31 -23 46 -34c-42 -75 -97 -146 -164 -209v-99
c0 -12 13 -17 22 -21c38 3 83 -9 114 10c15 29 17 62 25 93c18 -7 34 -17 51 -26zM574 802c-14 -62 -36 -123 -64 -179v-299h-58v214c-19 -19 -41 -41 -64 -57c-14 13 -30 27 -44 41c77 59 133 143 157 232l21 77zM924 196h-255v-264h-60v264h-232v59l232 -1v90h60v-89h255
v-59zM430 104c-17 -11 -33 -25 -51 -35c-32 54 -79 111 -135 144c-19 -111 -66 -190 -139 -273c-17 13 -29 31 -46 45c85 90 129 196 132 320l2 86v443h63v-309c39 36 62 82 79 130l52 -28c-22 -71 -74 -135 -131 -187l-4 -162c71 -40 134 -104 178 -174zM165 602
c10 -79 -12 -156 -44 -223c-21 7 -39 20 -59 30c37 60 49 133 47 206z" />
    <glyph glyph-name="CNS1.14699" unicode="&#xe56a;" 
 />
    <glyph glyph-name="CNS1.14700" unicode="&#xe56b;" 
d="M915 570h-62v110h-414v-111h-63v170h258c-34 34 -75 59 -120 69l51 45c50 -11 94 -42 130 -82l-35 -32h255v-169zM907 481l-49 -36c-41 56 -104 120 -169 151l44 40c57 -33 131 -99 174 -155zM961 266l-37 -53c-111 48 -214 131 -283 234c-80 -108 -146 -170 -269 -233
l-45 48c134 64 250 148 304 308l54 -22l-15 -40c69 -112 176 -196 291 -242zM583 608c-23 -64 -109 -144 -164 -173l-41 45c66 33 127 86 159 157zM828 -68h-63v59h-251v-59h-60v326h374v-326zM371 332c-18 -11 -36 -22 -54 -31c-20 47 -48 92 -77 126v-491h-63v413
c-26 -61 -56 -120 -111 -171l-45 41c89 91 128 205 154 322h-134v61h136v122c-31 -6 -66 -11 -99 -14l-33 60c96 5 185 26 263 72l41 -47c-34 -21 -70 -39 -108 -51v-142h114v-61h-114v-70c9 3 16 12 26 15c38 -40 83 -102 104 -154zM765 49v150h-251v-150h251z" />
    <glyph glyph-name="CNS1.14702" unicode="&#x24473;" 
 />
    <glyph glyph-name="CNS1.14703" unicode="&#x243f8;" 
 />
    <glyph glyph-name="CNS1.14704" unicode="&#xe56f;" 
 />
    <glyph glyph-name="CNS1.14705" unicode="&#x217ef;" 
 />
    <glyph glyph-name="CNS1.14706" unicode="&#xe571;" 
 />
    <glyph glyph-name="CNS1.14707" unicode="&#x218be;" 
 />
    <glyph glyph-name="CNS1.14708" unicode="&#x23599;" 
d="M414 345v58h221v95h-169v58h169v88h-197v58h129c-24 37 -42 58 -87 89l50 38c47 -32 79 -74 103 -127h58c27 27 58 70 91 132l54 -35c-16 -25 -42 -70 -68 -97h128v-58h-199v-88h166v-58h-166v-95h229v-58h-512zM921 -63c-108 31 -223 137 -253 249h-8
c-33 -133 -152 -235 -286 -264l-34 54c142 27 226 116 255 210h-173v58h188c9 43 15 76 16 88l58 -18c-3 -21 -4 -36 -13 -70h223v-58h-165c38 -102 125 -167 227 -196zM346 295c-17 52 -56 119 -88 152v-514h-63v479c-14 -65 -47 -152 -100 -220l-49 36
c90 136 114 269 124 344h-107v59h132v195h63v-195h114v-59h-114v-108l36 27c39 -32 86 -105 105 -164z" />
    <glyph glyph-name="CNS1.14710" unicode="&#x21885;" 
 />
    <glyph glyph-name="CNS1.14711" unicode="&#x2542f;" 
d="M443 683v59h446v-59h-446zM623 340c15 -8 43 -25 60 -35c-19 -50 -92 -191 -171 -273l289 46c-19 24 -44 48 -82 83l48 34c73 -62 135 -138 185 -230c-22 -16 -41 -29 -56 -38c-22 44 -39 76 -53 95c-152 -20 -275 -38 -389 -70l-38 61c89 85 161 197 207 327zM410 352
v59h525v-59c-177 1 -349 0 -525 0zM263 640c-7 -76 -17 -139 -45 -208h163v-455h-61v71h-114v-71h-61v322c-25 -28 -40 -45 -55 -60l-47 47c114 112 146 225 161 354h-133v61h334v-61h-142zM320 373h-114v-266h114v266z" />
    <glyph glyph-name="CNS1.14713" unicode="&#xe578;" 
 />
    <glyph glyph-name="CNS1.14714" unicode="&#x216fb;" 
 />
    <glyph glyph-name="CNS1.14715" unicode="&#x21839;" 
 />
    <glyph glyph-name="CNS1.14716" unicode="&#xe57b;" 
d="M837 545v93h-407v-90h-62v149h245c-26 38 -74 80 -131 102l47 41c63 -30 107 -66 144 -112c-14 -12 -12 -16 -34 -31h260v-152h-62zM417 451v58h422v-58h-422zM922 8c-11 -31 -37 -49 -66 -49h-108c-35 0 -75 21 -75 61v263h-95c-2 -85 -17 -142 -43 -189
c-43 -80 -117 -129 -223 -166l-40 51c79 23 154 58 198 126c28 44 41 101 40 178h-165v59h578v-59h-189v-238c0 -8 3 -25 22 -25h78c30 0 40 26 47 62c4 21 4 32 5 56l60 -29c-6 -38 -12 -66 -24 -101zM324 48c-21 32 -49 57 -76 84c-27 -56 -78 -138 -136 -192l-45 39
c52 46 103 128 132 192c-23 24 -100 60 -132 80c33 83 59 195 71 309h-88v60h91c7 63 11 134 12 218l61 -10c0 -58 -7 -131 -13 -208h134v-41c0 -138 -19 -278 -68 -386c34 -32 73 -62 101 -99zM198 560c-10 -78 -33 -217 -62 -283c29 -12 67 -37 85 -49
c37 117 49 186 53 332h-76z" />
    <glyph glyph-name="CNS1.14718" unicode="&#x218d1;" 
 />
    <glyph glyph-name="CNS1.14719" unicode="&#x25f4b;" 
 />
    <glyph glyph-name="CNS1.14720" unicode="&#xe57f;" 
 />
    <glyph glyph-name="CNS1.14721" unicode="&#x216c0;" 
 />
    <glyph glyph-name="CNS1.14722" unicode="&#xe581;" 
d="M885 667l-451 1v58h451v-59zM923 394h-547v59h547v-59zM949 2c-17 -13 -36 -27 -55 -38c-16 32 -32 65 -54 96c-157 -21 -280 -45 -405 -80c-14 18 -25 41 -37 61c105 102 167 222 217 347c21 -7 38 -22 60 -28c-46 -106 -100 -208 -181 -298l2 -2c87 14 214 40 301 56
c-23 30 -55 60 -82 85l48 34c74 -63 132 -132 186 -233zM417 192l-333 -126l-35 61c52 12 104 27 153 46v339h-137v59h136v254h61v-255h135v-58h-136v-313c36 10 102 37 156 56v-63z" />
    <glyph glyph-name="CNS1.14724" unicode="&#x213fe;" 
 />
    <glyph glyph-name="CNS1.14725" unicode="&#x212a8;" 
d="M898 -45c-5 11 -10 25 -17 41c-8 19 -19 41 -32 58c-120 -13 -276 -41 -409 -61l-41 64c63 41 113 89 154 136c41 49 74 97 110 151c-91 -8 -131 -4 -214 -17l-35 64c86 49 161 163 191 225h-269v60h292c-19 39 -74 95 -133 128l45 39c51 -23 114 -82 154 -134l-45 -33
h295v-60h-268c-21 -55 -107 -175 -157 -221c57 4 123 6 180 7c24 34 47 73 68 115l56 -34c-42 -84 -183 -312 -316 -420c75 13 219 30 316 43c-28 28 -48 59 -78 85l50 36c71 -66 122 -144 164 -234zM77 50l-32 58c47 15 102 33 146 50v333h-134v59h134v251h61v-251h128v-59
h-128v-315l148 56v-62z" />
    <glyph glyph-name="CNS1.14727" unicode="&#x214b6;" 
 />
    <glyph glyph-name="CNS1.14728" unicode="&#xe589;" 
 />
    <glyph glyph-name="CNS1.14729" unicode="&#x236a6;" 
 />
    <glyph glyph-name="CNS1.14730" 
 />
    <glyph glyph-name="CNS1.14731" unicode="&#xe58a;" 
 />
    <glyph glyph-name="CNS1.14732" unicode="&#x24994;" 
d="M495 660c-19 41 -55 78 -109 113l42 39c45 -25 86 -63 117 -115zM891 636v-60h-258c-4 -14 -27 -88 -37 -109h333v-60h-158c49 -64 107 -114 184 -163l-39 -51c-54 35 -94 65 -131 102c-16 -88 -25 -134 -31 -153c-11 -33 -30 -48 -65 -48c-17 0 -57 4 -86 10l-20 76
c24 -8 62 -20 80 -23c33 -6 32 9 39 31c1 9 10 52 12 65h-188v-209c0 -21 14 -32 36 -32h204c14 0 24 8 34 20c9 12 18 49 27 106l59 -33c-17 -57 -29 -94 -37 -111c-14 -30 -45 -42 -81 -42h-227c-37 0 -77 22 -77 59v272c-28 -27 -60 -61 -92 -83l-45 43
c54 35 113 96 162 164h-133v60h167c20 33 40 92 44 108l-180 1v60h194c10 37 29 143 31 199l62 -18c-2 -44 -15 -132 -27 -181h244zM743 649l-46 40c47 34 84 74 109 122l47 -41c-32 -55 -67 -94 -110 -121zM74 64l-32 57c28 7 82 20 133 34v243h-101v59h101v199h-112v59
h291v-59h-117v-199h91v-59h-91v-228c34 7 83 27 117 37v-65c-53 -17 -147 -41 -280 -78zM697 407h-135c-11 -20 -29 -46 -66 -94h271c-31 36 -49 62 -70 94z" />
    <glyph glyph-name="CNS1.14734" unicode="&#x23e31;" 
 />
    <glyph glyph-name="CNS1.14735" unicode="&#x2555c;" 
 />
    <glyph glyph-name="CNS1.14736" unicode="&#x23efb;" 
 />
    <glyph glyph-name="CNS1.14737" unicode="&#x27052;" 
 />
    <glyph glyph-name="CNS1.14738" unicode="&#xe591;" 
 />
    <glyph glyph-name="CNS1.14739" unicode="&#x236ee;" 
 />
    <glyph glyph-name="CNS1.14740" unicode="&#x2999d;" 
 />
    <glyph glyph-name="CNS1.14741" unicode="&#x26f26;" 
 />
    <glyph glyph-name="CNS1.14742" unicode="&#xe595;" 
 />
    <glyph glyph-name="CNS1.14743" unicode="&#xe596;" 
 />
    <glyph glyph-name="CNS1.14744" unicode="&#xe597;" 
d="M283 503c26 -32 51 -93 59 -127h130v40c-30 -6 -67 -6 -102 -7l-22 51c71 -3 178 6 264 37l34 -49c-42 -19 -111 -27 -111 -27v-45h155c-1 29 -5 62 -5 101l55 10l9 -111h84c-17 33 -47 68 -69 81l40 32c37 -22 67 -63 81 -87c-15 -9 -24 -16 -38 -26h96v-53h-192
c4 -38 20 -138 34 -176c26 37 55 102 65 138l51 -38c-17 -49 -57 -114 -94 -162c11 -32 38 -68 50 -76c15 -11 24 34 26 43l10 55l52 -29c-6 -24 -10 -50 -17 -74c-7 -26 -17 -49 -36 -67c-11 -4 -23 -7 -34 -3c-40 13 -72 69 -94 112c-21 -17 -56 -44 -87 -64l-36 42
c34 21 73 50 100 78c-19 46 -44 178 -47 221l-159 1v-117h117c-33 30 -64 54 -105 70l38 38c41 -13 78 -45 111 -74l-34 -34l31 1v-48h-239l-20 -53h166c-2 -30 -12 -87 -23 -128c-7 -29 -41 -45 -70 -43c-25 2 -77 6 -108 12l-10 56c32 -10 65 -13 98 -15c27 1 37 13 41 28
s5 28 9 42h-175l30 101h-88v47l168 1v105c-36 -42 -116 -91 -190 -107l-29 46c46 10 111 41 141 71h-82v35c-11 -4 -17 -8 -22 -10c-6 32 -18 76 -52 131zM233 -65l-63 1v413c-15 -41 -55 -108 -80 -137l-48 35c63 80 119 221 126 332h-113v60h115v194h63v-194h94v-60h-94
v-644zM333 505v51h259v44h-183v54h183v44h-233v53h145c-18 22 -39 35 -71 52l45 38c43 -24 71 -52 100 -90h93c28 28 56 52 74 88l63 -27c-19 -24 -41 -39 -62 -61h144v-53h-236v-44h187v-54h-187v-44h265v-51h-586z" />
    <glyph glyph-name="CNS1.14748" unicode="&#xe59b;" 
 />
    <glyph glyph-name="CNS1.14749" unicode="&#xe59c;" 
 />
    <glyph glyph-name="CNS1.14750" unicode="&#x2373f;" 
 />
    <glyph glyph-name="CNS1.14751" unicode="&#x240e1;" 
 />
    <glyph glyph-name="CNS1.14752" unicode="&#x2408b;" 
 />
    <glyph glyph-name="CNS1.14753" unicode="&#x2410f;" 
 />
    <glyph glyph-name="CNS1.14754" unicode="&#x26c21;" 
 />
    <glyph glyph-name="CNS1.14755" unicode="&#xe5a2;" 
d="M960 124c-13 -54 -23 -165 -100 -165h-217c-56 0 -87 40 -87 76v399l-60 -24l-18 56l79 30l-1 193h61v-171l73 29l-1 286l62 -1v-260l144 54v-202l-8 -183c-4 -23 -17 -45 -40 -53c-20 -8 -43 0 -63 2l-12 60c18 -5 34 -14 50 -3l7 14l7 187v90l-85 -31v-379h-62v357
l-71 -30l-1 -401c0 -25 12 -34 39 -34h190c42 0 42 49 51 75l5 51zM528 142l-219 -76l-31 56c36 11 71 18 107 31v348h-75l1 58l74 -1v228l61 1v-228l73 -1v-57h-73v-324l82 29v-64zM288 144h-59v46h-84v-72h-58l-1 587h202v-561zM229 248v398h-84v-398h84z" />
    <glyph glyph-name="CNS1.14757" unicode="&#x266b1;" 
d="M881 735l54 -39c-46 -89 -94 -165 -155 -226h159v-59h-207c-40 -41 -86 -78 -131 -113v-100c89 18 192 75 260 132l39 -45c-93 -78 -186 -121 -300 -150v-72c0 -26 17 -43 48 -43h164c39 0 35 17 46 41c6 19 21 72 28 101l54 -30c-11 -35 -27 -92 -34 -112
c-14 -37 -42 -57 -71 -57h-210c-57 0 -89 36 -89 89v205c-37 -28 -92 -62 -143 -87c-2 2 -5 7 -20 31v-205c0 -27 -23 -54 -48 -54h-77l-25 61l64 -4c26 -2 26 18 26 30v260h-136c0 -113 -8 -249 -91 -354l-51 34c81 99 83 246 83 364v446h255v-551c96 48 203 120 268 183
h-240v59h199v162h-150v59h150v148h66v-148h150v-60l-150 1v-162h31c57 51 148 174 184 265zM313 719h-135v-149h135v149zM313 510h-135v-161h135v161z" />
    <glyph glyph-name="CNS1.14760" unicode="&#x20ba8;" 
d="M871 38c-18 -56 -56 -68 -115 -65c-43 7 -84 15 -127 29l-10 68c23 -8 43 -16 63 -22c24 -8 46 -13 70 -16c21 -2 53 2 65 57c23 110 38 255 42 358h-151v59c39 60 73 130 98 213h-207c0 -128 -1 -259 -31 -395c-28 -130 -88 -280 -189 -391l-55 39
c101 104 152 232 179 364c26 126 28 257 28 383h-137v59h485l-1 -58c-23 -75 -56 -143 -92 -214h140c-3 -121 -23 -371 -55 -468zM287 145v70h-127v-70h-62v580h252v-580h-63zM287 666h-127v-392h127v392z" />
    <glyph glyph-name="CNS1.14762" 
 />
    <glyph glyph-name="CNS1.14763" unicode="&#x28b13;" 
 />
    <glyph glyph-name="CNS1.14764" unicode="&#xe5ab;" 
 />
    <glyph glyph-name="CNS1.14765" unicode="&#xe5ac;" 
 />
    <glyph glyph-name="CNS1.14766" unicode="&#xe5ad;" 
 />
    <glyph glyph-name="CNS1.14767" unicode="&#xe5ae;" 
 />
    <glyph glyph-name="CNS1.14768" unicode="&#x24436;" 
 />
    <glyph glyph-name="CNS1.14769" unicode="&#xe5b0;" 
 />
    <glyph glyph-name="CNS1.14770" unicode="&#x20465;" 
 />
    <glyph glyph-name="CNS1.14771" 
 />
    <glyph glyph-name="CNS1.14772" unicode="&#xe5b3;" 
 />
    <glyph glyph-name="CNS1.14773" unicode="&#xe5b4;" 
 />
    <glyph glyph-name="CNS1.14774" unicode="&#x25651;" 
d="M228 657c-26 57 -73 107 -109 131l44 38c50 -30 94 -82 117 -135zM341 211c-16 24 -55 69 -76 82v-354h-61v388c-28 -40 -94 -97 -123 -120l-39 45c153 114 211 253 237 325h-210v59h280v-58c-23 -59 -52 -112 -84 -171v-38c38 -26 93 -79 122 -117zM751 509
c-19 12 -34 24 -53 39c63 54 109 144 129 219l57 -31c-22 -70 -67 -169 -133 -227zM487 521c-28 81 -68 161 -118 197l54 35c62 -52 105 -140 121 -198zM909 18c-5 -22 -28 -52 -59 -52h-112c-31 0 -78 9 -78 87v353h-88c1 -132 -20 -283 -90 -359
c-40 -43 -79 -79 -130 -112c-14 15 -30 29 -47 47c17 11 36 23 56 38c24 18 49 40 72 71c45 60 79 153 75 315h-176v60h254v367h63v-367h246v-60h-174v-338c0 -37 17 -44 38 -44h55c15 0 35 -5 43 42c4 28 11 85 14 110c23 -9 41 -15 61 -21c-4 -37 -14 -102 -23 -137z" />
    <glyph glyph-name="CNS1.14776" unicode="&#x201ab;" 
d="M796 553v-514c0 -31 -5 -53 -25 -72c-13 -13 -36 -18 -67 -19c-29 0 -63 2 -99 2l-19 64l104 -8c36 -3 44 16 44 38v509h-16c-32 -172 -139 -417 -340 -563l-49 42c198 140 289 371 327 520h-304l-1 58h383v202h62v-202h145l1 -57h-146zM244 564v-629h-64v514
c-17 -38 -50 -89 -88 -132l-51 42c100 107 174 266 224 475l60 -32c-19 -77 -49 -150 -81 -238z" />
    <glyph glyph-name="CNS1.14778" unicode="&#xe5b9;" 
 />
    <glyph glyph-name="CNS1.14779" unicode="&#x2030a;" 
 />
    <glyph glyph-name="CNS1.14780" unicode="&#x20414;" 
 />
    <glyph glyph-name="CNS1.14781" unicode="&#xe5bc;" 
d="M683 389l-1 -364c0 -39 -22 -60 -45 -64c-37 -6 -116 -3 -154 2c-7 22 -15 40 -23 66c41 -5 87 -12 125 -13c27 0 33 24 33 43l1 330l-294 -1v60h294v263h-235v60h504v-61h-205v-262h265v-59h-265zM257 577v-643h-65v528c-20 -33 -70 -99 -91 -123l-49 46
c98 91 174 239 228 441l58 -22c-23 -87 -49 -163 -81 -227z" />
    <glyph glyph-name="CNS1.14783" unicode="&#x202c0;" 
 />
    <glyph glyph-name="CNS1.14784" unicode="&#x28eb3;" 
 />
    <glyph glyph-name="CNS1.14785" unicode="&#x20275;" 
 />
    <glyph glyph-name="CNS1.14786" unicode="&#xe5c1;" 
 />
    <glyph glyph-name="CNS1.14787" unicode="&#x2020c;" 
 />
    <glyph glyph-name="CNS1.14788" unicode="&#xe5c3;" 
d="M901 708h-803v59h802zM775 152h-552v458l551 -1zM937 -16h-880c-2 20 -1 38 -1 59h881v-59zM709 420v132h-421v-133zM709 209v150h-421v-149z" />
    <glyph glyph-name="CNS1.14792" unicode="&#xe5c7;" 
d="M904 734c-74 -54 -153 -106 -236 -143c25 -20 55 -35 80 -61l-50 -43c-70 68 -153 106 -239 136c10 17 24 35 37 49c36 -11 69 -28 104 -43c59 19 114 49 167 83l31 20l-433 2v59l539 1v-60zM934 481c-14 -77 -40 -151 -77 -218l-58 27c21 43 43 85 56 131h-196v-421
c-7 -30 -28 -54 -57 -63c-39 -5 -82 -3 -121 -2l-21 63c37 0 77 -9 115 -1c11 5 18 17 18 30l1 394h-302v60h642zM322 807c-11 -73 -37 -140 -64 -206l-1 -667h-60l-1 532c-5 -2 -7 -9 -11 -14c-30 -39 -55 -84 -91 -120l-45 40c55 66 103 136 136 213c15 23 22 52 34 78
c20 56 38 114 50 173c19 -8 35 -20 53 -29z" />
    <glyph glyph-name="CNS1.14799" unicode="&#xe5ce;" 
 />
    <glyph glyph-name="CNS1.14800" unicode="&#xe5cf;" 
 />
    <glyph glyph-name="CNS1.14801" unicode="&#xe5d0;" 
 />
    <glyph glyph-name="CNS1.14802" unicode="&#xe5d1;" 
 />
    <glyph glyph-name="CNS1.14803" unicode="&#xe5d6;" 
 />
    <glyph glyph-name="CNS1.14804" unicode="&#x23595;" 
 />
    <glyph glyph-name="CNS1.14805" unicode="&#x23e39;" 
 />
    <glyph glyph-name="CNS1.14806" unicode="&#x23ebf;" 
 />
    <glyph glyph-name="CNS1.14807" unicode="&#xe5da;" 
 />
    <glyph glyph-name="CNS1.14808" unicode="&#x21884;" 
 />
    <glyph glyph-name="CNS1.14809" unicode="&#x23e89;" 
 />
    <glyph glyph-name="CNS1.14810" unicode="&#xe5dd;" 
d="M846 644v82h-686v-86h-61v145h809v-141h-62zM211 598v59h585v-59h-585zM252 369l1 176h503v-176h-504zM777 -49v45h-544v-51h-61v369h666v-363h-61zM695 491h-381v-66h381v66zM777 255h-243v-72h243v72zM777 131h-243v-77h243v77zM473 255h-240v-72h240v72zM473 131h-238
l-2 -77h240v77z" />
    <glyph glyph-name="CNS1.14812" unicode="&#x205e0;" 
d="M657 512v-98c0 -52 -32 -76 -65 -74l-99 6l-17 62l89 -9c21 -2 28 14 28 28v85h-305v59h305v67c39 14 105 62 146 87l-372 1v59h477v-56c-38 -36 -138 -99 -188 -126v-32h293v-59h-292zM240 566c-47 69 -106 142 -174 180l45 41c74 -44 129 -105 179 -177zM242 -17v59
l97 -1v258h538v-257h80v-59h-715zM108 -35c-20 13 -37 25 -56 38c98 113 145 241 176 378l55 -28c-19 -122 -81 -283 -175 -388zM713 240v-198h97v198h-97zM647 240h-83v-198h83v198zM496 240h-90v-198h90v198z" />
    <glyph glyph-name="CNS1.14814" unicode="&#x204a3;" 
 />
    <glyph glyph-name="CNS1.14815" unicode="&#x20492;" 
 />
    <glyph glyph-name="CNS1.14816" unicode="&#x20491;" 
 />
    <glyph glyph-name="CNS1.14817" unicode="&#xe5e4;" 
 />
    <glyph glyph-name="CNS1.14818" unicode="&#x28a9c;" 
 />
    <glyph glyph-name="CNS1.14819" unicode="&#x2070e;" 
 />
    <glyph glyph-name="CNS1.14820" unicode="&#xe5e7;" 
 />
    <glyph glyph-name="CNS1.14821" unicode="&#xe5e8;" 
 />
    <glyph glyph-name="CNS1.14822" unicode="&#x20873;" 
 />
    <glyph glyph-name="CNS1.14823" unicode="&#xe5ea;" 
 />
    <glyph glyph-name="CNS1.14824" 
 />
    <glyph glyph-name="CNS1.14825" unicode="&#xe5ec;" 
 />
    <glyph glyph-name="CNS1.14826" unicode="&#xe5ed;" 
d="M523 698l-52 -43c-28 51 -69 105 -113 140l46 35c46 -35 86 -77 119 -132zM912 0c0 -36 -41 -56 -58 -55c-28 -3 -49 1 -79 1l-19 64l67 -4c15 -1 25 2 27 18v693h-291v58l353 -1v-774zM843 186l-42 -52c-65 50 -132 131 -169 203c-31 -71 -94 -152 -159 -205l-45 45
v-240h-59v723h59l1 -477c142 108 183 238 180 404l60 -11c-2 -50 -5 -117 -15 -164c32 -76 117 -186 189 -226zM146 629c1 -89 -16 -177 -52 -253c-17 9 -39 20 -57 28c11 20 25 52 32 77c15 54 22 112 22 170c20 -5 36 -17 55 -22zM357 594c-31 -33 -78 -78 -119 -98
l-1 -148l-6 -102c33 -18 94 -64 118 -96l-37 -48s-55 60 -89 81c-17 -98 -73 -181 -142 -254l-50 45c79 78 136 176 141 287l4 93l2 476h60v-260c30 18 54 49 76 76z" />
    <glyph glyph-name="CNS1.14831" unicode="&#xe5f2;" 
 />
    <glyph glyph-name="CNS1.14832" unicode="&#x20e1d;" 
 />
    <glyph glyph-name="CNS1.14833" 
 />
    <glyph glyph-name="CNS1.14834" unicode="&#xe5f5;" 
 />
    <glyph glyph-name="CNS1.14835" unicode="&#xe5f6;" 
 />
    <glyph glyph-name="CNS1.14836" unicode="&#xe5f7;" 
 />
    <glyph glyph-name="CNS1.14837" unicode="&#xe5f8;" 
 />
    <glyph glyph-name="CNS1.14838" unicode="&#xe5f9;" 
 />
    <glyph glyph-name="CNS1.14839" unicode="&#xe5fa;" 
 />
    <glyph glyph-name="CNS1.14840" unicode="&#x24abc;" 
 />
    <glyph glyph-name="CNS1.14841" unicode="&#x2408d;" 
 />
    <glyph glyph-name="CNS1.14842" unicode="&#xe5fd;" 
 />
    <glyph glyph-name="CNS1.14843" unicode="&#xe5fe;" 
 />
    <glyph glyph-name="CNS1.14844" unicode="&#xe5ff;" 
 />
    <glyph glyph-name="CNS1.14845" unicode="&#x240c9;" 
 />
    <glyph glyph-name="CNS1.14846" unicode="&#xe601;" 
 />
    <glyph glyph-name="CNS1.14847" unicode="&#x20345;" 
 />
    <glyph glyph-name="CNS1.14848" unicode="&#xe603;" 
d="M895 16c-2 -22 -13 -44 -33 -56c-40 -24 -105 -14 -141 -13l-21 65c33 -1 68 -6 102 -5c10 2 21 6 26 17l4 15v610l-401 -1l-1 -714l-61 -1l-1 775h148c53 42 82 102 99 165c21 -10 39 -24 58 -37c-17 -45 -41 -93 -78 -128h299zM753 190l-245 -1v334h245v-333zM298 139
h-63v63l-89 -1v-63h-64l1 598l214 -1zM691 463h-120v-215h119zM235 261v416h-89l-1 -416h90z" />
    <glyph glyph-name="CNS1.14851" unicode="&#xe606;" 
 />
    <glyph glyph-name="CNS1.14852" unicode="&#xe607;" 
 />
    <glyph glyph-name="CNS1.14853" unicode="&#xe609;" 
d="M683 496l-58 -33c-11 67 -51 122 -92 156l45 33c54 -36 85 -104 105 -156zM965 520l-42 -54c-116 51 -237 176 -305 292c-79 -115 -161 -219 -284 -283l-47 48h-52v-253l110 36v-63l-299 -97l-30 59c51 13 105 26 155 43v275h-125v60h125v225h64v-225h98v-36
c116 78 230 218 273 307l54 -27l-6 -14c74 -122 180 -237 311 -293zM948 46l-54 -34c-21 70 -67 135 -127 183l53 29c44 -28 111 -120 128 -178zM817 389c-23 -56 -55 -103 -92 -153l-55 35c30 36 56 73 78 114h-346v60h415v-56zM690 141l-58 -28c-15 63 -45 117 -92 166
l58 23c45 -48 74 -102 92 -161zM801 97c-13 -51 -31 -141 -95 -141h-159c-44 0 -78 25 -78 67v208h64v-178c0 -16 7 -38 30 -38h127c34 0 40 44 44 65c5 15 6 28 7 45zM438 183c-37 -65 -88 -129 -154 -171l-51 45c68 38 123 95 157 164z" />
    <glyph glyph-name="CNS1.14855" unicode="&#xe60b;" 
 />
    <glyph glyph-name="CNS1.14856" unicode="&#xe60c;" 
 />
    <glyph glyph-name="CNS1.14857" unicode="&#xe60d;" 
 />
    <glyph glyph-name="CNS1.14858" unicode="&#xe60e;" 
 />
    <glyph glyph-name="CNS1.14859" unicode="&#x28a46;" 
 />
    <glyph glyph-name="CNS1.14860" unicode="&#x216fa;" 
 />
    <glyph glyph-name="CNS1.14861" unicode="&#x2176f;" 
d="M894 -18c-89 58 -172 157 -226 256l-1 -213c0 -56 -34 -82 -73 -81l-85 2l-23 72c19 -4 33 -7 46 -9c15 -3 27 -5 41 -5c26 0 33 23 33 34v344h-180v60h180v76h-227v60h227v77h-180v60h180v117h61v-117h191v-137h89v-60h-89v-136h-191l1 -40c18 -30 45 -83 76 -119
c42 30 95 97 115 129l49 -41c-36 -51 -76 -92 -129 -132c26 -41 100 -112 163 -152zM522 185c-35 44 -106 102 -155 123l35 44c52 -20 124 -69 164 -122zM313 50c-20 32 -34 55 -62 81c-50 -71 -96 -128 -156 -178l-49 38c62 44 111 109 158 181c-36 22 -71 45 -110 63
c29 97 50 205 63 332h-90v59h96c8 71 18 159 17 203l64 -19c0 -37 -14 -130 -20 -184h128c0 -180 -20 -324 -72 -440c38 -35 58 -58 76 -85zM374 8l-40 48c57 24 183 93 236 130v-69c-44 -30 -147 -82 -196 -109zM793 655h-126v-77h126v77zM793 518h-126v-76h126v76z
M219 567c-7 -80 -23 -180 -56 -306c25 -10 39 -18 68 -37c35 77 58 221 60 343h-72z" />
    <glyph glyph-name="CNS1.14863" unicode="&#xe613;" 
 />
    <glyph glyph-name="CNS1.14864" unicode="&#xe614;" 
 />
    <glyph glyph-name="CNS1.14865" unicode="&#xe616;" 
 />
    <glyph glyph-name="CNS1.14866" unicode="&#xe617;" 
d="M555 721l-48 -30c-14 36 -43 88 -77 119l43 30c32 -31 65 -81 82 -119zM941 175c4 -39 -9 -76 -41 -98c-34 -24 -85 -14 -122 -6l-22 66c36 -10 88 -32 117 -9c23 24 7 73 -3 106c-22 74 -65 137 -111 201l107 292h-121v-719l1 -84h-59l1 859h242v-52l-106 -288
c52 -85 107 -166 117 -268zM666 -2l-49 -25c-9 36 -20 73 -35 106l-215 -88l-28 47c25 12 43 30 43 66v582h254v-356l-194 1v-252l119 48c-6 19 -18 39 -30 58l45 25c33 -48 82 -159 90 -212zM354 85l-44 -44c-18 30 -49 61 -77 86c-39 -70 -85 -142 -149 -197l-46 36
c70 60 116 126 149 200c-25 25 -58 43 -88 62l45 341h-87l1 53h93l19 205l53 -10l-17 -195h126c1 -151 -14 -309 -74 -441c33 -27 68 -62 96 -96zM577 630l-136 1v-92h135zM576 384v102h-135l1 -102h134zM273 569l-75 1l-43 -314l56 -37c45 105 60 226 62 350z" />
    <glyph glyph-name="CNS1.14868" unicode="&#x25946;" 
 />
    <glyph glyph-name="CNS1.14869" unicode="&#x219f3;" 
 />
    <glyph glyph-name="CNS1.14870" unicode="&#x21861;" 
 />
    <glyph glyph-name="CNS1.14871" unicode="&#x24295;" 
 />
    <glyph glyph-name="CNS1.14872" unicode="&#xe61d;" 
 />
    <glyph glyph-name="CNS1.14873" unicode="&#xe61e;" 
 />
    <glyph glyph-name="CNS1.14874" unicode="&#xe61f;" 
 />
    <glyph glyph-name="CNS1.14875" unicode="&#xe620;" 
 />
    <glyph glyph-name="CNS1.14876" unicode="&#x25e83;" 
d="M709 608v-158h178v-63h-416v62h176v160h-202v60h202v157h61l1 -157h214v-61h-214zM909 23c-9 66 -57 143 -119 191l45 35c52 -38 101 -89 130 -184zM366 534l-51 23c21 38 33 71 40 102c7 29 9 56 11 82l58 -19c-8 -66 -23 -131 -58 -188zM675 145
c-15 65 -38 132 -83 171l53 25c47 -48 76 -105 92 -169c-19 -12 -39 -15 -62 -27zM812 27c-6 -21 -11 -35 -25 -52c-16 -15 -35 -23 -57 -23h-144c-32 0 -65 29 -65 66v243h59v-206c0 -20 1 -45 42 -45l89 -1c16 0 41 19 44 40c7 23 9 42 16 78c20 -12 41 -21 59 -31
c-4 -22 -12 -49 -18 -69zM133 531c-10 52 -33 122 -79 181l46 33c35 -52 71 -122 89 -187zM492 193c-19 -70 -56 -136 -111 -186l-51 40c36 32 91 97 109 175zM364 163c-16 66 -40 123 -82 172v-394h-61v332v25c-23 -80 -100 -188 -133 -223l-46 41c80 80 136 245 150 316
l-140 1v58h169v335h61v-335h136v-58h-136v-88l42 28c45 -47 71 -92 97 -180z" />
    <glyph glyph-name="CNS1.14879" unicode="&#x20413;" 
 />
    <glyph glyph-name="CNS1.14880" unicode="&#xe625;" 
 />
    <glyph glyph-name="CNS1.14881" unicode="&#xe626;" 
 />
    <glyph glyph-name="CNS1.14882" unicode="&#x21303;" 
 />
    <glyph glyph-name="CNS1.14883" unicode="&#xe628;" 
 />
    <glyph glyph-name="CNS1.14884" unicode="&#xe629;" 
 />
    <glyph glyph-name="CNS1.14885" unicode="&#xe62a;" 
 />
    <glyph glyph-name="CNS1.14886" unicode="&#x289fb;" 
 />
    <glyph glyph-name="CNS1.14887" unicode="&#xe62c;" 
 />
    <glyph glyph-name="CNS1.14888" unicode="&#xe62d;" 
 />
    <glyph glyph-name="CNS1.14889" unicode="&#xe62e;" 
 />
    <glyph glyph-name="CNS1.14890" unicode="&#xe62f;" 
 />
    <glyph glyph-name="CNS1.14891" unicode="&#xe630;" 
d="M896 780c-22 -47 -55 -94 -98 -127l-52 36c41 32 80 73 102 121zM898 583l-509 1l-1 57h165v190h63v-190h55l-1 190h63v-190h164zM537 690l-50 -37c-26 47 -65 87 -112 115l46 32c43 -27 89 -68 116 -110zM945 -14l-38 -61c-106 26 -217 100 -262 208c-1 1 -3 0 -5 0
c-53 -113 -172 -188 -292 -207l-38 65c103 9 202 54 257 144h-187v57h211c11 25 14 43 16 69h-163v57h167l1 59l-208 1v58l166 -1c-18 42 -44 81 -81 111l49 26c14 -6 22 -16 33 -27c23 -26 42 -51 56 -82l-45 -26l70 -1c36 38 64 87 79 136l57 -26
c-14 -40 -42 -75 -70 -111l158 1v-58h-201v-60l161 -1l-1 -56h-165c-1 -25 -6 -51 -11 -69h250v-58l-194 1c52 -83 140 -132 230 -149zM351 632l-1 -392c4 -38 -18 -68 -51 -68h-39l-15 62c8 0 20 -3 28 -3c11 -1 20 7 20 19v320l-58 1v-647h-57l-1 647l-55 -1v-410h-58v472
h114v199h57l1 -199h115z" />
    <glyph glyph-name="CNS1.14893" unicode="&#x21996;" 
 />
    <glyph glyph-name="CNS1.14894" unicode="&#x2197c;" 
 />
    <glyph glyph-name="CNS1.14895" unicode="&#x23aee;" 
 />
    <glyph glyph-name="CNS1.14896" unicode="&#xe635;" 
d="M925 159c-7 -32 -29 -62 -58 -77c-32 -17 -77 -6 -109 6l-10 64c33 -7 74 -31 104 -5c25 23 21 65 12 94c-16 49 -58 97 -104 124c29 74 58 142 86 217h-118v-656h-63l1 715h243v-62c-26 -65 -52 -128 -77 -194c68 -54 112 -139 93 -226zM627 534h-399v59h169
c-12 25 -38 51 -62 67c21 8 42 18 64 24c28 -27 50 -58 67 -91l161 -1v-58zM943 692l-753 1l-3 -454c0 -14 -1 -26 -4 -37c-6 -103 -38 -203 -105 -282l-53 42c42 47 72 100 84 160c8 22 10 48 13 73l6 556h365c-12 26 -32 51 -56 70l64 27c24 -30 42 -62 55 -96l387 -1v-59
zM646 307l-437 1l-1 59h153c-5 36 -27 65 -46 95c-11 14 -24 26 -38 39c15 10 34 18 52 24l27 -26c29 -34 48 -73 65 -112c-13 -7 -28 -13 -41 -19l58 -1c38 46 66 99 79 157l57 -26c-16 -52 -36 -90 -64 -132l135 1zM586 -74h-62l-1 62h-194l-1 -61h-61l-1 313l320 -1v-313
zM524 180h-196l1 -133l194 1z" />
    <glyph glyph-name="CNS1.14898" unicode="&#x21903;" 
 />
    <glyph glyph-name="CNS1.14899" unicode="&#x21904;" 
 />
    <glyph glyph-name="CNS1.14900" unicode="&#xe639;" 
d="M434 104v318h409v-318h-409zM905 417c-116 72 -176 130 -230 237v-206h-62v206c-41 -97 -130 -178 -226 -234l-26 28c-14 -103 -34 -181 -69 -254c33 -28 67 -54 97 -85l-42 -46c-29 31 -44 45 -80 77c-42 -62 -95 -129 -174 -185l-51 42c58 33 140 120 173 181
c-42 28 -86 55 -131 72c42 120 62 253 69 314h-96v61h100c7 67 11 136 11 212l62 -16c0 -67 -6 -132 -11 -196h151c0 -45 -2 -90 -6 -149c62 39 139 101 178 178h-190v56h261v125h62v-125h265v-56h-197c27 -58 100 -136 206 -191zM348 -22v59h583v-59h-583zM781 363h-284
v-69h284v69zM781 239h-284v-76h284v76zM216 564c-18 -107 -31 -200 -59 -286c30 -15 58 -30 85 -46c33 69 64 186 67 332h-93z" />
    <glyph glyph-name="CNS1.14902" unicode="&#xe63b;" 
 />
    <glyph glyph-name="CNS1.14903" unicode="&#x216fe;" 
d="M839 -60h-87l-18 59l72 -3c18 -1 30 10 30 27v260h-149v-295h-58v295h-136c-2 -175 -38 -264 -105 -352l-54 40c90 101 97 233 97 298v515h467v-782c0 -32 -28 -62 -59 -62zM336 63c-24 29 -33 43 -66 74c-30 -54 -102 -138 -183 -186l-43 46c81 49 143 124 180 181
c-35 30 -75 56 -133 86c29 86 56 194 72 308h-104v59h111l21 190l64 -11l-24 -180h146c0 -197 -29 -346 -77 -441c22 -17 63 -59 87 -87zM836 725h-145v-162h145v162zM633 725h-140v-162h140v162zM836 504h-145v-162h145v162zM629 504h-136v-162h136v162zM226 572
c-11 -62 -20 -114 -30 -161c-10 -46 -20 -86 -35 -123c26 -14 65 -39 89 -59c34 81 62 198 62 343h-86z" />
    <glyph glyph-name="CNS1.14906" unicode="&#x28a47;" 
 />
    <glyph glyph-name="CNS1.14907" unicode="&#x21dba;" 
 />
    <glyph glyph-name="CNS1.14908" unicode="&#x23472;" 
 />
    <glyph glyph-name="CNS1.14909" unicode="&#x289a8;" 
 />
    <glyph glyph-name="CNS1.14910" unicode="&#xedf4;" 
 />
    <glyph glyph-name="CNS1.14911" unicode="&#xe644;" 
 />
    <glyph glyph-name="CNS1.14912" unicode="&#x21927;" 
 />
    <glyph glyph-name="CNS1.14913" unicode="&#x217ab;" 
 />
    <glyph glyph-name="CNS1.14914" unicode="&#xe647;" 
 />
    <glyph glyph-name="CNS1.14915" unicode="&#x2173b;" 
 />
    <glyph glyph-name="CNS1.14916" unicode="&#xe649;" 
 />
    <glyph glyph-name="CNS1.14917" unicode="&#x275fd;" 
 />
    <glyph glyph-name="CNS1.14918" unicode="&#xe64c;" 
 />
    <glyph glyph-name="CNS1.14919" unicode="&#xe64d;" 
 />
    <glyph glyph-name="CNS1.14920" unicode="&#x22860;" 
 />
    <glyph glyph-name="CNS1.14921" unicode="&#x2262b;" 
 />
    <glyph glyph-name="CNS1.14922" unicode="&#xe650;" 
d="M934 72c-5 -27 -12 -53 -24 -76c-10 -20 -27 -27 -47 -29c-21 -3 -44 -1 -63 0c-40 2 -56 36 -56 73v292l-49 -30c-30 81 -65 153 -130 212v-199c0 -141 -23 -269 -185 -388l-47 50c162 97 171 237 171 380v422h302v-725c-3 -15 10 -28 24 -29c20 -2 35 1 41 21
c5 38 11 75 14 124l62 -18c-5 -27 -8 -54 -13 -80zM360 402c-11 62 -42 130 -79 168v-644h-62v894h62v-234l44 27c32 -33 80 -117 94 -180zM100 351l-54 35c50 62 79 137 87 226l57 -21c-5 -86 -35 -166 -90 -240zM744 721h-178v-182l33 24c69 -55 115 -130 130 -171l15 -31
v360z" />
    <glyph glyph-name="CNS1.14924" unicode="&#x225af;" 
d="M939 63c-4 -22 -9 -43 -18 -67c-8 -20 -26 -28 -50 -30c-25 -2 -52 0 -71 1c-40 2 -57 33 -57 70v661h-229v-359c0 -123 -17 -308 -137 -407l-51 35c115 106 126 248 126 379v409h354v-701c0 -13 10 -28 24 -29c19 -2 36 -6 44 21c5 37 16 95 19 120l58 -32
c-4 -27 -8 -50 -12 -71zM342 402c-13 69 -44 124 -79 168v-644h-62v894h62v-234l44 27c43 -58 74 -118 93 -180zM99 353l-53 33c37 47 66 147 72 226l57 -21c-4 -79 -36 -183 -76 -238z" />
    <glyph glyph-name="CNS1.14926" unicode="&#x29088;" 
 />
    <glyph glyph-name="CNS1.14927" unicode="&#x26f73;" 
 />
    <glyph glyph-name="CNS1.14928" unicode="&#xe656;" 
 />
    <glyph glyph-name="CNS1.14929" unicode="&#x2003e;" 
 />
    <glyph glyph-name="CNS1.14930" unicode="&#x20046;" 
 />
    <glyph glyph-name="CNS1.14931" unicode="&#x2261b;" 
d="M770 460v-170c48 -32 90 -67 138 -125l-44 -47c-29 32 -64 76 -93 97l-1 -277h-65v320c-41 29 -85 49 -143 63l29 48c38 -10 84 -26 114 -42v132h-195c1 -43 1 -77 0 -107c-7 -270 -77 -349 -148 -417l-52 37c121 108 136 256 136 400v363c139 2 329 29 444 95l41 -51
c-117 -70 -291 -93 -421 -97v-164h428v-58h-168zM342 402c-11 57 -38 125 -79 168v-644h-62v894h62v-234l44 27c43 -58 78 -115 93 -180zM100 351l-54 35c50 62 65 138 72 225l57 -20c-4 -87 -21 -167 -75 -240z" />
    <glyph glyph-name="CNS1.14933" unicode="&#xe65b;" 
 />
    <glyph glyph-name="CNS1.14934" unicode="&#xe65c;" 
 />
    <glyph glyph-name="CNS1.14935" unicode="&#x22c9b;" 
 />
    <glyph glyph-name="CNS1.14936" unicode="&#x22d07;" 
 />
    <glyph glyph-name="CNS1.14937" unicode="&#x246d4;" 
 />
    <glyph glyph-name="CNS1.14938" unicode="&#x2914d;" 
 />
    <glyph glyph-name="CNS1.14939" unicode="&#xe661;" 
 />
    <glyph glyph-name="CNS1.14940" unicode="&#x24665;" 
d="M940 77c-5 -24 -11 -47 -20 -67c-10 -24 -36 -36 -62 -36h-91c-52 0 -78 31 -78 80v251h-61c-13 -185 -68 -301 -227 -366l-42 44c147 51 204 183 204 322h-93v264h159v95h-205v59h205v122h62v-122h228v-59h-228v-95h172v-264h-112v-231c0 -22 6 -43 39 -43h38
c29 0 43 16 50 42c2 6 3 12 4 17c3 20 6 44 5 76l63 -20c-3 -24 -6 -47 -10 -69zM295 300v-371h-63v348l-140 -66l-38 54c53 20 114 48 178 77v200h-73c-12 -63 -31 -112 -56 -155l-57 19c49 82 66 186 62 311l63 -9c1 -23 0 -55 -5 -106h66v234h63v-234h114v-60h-114v-175
l114 56v-66zM800 512h-268v-148h268v148z" />
    <glyph glyph-name="CNS1.14943" unicode="&#x22b22;" 
 />
    <glyph glyph-name="CNS1.14944" unicode="&#x23450;" 
 />
    <glyph glyph-name="CNS1.14945" unicode="&#x298ea;" 
 />
    <glyph glyph-name="CNS1.14946" unicode="&#x22e78;" 
 />
    <glyph glyph-name="CNS1.14947" unicode="&#xe669;" 
 />
    <glyph glyph-name="CNS1.14948" unicode="&#xe66b;" 
 />
    <glyph glyph-name="CNS1.14949" unicode="&#xe66c;" 
 />
    <glyph glyph-name="CNS1.14950" unicode="&#xe66d;" 
d="M866 403h-432l1 391l431 1v-392zM952 -27h-590l-1 60l261 1v155h-224v60h224v128h64v-128l223 -1v-58l-223 -1v-155h266v-61zM399 337l-127 -50l-1 -285c0 -37 -12 -74 -60 -73l-82 1l-25 67c27 -5 48 -7 77 -8c16 -1 26 8 26 24v253l-113 -39l-47 57
c64 13 115 32 160 49l1 244h-158v59l157 1l1 198h63v-198l127 -1v-59l-127 1v-225l127 48zM803 632l-1 102l-303 -1v-102zM803 464v110h-304v-110h304z" />
    <glyph glyph-name="CNS1.14952" unicode="&#x22d67;" 
 />
    <glyph glyph-name="CNS1.14953" unicode="&#xe670;" 
d="M711 708l-47 -35c-27 48 -76 93 -122 123l37 33c49 -28 96 -68 132 -121zM882 335h-61v41h-310c0 -153 1 -302 -157 -441l-51 45c92 72 146 167 146 287v396h433v-328zM410 381l-134 -63v-284c0 -56 -13 -91 -67 -94c-31 -2 -60 -3 -90 -3l-19 67c41 -2 60 -3 93 -2
c13 0 22 4 22 25v262l-140 -65l-42 52l182 81v228h-159v56h159v197h61v-197h134v-56h-134v-202l134 60v-62zM821 432v175h-311v-175h311z" />
    <glyph glyph-name="CNS1.14955" unicode="&#xe672;" 
 />
    <glyph glyph-name="CNS1.14956" unicode="&#xe673;" 
 />
    <glyph glyph-name="CNS1.14957" unicode="&#xe674;" 
 />
    <glyph glyph-name="CNS1.14958" unicode="&#xe675;" 
 />
    <glyph glyph-name="CNS1.14959" unicode="&#x2308e;" 
 />
    <glyph glyph-name="CNS1.14960" unicode="&#x232ad;" 
 />
    <glyph glyph-name="CNS1.14961" unicode="&#x24989;" 
 />
    <glyph glyph-name="CNS1.14962" unicode="&#x232ab;" 
 />
    <glyph glyph-name="CNS1.14963" unicode="&#xe67a;" 
 />
    <glyph glyph-name="CNS1.14964" unicode="&#x232e0;" 
 />
    <glyph glyph-name="CNS1.14965" unicode="&#x218d9;" 
 />
    <glyph glyph-name="CNS1.14966" unicode="&#x2943f;" 
 />
    <glyph glyph-name="CNS1.14967" unicode="&#xe67e;" 
 />
    <glyph glyph-name="CNS1.14968" unicode="&#x23289;" 
 />
    <glyph glyph-name="CNS1.14969" unicode="&#x231b3;" 
d="M931 -68c-133 7 -255 45 -371 117c-62 -57 -160 -91 -272 -116l-42 55c100 11 196 41 262 97c-38 36 -97 96 -128 141l47 34c47 -59 80 -92 120 -128c28 37 53 81 61 151h-199v354h203v84h-249v59h560v-59h-247v-84h200v-354h-203c-9 -84 -38 -134 -75 -191
c94 -60 237 -99 361 -100zM257 66v61h-109v-61h-61v666h231v-666h-61zM811 578h-135v-85h135v85zM811 434h-135v-92h135v92zM612 578h-139v-85h139v85zM612 434h-139v-92h139v92zM257 673h-109v-220h109v220zM257 390h-109v-203h109v203z" />
    <glyph glyph-name="CNS1.14972" unicode="&#x28b22;" 
 />
    <glyph glyph-name="CNS1.14973" unicode="&#x2558f;" 
 />
    <glyph glyph-name="CNS1.14974" unicode="&#x216fc;" 
d="M861 110c-28 70 -68 129 -130 178l49 39c57 -44 109 -110 135 -186zM621 47v336h-187v59h187v258h-190v59h483v-59h-230v-258h206v-59h-206v-336h266v-59h-574v59h245zM365 47c-27 34 -52 60 -80 84c-36 -53 -121 -129 -189 -182l-44 43c75 55 157 131 186 177
c-39 29 -90 59 -132 78c31 91 61 198 74 308h-98v60h100c8 63 13 127 13 210l61 -13c0 -57 -6 -119 -9 -197h155c-1 -124 -21 -323 -86 -431c32 -28 68 -63 95 -94zM241 555c-7 -60 -32 -192 -64 -280c32 -17 59 -34 89 -56c42 82 73 226 73 336h-98z" />
    <glyph glyph-name="CNS1.14976" unicode="&#x25425;" 
 />
    <glyph glyph-name="CNS1.14977" unicode="&#xe689;" 
 />
    <glyph glyph-name="CNS1.14978" unicode="&#x23103;" 
d="M389 167l1 55h100v424h-80v57l80 -1v127h61v-127h207v127h61v-127h95v-56h-95v-424h109l1 -55h-540zM907 -58c-56 62 -120 115 -213 154l43 44c80 -36 158 -90 212 -148zM204 594v-143h165c-1 -134 -11 -344 -20 -427c-3 -31 -29 -61 -65 -68c-28 -6 -59 0 -91 7l-12 53
c32 -4 45 -7 70 -9c34 -3 41 30 42 43c12 115 11 218 16 343h-104c-6 -101 -10 -172 -23 -244c-13 -70 -35 -142 -87 -227l-49 38c98 132 99 350 99 508v126h-88v58h159c-25 59 -56 111 -108 143l50 36c47 -29 90 -93 113 -149c-14 -12 -38 -25 -47 -30h160v-58h-180z
M404 -68l-40 48c77 32 145 85 193 155l49 -39c-37 -56 -126 -127 -202 -164zM758 646h-207v-101h207v101zM758 490h-207v-104h207v104zM758 330h-207v-108h207v108z" />
    <glyph glyph-name="CNS1.14980" unicode="&#x23234;" 
d="M929 650h-155v-124h-63l-1 124h-143v-127h-63v127h-144v59h144v123h63v-123h144v125h63v-125h154zM879 -64h-65v69h-353v-70h-63v557h481v-556zM335 102h-61v71h-119v-74h-62v647h242v-644zM814 284v146h-145v-146h145zM608 284v146h-147v-146h147zM814 65v160h-144v-160
h144zM274 485v201h-119v-201h119zM608 64v161h-147v-161h147zM273 231v195h-118v-195h118z" />
    <glyph glyph-name="CNS1.14984" unicode="&#x242c9;" 
 />
    <glyph glyph-name="CNS1.14985" unicode="&#xe691;" 
 />
    <glyph glyph-name="CNS1.14986" unicode="&#x26d24;" 
 />
    <glyph glyph-name="CNS1.14987" unicode="&#xe693;" 
 />
    <glyph glyph-name="CNS1.14988" unicode="&#xe694;" 
 />
    <glyph glyph-name="CNS1.14989" unicode="&#xe695;" 
 />
    <glyph glyph-name="CNS1.14990" unicode="&#x27870;" 
 />
    <glyph glyph-name="CNS1.14991" unicode="&#x21deb;" 
 />
    <glyph glyph-name="CNS1.14992" unicode="&#xe698;" 
d="M861 477v-540h-62v540h-92v-248c-1 -116 -40 -212 -98 -293l-57 36c61 63 93 166 94 261c3 175 2 198 0 506c90 5 171 34 243 87l44 -45c-59 -52 -134 -83 -226 -97v-148h247v-59h-93zM532 586v-205c31 15 50 23 82 41v-62c-38 -20 -46 -24 -82 -41v-272
c0 -60 -37 -88 -92 -87c-19 1 -56 3 -75 2l-21 62c16 -1 74 -7 87 -8c33 -3 39 21 39 43l-1 230c-27 -15 -78 -40 -111 -54l-35 46v-190h-60v79h-103v-79h-58v660h221l-1 -462c39 13 109 47 148 63v234h-118v59h117v198h62v-198h95v-59h-94zM263 693h-103v-204h103v204z
M263 430h-103v-201h103v201z" />
    <glyph glyph-name="CNS1.14994" unicode="&#x232e1;" 
 />
    <glyph glyph-name="CNS1.14995" unicode="&#xe69b;" 
 />
    <glyph glyph-name="CNS1.14996" unicode="&#x25872;" 
d="M886 491v-106h-143v-47h159v-344c0 -26 -25 -52 -44 -52h-60l-24 66c24 -7 33 -8 41 -9c12 -1 21 3 25 12c2 6 2 14 2 21v43h-99v-108h-62v107h-88v-144h-61v408h149v47h-140v59l140 -1v48h-193l1 -190c1 -155 -37 -277 -89 -371l-55 29c56 89 80 212 80 340l1 462h231
c-12 16 -27 33 -50 51l56 31c29 -24 44 -53 58 -82h224v-59l-458 1v-156h194v43h-143v59h143v32h62v-32h143v-102h73v-56h-73zM249 715l-1 -147h145v-58h-145v-93l32 22c45 -40 92 -123 111 -181l-54 -39c-20 66 -44 111 -89 168v-456h-59v420c-21 -64 -46 -134 -100 -199
l-48 37c88 108 120 271 128 321h-117v58h138v132c-63 -12 -91 -17 -114 -18l-27 54c113 10 235 41 318 99l33 -55c-47 -26 -122 -54 -151 -65zM826 590h-83v-43h83v43zM826 491h-83v-47h83v47zM842 281h-99v-44h99v44zM842 181h-99v-51h99v51zM681 281h-88v-45h88v45z
M681 181h-88v-52h88v52z" />
    <glyph glyph-name="CNS1.14998" unicode="&#x2383a;" 
 />
    <glyph glyph-name="CNS1.14999" unicode="&#x237bc;" 
 />
    <glyph glyph-name="CNS1.15000" unicode="&#xe6a0;" 
d="M675 537v250h225v-250h-225zM396 537v250h226v-250h-226zM410 411v58h478v-58h-478zM579 280l-26 -70h290c-6 -79 -19 -151 -39 -213c-15 -45 -51 -59 -96 -56c-41 2 -82 7 -127 17l-8 64c43 -11 86 -22 131 -22c17 0 30 3 41 19c14 30 23 66 27 101l4 32h-309l46 128
h-158v19l-40 -21c-13 60 -43 123 -63 156v-495h-63v436c-23 -61 -59 -126 -107 -191l-48 38c75 99 125 215 151 358h-129v59h133v197h63v-197h114v-59h-114v-124l35 20c24 -27 54 -85 75 -138h595v-58h-378zM839 733h-107v-142h107v142zM565 733h-112v-142h112v142z" />
    <glyph glyph-name="CNS1.15002" unicode="&#x233fe;" 
d="M807 619c-50 58 -108 95 -174 110l38 49c66 -18 126 -52 180 -112zM845 -55c-58 0 -126 65 -212 211c-72 -45 -155 -78 -253 -115l-43 52c108 34 198 73 268 115c-42 94 -61 211 -70 289l-185 -24l-13 61l189 21c-8 60 -17 166 -22 269l65 10c3 -58 6 -177 19 -271
l314 37l7 -60l-313 -38c8 -64 31 -179 62 -257c75 51 135 127 182 207l46 -50c-47 -72 -113 -152 -201 -216c20 -37 111 -173 150 -173c8 0 22 0 31 17c13 25 21 79 29 144l58 -37c-8 -71 -20 -118 -36 -147c-19 -34 -42 -45 -72 -45zM318 296c-11 51 -41 118 -67 148v-513
h-63v410c-27 -97 -53 -141 -83 -191l-56 31c76 114 121 320 129 388h-101v59h112v196h62v-196h117v-59h-117v-103l36 24c35 -37 74 -115 86 -163c-15 -8 -35 -20 -55 -31z" />
    <glyph glyph-name="CNS1.15004" unicode="&#xe6a4;" 
 />
    <glyph glyph-name="CNS1.15005" unicode="&#x2462a;" 
 />
    <glyph glyph-name="CNS1.15006" unicode="&#xe6a7;" 
 />
    <glyph glyph-name="CNS1.15007" 
 />
    <glyph glyph-name="CNS1.15008" unicode="&#xe6a9;" 
 />
    <glyph glyph-name="CNS1.15009" unicode="&#xe6aa;" 
 />
    <glyph glyph-name="CNS1.15010" unicode="&#x237d5;" 
 />
    <glyph glyph-name="CNS1.15011" unicode="&#x24487;" 
 />
    <glyph glyph-name="CNS1.15012" unicode="&#xe6ae;" 
 />
    <glyph glyph-name="CNS1.15013" unicode="&#xe6af;" 
 />
    <glyph glyph-name="CNS1.15014" unicode="&#xe6b0;" 
d="M668 605h-258v54h258v-54zM920 474h-52v-462c0 -17 -9 -30 -15 -38c-30 -37 -83 -23 -129 -27l-17 61c32 -1 64 -9 96 -2l10 11v457h-146v58h147v169h54v-168h52v-59zM794 224c-16 -8 -33 -17 -51 -24c-17 55 -43 108 -78 157c13 9 27 17 42 23c43 -45 65 -101 87 -156z
M646 297h-217v243h217v-243zM926 741h-534v-430c0 -148 -47 -288 -121 -373c-17 12 -33 29 -48 42c97 102 112 241 108 383c-14 -2 -26 -13 -39 -18c-22 44 -64 95 -79 122h-2v-528h-58v429h-2c-12 -81 -51 -144 -76 -175c-13 12 -29 22 -41 35c63 111 96 228 115 356h-92
v54h96v199l59 1v-200h101c1 -18 0 -37 0 -54h-101v-98l40 16c30 -42 57 -78 77 -114l2 2l-2 407h597v-56zM688 73c-71 -13 -192 -39 -279 -57c-9 20 -20 38 -31 57c55 7 111 16 165 26c20 40 46 117 61 167c16 -6 31 -12 46 -21c-16 -51 -30 -97 -45 -132l83 16v-56z
M523 144l-42 -24c-13 42 -32 82 -64 115l43 23c22 -33 44 -75 63 -114zM592 349v137h-107v-137h107z" />
    <glyph glyph-name="CNS1.15016" unicode="&#x21912;" 
 />
    <glyph glyph-name="CNS1.15017" unicode="&#xe6b3;" 
 />
    <glyph glyph-name="CNS1.15018" unicode="&#xe6b4;" 
d="M844 241h-58v462h-270v-460h-60v523h388v-525zM940 113c-9 -47 -7 -107 -56 -133c-18 -12 -43 -9 -65 -10c-56 7 -133 -21 -159 40l-11 26v229c-27 -145 -146 -280 -282 -339c-14 15 -25 34 -37 51c18 10 44 20 58 32c91 47 167 141 190 237c20 83 35 205 27 390l63 -6
l-1 -155c0 -52 -4 -106 -11 -156h56v-279c1 -7 9 -11 15 -13h112c13 3 28 10 33 24c10 26 9 55 14 83zM429 342c-20 -10 -33 -29 -53 -38c-15 53 -61 109 -101 149v-522h-58v493c-28 -78 -86 -190 -149 -249l-45 44c93 94 150 227 177 355h-134v61h150v198h60v-199h136v-60
h-136v-110l47 26c44 -48 79 -95 106 -148z" />
    <glyph glyph-name="CNS1.15020" unicode="&#xe6b6;" 
 />
    <glyph glyph-name="CNS1.15021" unicode="&#xe6b7;" 
 />
    <glyph glyph-name="CNS1.15022" unicode="&#xe6b8;" 
 />
    <glyph glyph-name="CNS1.15023" unicode="&#x23fc0;" 
 />
    <glyph glyph-name="CNS1.15024" unicode="&#x23c9a;" 
 />
    <glyph glyph-name="CNS1.15025" unicode="&#xe6bb;" 
 />
    <glyph glyph-name="CNS1.15026" unicode="&#xe6bc;" 
 />
    <glyph glyph-name="CNS1.15027" unicode="&#x28bea;" 
 />
    <glyph glyph-name="CNS1.15028" unicode="&#x28acb;" 
 />
    <glyph glyph-name="CNS1.15029" unicode="&#xe6bf;" 
 />
    <glyph glyph-name="CNS1.15030" unicode="&#x2801e;" 
 />
    <glyph glyph-name="CNS1.15031" unicode="&#x289dc;" 
 />
    <glyph glyph-name="CNS1.15032" unicode="&#xe6c2;" 
 />
    <glyph glyph-name="CNS1.15033" unicode="&#xe6c3;" 
d="M327 682v60h284c-33 28 -68 45 -117 63l39 42c48 -12 97 -40 148 -84l-21 -21h248v-60h-581zM392 424v198h439v-198h-439zM248 612c-32 65 -83 122 -141 151l47 39c54 -30 114 -95 148 -146zM650 176c-1 -53 0 -66 -1 -80c0 -13 -1 -27 -1 -76c6 -42 -32 -81 -73 -81h-95
l-17 66c36 -6 68 -8 93 -8c20 0 30 10 30 29c-1 45 0 55 0 73v110c49 18 110 52 151 84h-365v59h465v-57c-49 -40 -109 -86 -187 -119zM214 423c-48 64 -99 110 -153 137l43 39c54 -23 108 -68 161 -136zM110 -39l-56 40c87 85 142 199 170 342l57 -25
c-22 -138 -79 -257 -171 -357zM766 563h-312v-80h312v80z" />
    <glyph glyph-name="CNS1.15035" 
 />
    <glyph glyph-name="CNS1.15036" unicode="&#x23f7f;" 
 />
    <glyph glyph-name="CNS1.15037" unicode="&#xe6c8;" 
 />
    <glyph glyph-name="CNS1.15038" unicode="&#xe6c9;" 
 />
    <glyph glyph-name="CNS1.15039" unicode="&#x2403c;" 
 />
    <glyph glyph-name="CNS1.15040" unicode="&#xe6cb;" 
 />
    <glyph glyph-name="CNS1.15041" unicode="&#xe6cc;" 
d="M806 677c-17 -75 -41 -149 -84 -213l-54 28c43 63 71 136 89 210zM894 -71h-58l-1 904h59v-904zM565 491c-19 -10 -39 -23 -59 -31c-7 80 -40 149 -81 215c14 10 30 19 46 26c44 -66 79 -133 94 -210zM811 155l-51 -30c-23 60 -53 120 -103 169v-332h-60v400
c-1 1 -3 0 -4 0c-24 -136 -100 -237 -147 -284c-13 15 -29 30 -42 45c74 72 113 165 140 258h-101v59h154v360h60v-360h150v-59h-151c-2 -23 -1 -49 0 -72l42 20c52 -51 91 -110 113 -174zM271 695l-39 -53c-35 50 -88 90 -142 113c11 16 22 32 33 47
c55 -24 107 -58 148 -107zM416 380c0 -169 -6 -333 -119 -451l-52 46c74 66 97 157 108 251l1 608h62v-454zM265 457l-39 -56c-42 57 -99 94 -160 118l34 48c61 -23 119 -58 165 -110zM277 287c-21 -123 -95 -243 -155 -326l-57 31c61 74 137 221 158 325z" />
    <glyph glyph-name="CNS1.15043" unicode="&#xe6ce;" 
 />
    <glyph glyph-name="CNS1.15044" unicode="&#xe6cf;" 
 />
    <glyph glyph-name="CNS1.15045" unicode="&#xe6d0;" 
 />
    <glyph glyph-name="CNS1.15046" unicode="&#x2431a;" 
 />
    <glyph glyph-name="CNS1.15047" unicode="&#x24276;" 
d="M901 549c-61 50 -136 96 -196 123c-81 -45 -165 -82 -258 -114l-36 49c84 27 159 56 228 93c-62 25 -129 41 -206 56l30 48c86 -17 165 -37 240 -67c46 28 93 66 137 114l51 -45c-44 -37 -81 -69 -123 -98c51 -26 114 -66 167 -110c-12 -17 -23 -32 -34 -49zM616 469
c-11 -24 -30 -43 -43 -66h312v-378c0 -29 -15 -55 -45 -69c-19 -9 -77 -6 -99 -7l-17 62c22 -1 44 -9 66 -7c23 2 33 7 33 43v56l-275 1v-167l-61 -1l1 362c-28 -32 -76 -77 -99 -96l-44 45c81 62 155 150 196 222h-148v58h184c13 27 28 55 36 73l59 -25
c-9 -18 -18 -29 -25 -48h297v-58h-328zM108 385l-60 23c42 69 50 149 51 224l58 -13c1 -78 -10 -162 -49 -234zM355 57c-36 56 -66 97 -113 131c-18 -80 -72 -178 -145 -253l-48 36c95 96 152 227 152 383v472h62l-1 -253c34 24 54 53 77 98l57 -39
c-32 -52 -75 -96 -131 -135c0 -126 -1 -204 -8 -245c50 -31 106 -89 141 -147zM823 344h-275v-61h275v61zM823 224h-275v-61h275v61z" />
    <glyph glyph-name="CNS1.15050" unicode="&#xe6d5;" 
 />
    <glyph glyph-name="CNS1.15051" unicode="&#xe6d6;" 
 />
    <glyph glyph-name="CNS1.15052" unicode="&#x2478f;" 
d="M748 719v-123h150v-660h-62v72h-362v-70h-61v658h143v123h-179l1 39c-37 -67 -71 -105 -105 -147c39 -95 47 -205 49 -312c1 -95 5 -204 -29 -292c-10 -25 -44 -53 -70 -58c-35 -6 -70 2 -105 6l-13 67c18 -4 35 -8 51 -11c19 -3 37 -5 55 -3c20 8 28 28 33 48
c5 19 6 39 9 60c7 45 6 172 6 246c-42 -72 -98 -134 -164 -195l-47 42c85 69 154 158 200 245c-5 38 -9 68 -22 107c-35 -45 -74 -78 -115 -112l-47 40c54 39 99 84 138 129c-28 48 -81 100 -133 137l42 38c54 -31 103 -85 133 -127c36 51 61 80 83 130l50 -31v12h577v-58
h-206zM688 720h-72v-124h72v124zM836 536h-88v-219c0 -23 4 -37 30 -40c15 -2 36 0 58 0v259zM836 217c-31 -1 -50 -1 -86 0c-15 1 -62 24 -62 72v247h-72v-68c0 -113 -20 -231 -93 -316c-15 10 -22 12 -47 31v-114h360v148zM475 536v-342c43 50 61 100 72 179
c7 56 7 100 6 163h-78z" />
    <glyph glyph-name="CNS1.15054" unicode="&#xe6d9;" 
d="M928 -4l-56 -27c-4 24 -16 54 -26 72c-99 -18 -176 -31 -313 -63l-34 63c74 81 131 169 184 259l-1 2c-64 -7 -128 -11 -188 -29l-28 57c76 88 132 181 169 285l54 -32c-40 -83 -81 -165 -143 -239c57 4 112 12 169 18c22 39 43 78 62 119c17 -10 35 -23 53 -33
c-68 -137 -146 -273 -251 -393l2 -2c98 21 184 31 237 46c-16 27 -37 56 -56 82l47 25c54 -78 95 -146 119 -210zM924 620h-657v-2l49 -33c-47 -85 -105 -184 -146 -233c57 4 114 12 171 17c27 43 51 89 73 136l54 -35l-94 -164c-50 -88 -111 -170 -188 -244l2 -2
c63 9 136 24 203 35c-11 32 -33 57 -49 86l48 24c45 -53 73 -117 97 -181l11 -42c-19 -10 -37 -21 -57 -29c-8 31 -13 59 -25 88c-91 -18 -204 -42 -291 -61l-33 62c86 99 144 168 213 265c-58 -3 -116 -12 -171 -26l-33 67c68 84 117 177 162 272h-198v57h288
c-17 28 -55 82 -104 131c15 12 30 26 49 32c48 -42 89 -89 120 -143c-6 -6 -16 -13 -24 -17v-2h196v2l-27 19c51 33 90 87 122 135c14 -9 29 -20 43 -30c-24 -46 -52 -92 -94 -125v-2h289z" />
    <glyph glyph-name="CNS1.15056" unicode="&#x205eb;" 
 />
    <glyph glyph-name="CNS1.15057" unicode="&#xe6dc;" 
 />
    <glyph glyph-name="CNS1.15058" unicode="&#x23ef8;" 
d="M869 517v96h-457v-98h-61l-1 158h162c-24 44 -66 76 -120 102l45 44c49 -21 93 -63 128 -106c-9 -9 -32 -28 -44 -40h86v166h66v-166h89l-40 40c50 31 80 57 120 110l48 -38c-34 -53 -73 -87 -118 -112h158v-156h-61zM288 637c-44 54 -94 99 -160 123l40 47
c61 -26 112 -67 160 -121zM823 15h-79l-16 60c37 -5 49 -5 68 -5c22 1 35 13 35 36v123h-162v-302h-63v302h-154v-224h-60v284h214v67h-141v193h347v-193h-143v-67h223v-196c0 -42 -20 -78 -69 -78zM215 419c-48 60 -97 102 -165 132l41 47c66 -31 123 -67 170 -132z
M122 -50l-48 41c100 110 141 222 176 361l57 -27c-37 -142 -79 -262 -185 -375zM752 491h-227v-75h227v75z" />
    <glyph glyph-name="CNS1.15061" unicode="&#x24917;" 
d="M925 59c-9 -48 -22 -85 -85 -85h-206c-47 0 -67 37 -67 72v403h62l-1 -182c68 19 178 80 237 149l40 -53c-79 -76 -183 -133 -276 -163v-134c0 -14 7 -34 23 -34h166c48 0 44 30 47 47c3 22 13 75 17 101l61 -21c-4 -25 -13 -76 -18 -100zM474 522c0 -55 2 -171 -5 -259
c-9 -115 -59 -266 -110 -331l-58 31c69 96 112 214 112 454v365h462v-261zM71 80l-23 57c29 6 75 17 127 31v253h-102v59h102v189h-112v59h291v-59h-117v-189h106v-59h-106v-235c50 16 94 28 126 36v-58c-53 -17 -230 -67 -292 -84zM812 724h-338v-143h339z" />
    <glyph glyph-name="CNS1.15063" unicode="&#xe6e2;" 
 />
    <glyph glyph-name="CNS1.15064" unicode="&#xe6e3;" 
 />
    <glyph glyph-name="CNS1.15065" unicode="&#x24adf;" 
 />
    <glyph glyph-name="CNS1.15066" unicode="&#x28c23;" 
 />
    <glyph glyph-name="CNS1.15067" unicode="&#x23f35;" 
 />
    <glyph glyph-name="CNS1.15068" unicode="&#xe6e7;" 
 />
    <glyph glyph-name="CNS1.15069" unicode="&#xe6e8;" 
 />
    <glyph glyph-name="CNS1.15070" unicode="&#xe6e9;" 
 />
    <glyph glyph-name="CNS1.15071" unicode="&#xe6ea;" 
d="M947 718l-1 -61h-582l1 60h276c-25 41 -69 71 -113 90l39 44c29 -11 56 -28 80 -48c18 -14 37 -33 51 -49c-12 -12 -22 -24 -32 -36h281zM965 39l-52 -45c-28 53 -62 104 -107 148c-28 28 -62 53 -97 69c14 12 29 27 43 39c88 -40 161 -132 213 -211zM862 308h-193v-310
c-6 -25 -23 -50 -48 -59c-38 -9 -81 -3 -122 -5c-5 10 -7 21 -11 33l-10 31l101 -4c10 2 19 9 24 18l4 15l1 281h-196v260h450v-260zM364 253l-1 -61c-26 -12 -55 -21 -82 -31c-20 -7 -40 -15 -61 -21c0 -3 -5 -2 -8 -3c-47 -17 -93 -36 -141 -51l-47 51
c52 14 102 32 152 50l1 242h-108v62l107 -1v196l-129 1v58h299v-59l-108 1l1 -197h96v-61h-96l-1 -218h7c38 16 80 27 119 42zM552 212c-24 -41 -60 -79 -95 -113c-36 -35 -77 -65 -118 -90l-53 45c28 14 55 32 83 49c15 15 32 27 48 42c34 31 67 65 90 104zM801 365v144
h-327l-1 -144h328z" />
    <glyph glyph-name="CNS1.15073" unicode="&#xe6ec;" 
 />
    <glyph glyph-name="CNS1.15074" unicode="&#xe6ed;" 
 />
    <glyph glyph-name="CNS1.15075" unicode="&#x26dea;" 
 />
    <glyph glyph-name="CNS1.15076" unicode="&#xe6ef;" 
 />
    <glyph glyph-name="CNS1.15077" unicode="&#xe6f0;" 
 />
    <glyph glyph-name="CNS1.15078" unicode="&#xe6f1;" 
 />
    <glyph glyph-name="CNS1.15079" unicode="&#x24cd9;" 
 />
    <glyph glyph-name="CNS1.15080" unicode="&#x24d06;" 
 />
    <glyph glyph-name="CNS1.15081" unicode="&#xe6f4;" 
 />
    <glyph glyph-name="CNS1.15082" unicode="&#xe6f5;" 
 />
    <glyph glyph-name="CNS1.15083" unicode="&#xe6f6;" 
 />
    <glyph glyph-name="CNS1.15084" unicode="&#x2a5c6;" 
 />
    <glyph glyph-name="CNS1.15085" 
 />
    <glyph glyph-name="CNS1.15086" unicode="&#xee8e;" 
 />
    <glyph glyph-name="CNS1.15087" unicode="&#x28acc;" 
 />
    <glyph glyph-name="CNS1.15088" unicode="&#x249ab;" 
 />
    <glyph glyph-name="CNS1.15089" unicode="&#x2498e;" 
 />
    <glyph glyph-name="CNS1.15090" unicode="&#xe6fd;" 
 />
    <glyph glyph-name="CNS1.15091" unicode="&#xe6fe;" 
 />
    <glyph glyph-name="CNS1.15092" unicode="&#x24a4e;" 
 />
    <glyph glyph-name="CNS1.15093" unicode="&#xe700;" 
d="M920 234c-5 -91 -14 -175 -27 -229c-14 -56 -50 -77 -108 -77c-10 0 -23 4 -38 9c-12 5 -25 10 -36 14c-5 17 -10 40 -15 70l76 -29c22 -8 47 0 59 23c22 45 33 343 36 399h-227v-74h139l1 -184l-38 1c29 -27 61 -75 72 -112l-51 -25c-3 11 -7 21 -15 32
c-59 -6 -210 -22 -345 -35l-14 54l190 16v68h-141l-1 163c-14 -13 -4 -4 -53 -50l-53 37c77 59 145 152 173 228h-78v249h463v-249h-374c19 -10 40 -18 50 -24l-18 -36h383c-2 -57 -6 -151 -10 -239zM86 59l-35 55c42 10 122 32 151 41v245h-118v59h118v210h-127v59h312v-59
h-120v-210h108v-59h-108v-225c63 18 95 29 136 44v-67zM825 723h-69v-131h69v131zM695 723h-71v-131h71v131zM563 723h-76v-131h76v131zM718 281h-78v-67h78v67zM579 414h-67c-13 -19 -34 -47 -56 -74h123v74zM731 155h-91v-62c19 0 51 2 81 7l-27 27c12 9 30 19 37 28z
M579 281h-80v-67h80v67z" />
    <glyph glyph-name="CNS1.15095" unicode="&#x248f3;" 
d="M710 385v-430h-63v430h-231v59h231v226c-60 -9 -135 -22 -189 -25l-27 58c155 11 320 40 433 94l39 -53c-53 -22 -129 -50 -194 -64l1 -236h233v-59h-233zM86 46c-14 19 -27 37 -39 51c59 18 113 30 139 39v265h-116v59h116v214h-136v59h333v-60l-135 1v-214h118v-59
h-118v-241l166 53v-61z" />
    <glyph glyph-name="CNS1.15097" unicode="&#xe704;" 
 />
    <glyph glyph-name="CNS1.15098" unicode="&#xe705;" 
 />
    <glyph glyph-name="CNS1.15099" unicode="&#x28ae3;" 
 />
    <glyph glyph-name="CNS1.15100" unicode="&#x21864;" 
 />
    <glyph glyph-name="CNS1.15101" unicode="&#xe708;" 
 />
    <glyph glyph-name="CNS1.15102" unicode="&#x25221;" 
 />
    <glyph glyph-name="CNS1.15103" unicode="&#x251e7;" 
 />
    <glyph glyph-name="CNS1.15104" unicode="&#xe70b;" 
d="M901 544l-425 1l1 -136c1 -160 -15 -318 -104 -446l-23 -33l-53 41c101 116 115 269 115 419v397h488zM880 -76h-61l-1 63l-235 -1v-60h-62v542h359v-544zM339 769l-1 -704l-61 -1l1 35h-119v-72h-61v742h241zM840 602v128h-153l1 -128h152zM630 602v128h-152l-1 -128
h153zM818 331v81h-235v-80zM819 189l-1 87h-235v-86zM278 572v138h-119v-138h119zM818 43v91l-235 1v-92h235zM278 516h-119v-148h118zM278 158v154l-119 1v-155h119z" />
    <glyph glyph-name="CNS1.15107" unicode="&#xe70e;" 
 />
    <glyph glyph-name="CNS1.15108" unicode="&#xe70f;" 
d="M855 567v107h-427v-107h-64v164h276c-28 35 -60 59 -104 83l46 40c46 -22 83 -51 113 -88l-41 -35h263v-164h-62zM453 538v57h377v-57h-377zM414 113v344h443v-344h-443zM315 -20v57h644v-57h-644zM271 64v33h-117v-68h-62v731h241v-696h-62zM795 400h-319v-83h319v83z
M795 260h-319v-88h319v88zM271 702h-117v-136h117v136zM271 508h-117v-143h117v143zM271 307h-117v-149h117v149z" />
    <glyph glyph-name="CNS1.15111" unicode="&#xe712;" 
 />
    <glyph glyph-name="CNS1.15112" unicode="&#x248f0;" 
d="M358 -2l-1 57h273v379h-219v59h219v332l64 1v-333h210v-59h-209v-379h253v-57h-590zM86 45c-14 20 -27 37 -39 51c59 18 113 30 139 40v264h-116v59h116v214h-136v59h333v-60l-135 1v-214h118v-59h-118v-241l166 53v-60z" />
    <glyph glyph-name="CNS1.15114" unicode="&#xe715;" 
 />
    <glyph glyph-name="CNS1.15115" unicode="&#xe716;" 
 />
    <glyph glyph-name="CNS1.15116" unicode="&#x24aba;" 
 />
    <glyph glyph-name="CNS1.15117" unicode="&#x24ac7;" 
 />
    <glyph glyph-name="CNS1.15118" unicode="&#xe719;" 
d="M954 567c-16 -50 -22 -119 -87 -133c-51 -1 -97 -2 -156 0c-24 4 -49 21 -58 44c-11 25 -5 55 -8 82v287l63 -1l-1 -180c10 1 19 4 28 8c49 19 96 44 135 85l44 -39c-58 -60 -130 -95 -206 -115v-85c0 -10 10 -19 17 -24c40 -9 81 -2 122 -4c25 4 29 31 37 48
c3 18 8 36 10 54c20 -8 40 -16 60 -27zM631 491l-129 -43c-1 -5 -9 0 -12 -4c-31 -10 -61 -23 -93 -31l-4 1l-39 43c26 10 36 39 36 65v320l63 1l1 -129h149v-58l-149 1v-162c59 19 117 40 177 59v-63zM868 -56h-67v57h-323v-62l-65 -1v435l113 1c29 27 52 57 67 92
c21 -9 41 -19 61 -28c-13 -23 -27 -46 -46 -65h260v-429zM359 708h-119c-10 -79 -29 -152 -56 -223l156 1l-1 -449h-60l1 55l-102 1v-58h-63l1 332c-16 -18 -31 -33 -48 -47h-4c-16 13 -29 29 -45 41c84 73 125 171 148 274c5 24 10 49 12 73h-138v62l317 1zM802 313
l-324 -1v-92h323zM802 160h-323l-1 -100h323zM279 154v269h-101v-270z" />
    <glyph glyph-name="CNS1.15120" unicode="&#x261ae;" 
 />
    <glyph glyph-name="CNS1.15121" unicode="&#xe71c;" 
 />
    <glyph glyph-name="CNS1.15122" unicode="&#x25581;" 
d="M789 129v-128c0 -31 -31 -63 -65 -63h-89l-20 64c19 -2 33 -4 45 -5c14 -1 26 -2 41 0c18 -1 25 14 25 27v106h-347v58h347v59h-286v376h130v63h-166v56h179c-18 23 -59 55 -96 67l34 41c46 -16 86 -43 118 -84l-27 -24h58c40 28 71 59 96 104l54 -34
c-18 -30 -40 -51 -62 -70h190v-56h-187v-63h127v-376h-99v-59h168v-59h-168zM236 682c1 -57 -18 -136 -42 -199h156v-448h-62v62h-92v-81h-62v349c-17 -28 -32 -50 -54 -75l-45 45c89 94 131 229 143 347h-104v59h295v-59h-133zM577 -6c-31 32 -70 55 -138 68l30 47
c69 -11 115 -38 144 -66zM825 566h-65v-45c0 -15 7 -25 28 -25h37v70zM701 686h-69v-63h69v63zM501 453v-149h324v136h-61c-24 0 -63 17 -63 54v72h-69c-1 -81 -36 -123 -97 -152zM779 403v-54h-233v54h233zM501 566v-105c40 23 69 40 69 105h-69zM288 424h-92v-268h92v268z
" />
    <glyph glyph-name="CNS1.15124" unicode="&#xe71f;" 
d="M856 459h-450v330h450v-330zM966 196h-155v-177c0 -43 -30 -88 -78 -88h-97l-26 63c37 -3 59 -6 98 -4c29 1 40 17 40 56v150h-397v59h397v80h-349v59h525v-59h-113v-80h155v-59zM613 66l-42 -45c-24 22 -51 45 -78 63c-31 20 -54 35 -88 45l39 40
c66 -22 124 -62 169 -103zM350 692h-122c-6 -72 -19 -139 -43 -204h139v-442h-62v51h-76v-81h-63v348c-12 -19 -26 -34 -40 -49l-46 45c88 90 120 210 131 332h-93v58h275v-58zM793 655v75h-325v-75h325zM793 518v78h-325v-78h325zM262 156v273h-76v-273h76z" />
    <glyph glyph-name="CNS1.15126" unicode="&#xe721;" 
 />
    <glyph glyph-name="CNS1.15127" unicode="&#xe722;" 
d="M942 -39l-61 -33c-11 33 -23 67 -41 96l-293 -42l-108 -20l-46 57c104 80 176 191 220 307l-218 1v58h233v195h-195v60l196 -1l-1 189h66l-1 -188h195v-59l-194 -1l-1 -195h234v-59l-248 1c-34 -107 -94 -204 -177 -291l306 43c-23 44 -65 76 -104 110l59 30
c88 -70 139 -164 179 -258zM417 183c-115 -41 -227 -81 -341 -122l-35 56c53 13 106 31 157 49v238h-117v57l117 1v206h-135v59h337v-59l-136 -1l-1 -205h117v-58h-116l-1 -213l154 53v-61z" />
    <glyph glyph-name="CNS1.15129" unicode="&#x27741;" 
 />
    <glyph glyph-name="CNS1.15130" unicode="&#x256e3;" 
 />
    <glyph glyph-name="CNS1.15131" unicode="&#xe726;" 
d="M853 476c-47 48 -116 85 -210 111c-57 -56 -127 -101 -200 -125l-38 55c95 21 172 76 206 142h-178v60h198c6 27 16 63 21 116l62 -16c-4 -42 -13 -72 -19 -100h196v-60h-210c-2 -7 -7 -15 -9 -22c89 -23 171 -63 230 -117zM846 391v-384c0 -46 -24 -72 -62 -72h-109
l-19 67c40 -4 72 -7 96 -7c20 0 31 10 31 29v367h-392v60h559v-60h-104zM522 92v-49h-63v283h240v-234h-177zM369 240c-20 50 -46 89 -93 136l1 -445h-63l-1 408c-28 -38 -56 -65 -107 -111l-52 47c113 89 192 190 242 315h-215v59h143c-18 56 -49 103 -93 150l51 34
c45 -46 82 -105 104 -154l-52 -30h130v-64c-12 -27 -64 -135 -87 -169v-33l44 34c42 -41 74 -92 99 -141c-18 -13 -33 -24 -51 -36zM636 266h-114v-114h114v114z" />
    <glyph glyph-name="CNS1.15133" 
 />
    <glyph glyph-name="CNS1.15134" unicode="&#xe729;" 
 />
    <glyph glyph-name="CNS1.15135" unicode="&#xe72a;" 
 />
    <glyph glyph-name="CNS1.15136" unicode="&#x23efa;" 
 />
    <glyph glyph-name="CNS1.15137" unicode="&#xe72c;" 
 />
    <glyph glyph-name="CNS1.15138" unicode="&#xe72d;" 
 />
    <glyph glyph-name="CNS1.15139" unicode="&#xe72e;" 
 />
    <glyph glyph-name="CNS1.15140" unicode="&#x216e6;" 
 />
    <glyph glyph-name="CNS1.15141" unicode="&#xe730;" 
 />
    <glyph glyph-name="CNS1.15142" unicode="&#xe731;" 
 />
    <glyph glyph-name="CNS1.15143" unicode="&#xe732;" 
 />
    <glyph glyph-name="CNS1.15144" unicode="&#x20d4c;" 
d="M854 573v87h-400v-86h-60v144h258c-26 39 -53 59 -101 86c15 13 26 28 42 40c48 -21 85 -53 119 -95c-31 -21 -22 -15 -44 -31h246v-145h-60zM355 -23v56h119v510h368v-510h112v-56h-599zM276 136v66h-110v-68h-61v579h233v-577h-62zM779 484h-242v-98h242v98zM779 328
h-242v-115h242v115zM779 154h-242v-121h242v121zM276 654h-110v-394h110v394z" />
    <glyph glyph-name="CNS1.15150" unicode="&#xe739;" 
d="M957 546l-1 -60h-249c-42 -39 -90 -75 -135 -108l282 -2v-453h-61v65h-273l1 -64h-61v384l-101 -59l-30 33v-155h-61v69h-105l-1 -69h-61v603h228v-424c99 44 201 107 288 177l-267 2l1 61h207l1 125h-152v60h152l-1 103h64v-103h156v-60h-156v-125h65
c77 74 145 155 192 243l47 -32c-41 -77 -94 -144 -155 -211h186zM793 213v105l-272 -1v-103zM793 48v110l-272 -1v-109h272zM268 258v411h-106l1 -411h105z" />
    <glyph glyph-name="CNS1.15152" unicode="&#xe73b;" 
 />
    <glyph glyph-name="CNS1.15153" unicode="&#x201d4;" 
 />
    <glyph glyph-name="CNS1.15154" unicode="&#x20c0d;" 
d="M627 634h269v-58l-222 1l-1 -217h186v-58h-186v-242h267v-58h-595v58h266v241h-183v59h183v216h-223v58h239zM628 649c-31 70 -76 122 -138 160l53 37c62 -42 110 -98 143 -163zM267 133v69h-107v-69h-61v580h230v-580h-62zM267 654h-107v-394h107v394z" />
    <glyph glyph-name="CNS1.15156" unicode="&#xe73f;" 
 />
    <glyph glyph-name="CNS1.15157" unicode="&#x226f5;" 
 />
    <glyph glyph-name="CNS1.15158" unicode="&#x25aaf;" 
 />
    <glyph glyph-name="CNS1.15159" unicode="&#x25a9c;" 
d="M349 690v59l280 1c-17 16 -20 19 -25 24c-20 18 -42 31 -68 39l47 38c40 -19 78 -45 108 -82l-19 -19l253 -1v-59h-576zM465 439v194h359v-194h-359zM866 247v76h-441v-76h-63l1 135h566v-135h-63zM208 640c-15 59 -37 104 -80 150l51 32c42 -45 70 -93 86 -156zM69 557
v59l301 1v-59zM684 190v-180c0 -42 -26 -75 -72 -75h-75l-23 62l77 -4c18 -1 29 13 29 29v168h-167v57h386v-57h-155zM145 196c6 105 0 206 -46 295l60 27c46 -93 49 -209 46 -319c-18 -1 -42 -2 -60 -3zM95 52l-36 52c39 9 98 24 145 35c53 113 84 240 80 377l63 -15
c-4 -125 -24 -235 -69 -338c28 6 52 12 88 22v-57zM761 578h-233v-83h233v83z" />
    <glyph glyph-name="CNS1.15161" unicode="&#x2025b;" 
 />
    <glyph glyph-name="CNS1.15162" unicode="&#xe745;" 
 />
    <glyph glyph-name="CNS1.15163" unicode="&#xe746;" 
 />
    <glyph glyph-name="CNS1.15164" unicode="&#x25bc6;" 
 />
    <glyph glyph-name="CNS1.15165" unicode="&#xe748;" 
 />
    <glyph glyph-name="CNS1.15166" unicode="&#xe749;" 
 />
    <glyph glyph-name="CNS1.15167" unicode="&#xe74a;" 
 />
    <glyph glyph-name="CNS1.15168" unicode="&#xe74b;" 
 />
    <glyph glyph-name="CNS1.15169" unicode="&#xe74c;" 
 />
    <glyph glyph-name="CNS1.15170" unicode="&#x25bb3;" 
 />
    <glyph glyph-name="CNS1.15171" unicode="&#x25ebc;" 
 />
    <glyph glyph-name="CNS1.15172" unicode="&#x25ea6;" 
 />
    <glyph glyph-name="CNS1.15173" unicode="&#xe750;" 
d="M952 593l-533 -1v58h167c-15 59 -61 115 -111 158l47 32c53 -45 98 -101 124 -161l-46 -27l130 -2l-38 30c53 39 92 103 116 158l47 -27c-13 -43 -37 -85 -66 -123c-9 -13 -22 -25 -34 -38h197v-57zM961 -47l-56 -21c-1 25 -4 36 -10 57c-63 -8 -130 -9 -189 -25l-32 54
c44 53 79 112 109 171c11 22 21 45 30 68c-42 0 -82 -7 -122 -14l-31 57c70 78 105 175 129 273l58 -22c-22 -88 -56 -169 -111 -242c32 1 65 4 98 7c16 45 31 89 42 136l56 -22c-38 -142 -88 -278 -181 -397c41 1 81 8 121 12c-10 25 -26 46 -42 68l51 17
c39 -55 71 -110 80 -177zM409 750c-7 -78 -26 -153 -61 -221l-58 22c38 65 61 136 64 214zM677 -49l-55 -22c-5 9 -3 24 -6 36l-6 26c-60 -8 -124 -13 -183 -28l-35 58c67 70 117 151 154 237c-38 -4 -79 -5 -115 -15l-32 54c73 82 111 179 136 283l54 -28
c-17 -80 -51 -148 -93 -218l-17 -23c31 1 62 6 93 7c19 44 35 89 49 134l53 -28c-12 -39 -27 -80 -43 -118c-38 -95 -87 -190 -157 -273c38 4 77 8 115 14c-10 23 -25 46 -39 65l50 18c38 -54 68 -112 77 -179zM180 552l-60 -18c3 80 -21 149 -55 214l51 19
c35 -68 59 -136 64 -215zM403 435h-137l1 -76l32 19c41 -44 85 -108 101 -165c-18 -10 -38 -19 -57 -28c-11 54 -39 106 -77 145l1 -407h-61v356c-30 -60 -74 -121 -128 -172l-48 35c80 80 154 183 173 293h-147v58h150v337h61v-338l135 1z" />
    <glyph glyph-name="CNS1.15175" unicode="&#x217b0;" 
 />
    <glyph glyph-name="CNS1.15176" unicode="&#xe753;" 
 />
    <glyph glyph-name="CNS1.15177" unicode="&#xe754;" 
d="M885 -71h-61v97h-359v585h61v-524h117v728l60 1v-730h121v525h61v-682zM434 725c-8 -65 -34 -128 -71 -184l-6 2c-14 10 -30 18 -43 29c40 53 61 111 73 176c16 -6 31 -15 47 -23zM192 564c-18 -9 -34 -18 -49 -24c-15 68 -49 130 -93 186l51 27c39 -64 74 -125 91 -189z
M435 438h-149v-55l45 18c50 -53 86 -113 97 -181c-17 -7 -34 -16 -52 -24c-11 64 -47 122 -90 173v-440h-61v369h-2c-44 -117 -104 -173 -152 -218l-43 45c97 88 154 196 191 311h-165v62h171v320h61l1 -320h148v-60z" />
    <glyph glyph-name="CNS1.15180" unicode="&#xe757;" 
 />
    <glyph glyph-name="CNS1.15181" unicode="&#xe758;" 
 />
    <glyph glyph-name="CNS1.15182" unicode="&#xe759;" 
 />
    <glyph glyph-name="CNS1.15183" unicode="&#xe75a;" 
d="M885 667l-451 1v58h451v-59zM923 394h-547v59h547v-59zM949 2c-17 -13 -36 -27 -55 -38c-16 32 -32 65 -54 96c-157 -21 -280 -45 -405 -80c-14 18 -25 41 -37 61c105 102 167 222 217 347c21 -7 38 -22 60 -28c-46 -106 -100 -208 -181 -298c89 12 216 38 303 54
c-23 30 -55 60 -82 85l48 34c74 -63 132 -132 186 -233zM417 192l-333 -126l-35 61c52 12 104 27 153 46v339h-137v59h136v254h61v-255h135v-58h-136v-313c36 10 102 37 156 56v-63z" />
    <glyph glyph-name="CNS1.15185" unicode="&#x2615c;" 
 />
    <glyph glyph-name="CNS1.15186" unicode="&#x27b48;" 
 />
    <glyph glyph-name="CNS1.15187" unicode="&#xe75e;" 
 />
    <glyph glyph-name="CNS1.15188" unicode="&#x25e82;" 
 />
    <glyph glyph-name="CNS1.15189" unicode="&#xe760;" 
 />
    <glyph glyph-name="CNS1.15190" unicode="&#x26b75;" 
 />
    <glyph glyph-name="CNS1.15191" unicode="&#x20916;" 
 />
    <glyph glyph-name="CNS1.15192" unicode="&#xe763;" 
 />
    <glyph glyph-name="CNS1.15193" unicode="&#x2004e;" 
 />
    <glyph glyph-name="CNS1.15194" unicode="&#x235cf;" 
 />
    <glyph glyph-name="CNS1.15195" unicode="&#xe766;" 
 />
    <glyph glyph-name="CNS1.15196" unicode="&#x26412;" 
 />
    <glyph glyph-name="CNS1.15197" unicode="&#x263f8;" 
 />
    <glyph glyph-name="CNS1.15198" unicode="&#xe76a;" 
 />
    <glyph glyph-name="CNS1.15199" unicode="&#xe76b;" 
 />
    <glyph glyph-name="CNS1.15200" unicode="&#x2082c;" 
 />
    <glyph glyph-name="CNS1.15201" unicode="&#x25ae9;" 
 />
    <glyph glyph-name="CNS1.15202" unicode="&#x25d43;" 
 />
    <glyph glyph-name="CNS1.15203" unicode="&#xe76f;" 
 />
    <glyph glyph-name="CNS1.15204" unicode="&#x25e0e;" 
 />
    <glyph glyph-name="CNS1.15205" unicode="&#xe771;" 
 />
    <glyph glyph-name="CNS1.15206" unicode="&#xe772;" 
 />
    <glyph glyph-name="CNS1.15207" unicode="&#xe773;" 
 />
    <glyph glyph-name="CNS1.15208" unicode="&#xe774;" 
 />
    <glyph glyph-name="CNS1.15209" unicode="&#x2343f;" 
d="M891 -56c-159 202 -221 413 -238 665h-29c-24 -73 -50 -141 -84 -210v-356l154 93v-68l-190 -116l-48 41c23 24 24 67 24 87v239c-30 -46 -67 -97 -138 -156l-46 42c164 133 231 299 261 404h-167v-47h-125v-112l39 27c27 -24 61 -83 80 -148l-58 -30
c-12 54 -30 95 -61 133v-502h-62v441l-15 -36c-22 -52 -54 -102 -101 -160l-51 39c86 91 142 226 166 348h-130v59h131v197h62v-197h101v45h281c-25 49 -78 101 -132 129l46 39c61 -35 113 -87 145 -136l-42 -31h266v-58h-215c1 -87 26 -224 44 -272c39 41 75 94 102 158
l54 -37c-28 -70 -92 -143 -137 -191c27 -94 94 -203 170 -292z" />
    <glyph glyph-name="CNS1.15211" unicode="&#x265ad;" 
 />
    <glyph glyph-name="CNS1.15212" unicode="&#xe779;" 
 />
    <glyph glyph-name="CNS1.15213" unicode="&#x265a0;" 
 />
    <glyph glyph-name="CNS1.15214" 
 />
    <glyph glyph-name="CNS1.15215" unicode="&#x27127;" 
 />
    <glyph glyph-name="CNS1.15216" unicode="&#x26cd1;" 
 />
    <glyph glyph-name="CNS1.15217" unicode="&#xe77e;" 
d="M928 706h-230v-79h-63v79h-287v-76l-63 1v75h-232l-1 60h233v62h63v-62l287 -1v63h63v-62l230 -1v-59zM857 268c3 -92 -6 -176 -17 -263c-4 -30 -24 -57 -50 -71c-49 -17 -111 -8 -160 1c-7 22 -14 45 -21 67c45 -11 89 -19 133 -19c14 0 28 11 33 24
c14 63 17 133 20 202l-101 1c-29 -150 -188 -243 -324 -269c-29 -6 -55 -15 -86 -16c-14 18 -29 36 -42 55c133 13 270 45 358 155c17 22 29 47 36 74h-107c-61 -105 -176 -163 -288 -177l-63 -8c-15 17 -31 36 -45 55c91 -1 183 25 259 69c27 16 49 40 69 61l-145 1
c-68 -47 -147 -70 -229 -85l-46 51c120 16 240 52 318 152h-161v281h608v-280h-378c-12 -21 -29 -41 -45 -60zM740 501v51h-478v-51h478zM740 387v58h-478v-57z" />
    <glyph glyph-name="CNS1.15220" unicode="&#xe781;" 
d="M875 163h-412v578h412v-578zM955 -31h-558v60h558v-60zM367 2c0 -34 -20 -71 -64 -71h-84l-20 63c35 -4 59 -5 78 -5c17 0 27 9 27 28v282h-131v-69c0 -108 -17 -213 -78 -311l-52 41c65 106 67 208 67 326v492h257v-776zM811 496v185h-284v-185h284zM811 223v214h-284
v-214h284zM304 568v150h-131v-150h131zM304 358v151h-131v-151h131z" />
    <glyph glyph-name="CNS1.15223" unicode="&#x267b4;" 
d="M963 489l-43 -51c-18 10 -58 35 -81 52l-1 -338h-170v-102c0 -23 21 -30 43 -30h104c53 0 55 66 64 105l59 -22c-12 -54 -29 -142 -100 -142h-153c-45 0 -81 25 -81 63v128h-171v337c-26 -17 -52 -34 -79 -47l-20 22v-438c0 -44 -25 -83 -75 -83h-62l-20 62
c35 -5 48 -5 67 -3c13 2 27 17 27 37v275h-113v-50c0 -107 -17 -251 -89 -336l-50 41c77 110 76 215 76 334v492h239v-290c67 35 139 94 186 159h-160v61h196c21 39 37 82 50 124l57 -22c-10 -34 -21 -71 -36 -102h291v-61h-157c30 -60 125 -144 202 -175zM822 502v2
c-49 37 -104 102 -138 160h-88c-31 -62 -94 -120 -150 -160v-2h158v110h64v-110h154zM776 361v81h-108v-81h108zM776 212v93h-108v-93h108zM604 361v81h-108v-81h108zM271 583v152h-113v-152h113zM604 212v93h-108v-93h108zM271 373v151h-113v-151h113z" />
    <glyph glyph-name="CNS1.15225" unicode="&#x26a42;" 
 />
    <glyph glyph-name="CNS1.15226" unicode="&#xe787;" 
 />
    <glyph glyph-name="CNS1.15227" unicode="&#xe788;" 
 />
    <glyph glyph-name="CNS1.15228" unicode="&#x26a51;" 
 />
    <glyph glyph-name="CNS1.15229" unicode="&#xe78a;" 
 />
    <glyph glyph-name="CNS1.15230" unicode="&#x26da7;" 
 />
    <glyph glyph-name="CNS1.15231" unicode="&#xe78c;" 
 />
    <glyph glyph-name="CNS1.15232" unicode="&#x2721b;" 
 />
    <glyph glyph-name="CNS1.15233" unicode="&#xe78e;" 
 />
    <glyph glyph-name="CNS1.15234" unicode="&#xe78f;" 
 />
    <glyph glyph-name="CNS1.15235" unicode="&#x21840;" 
 />
    <glyph glyph-name="CNS1.15236" unicode="&#xe791;" 
 />
    <glyph glyph-name="CNS1.15237" unicode="&#x218a1;" 
 />
    <glyph glyph-name="CNS1.15238" unicode="&#xe793;" 
 />
    <glyph glyph-name="CNS1.15239" unicode="&#x218d8;" 
 />
    <glyph glyph-name="CNS1.15240" unicode="&#xe795;" 
 />
    <glyph glyph-name="CNS1.15241" unicode="&#x2f9bc;" 
 />
    <glyph glyph-name="CNS1.15242" unicode="&#x23d8f;" 
d="M929 -26h-283c-78 8 -139 27 -206 97c-15 -40 -86 -123 -117 -144l-49 49c101 59 136 158 137 271c22 -5 40 -6 61 -12c1 -19 -1 -37 -3 -53c-2 -18 -6 -34 -10 -53c33 -37 72 -69 116 -81v235l-184 -1v60l184 -1v84h-240v55h240v70h-185v59h185v70h-241v58h241v99h63
v-99h258v-58h-258v-71h212v-128h89v-55h-89v-142h-212v-83h247v-57h-247v-108c102 -3 205 2 313 4zM246 605c-32 54 -72 110 -143 142l42 42c66 -24 125 -94 150 -139zM196 392c-28 52 -80 120 -152 157l39 42c93 -47 143 -120 161 -149zM115 -54l-52 45
c83 84 137 231 157 339l56 -28c-15 -108 -78 -257 -161 -356zM785 550h-148v-70h148v70zM785 425h-147v-84h147v84z" />
    <glyph glyph-name="CNS1.15244" unicode="&#x27422;" 
 />
    <glyph glyph-name="CNS1.15245" unicode="&#xe79a;" 
 />
    <glyph glyph-name="CNS1.15246" unicode="&#xe79b;" 
d="M920 454l-54 -35c-56 82 -145 148 -235 181l47 41c93 -35 179 -104 242 -187zM927 666l-863 -1v62h438c-29 34 -67 60 -107 74l45 43c49 -16 94 -54 128 -94l-27 -23h386v-61zM786 344l-56 -30c-10 23 -24 43 -37 62l-273 -13c-42 -2 -84 -8 -126 -10l-47 55
c7 6 19 11 29 17c83 53 154 134 193 221l56 -38c-38 -73 -91 -139 -160 -185l232 7c17 1 33 4 50 4c-25 29 -60 52 -92 70l56 30c76 -38 137 -115 175 -190zM952 -23l-42 -53c-159 42 -329 134 -402 295c-4 12 -12 23 -15 36l47 33c5 -7 8 -16 12 -24c21 -37 41 -77 71 -110
c66 31 128 78 170 140l48 -38c-42 -64 -111 -110 -176 -144c74 -61 163 -104 255 -127zM354 598c-60 -87 -146 -149 -239 -185l-49 46c95 31 180 93 243 175zM524 38c-72 -31 -141 -64 -211 -101l-42 39c17 12 21 32 24 52v133l-33 -21c-58 -26 -117 -50 -178 -66l-41 52
c22 9 48 13 71 21c118 39 231 102 318 197l48 -35c-34 -41 -78 -77 -121 -108l1 -172l163 73z" />
    <glyph glyph-name="CNS1.15248" unicode="&#xe79d;" 
 />
    <glyph glyph-name="CNS1.15249" unicode="&#xe79e;" 
 />
    <glyph glyph-name="CNS1.15250" unicode="&#xe79f;" 
 />
    <glyph glyph-name="CNS1.15251" unicode="&#xe7a0;" 
 />
    <glyph glyph-name="CNS1.15252" unicode="&#xe7a1;" 
 />
    <glyph glyph-name="CNS1.15253" unicode="&#x25683;" 
d="M947 -17h-906v65h416v126h-309v62h309v114h-305l1 453h664l-1 -453h-297v-114h317v-62h-317v-127h428v-64zM754 610v131h-235v-131h235zM754 412v139h-234l-1 -139h235zM456 610v132l-236 -1v-131h236zM457 412l-1 139h-236v-139h237z" />
    <glyph glyph-name="CNS1.15255" unicode="&#x27785;" 
 />
    <glyph glyph-name="CNS1.15256" unicode="&#x27784;" 
 />
    <glyph glyph-name="CNS1.15257" unicode="&#x28bf5;" 
 />
    <glyph glyph-name="CNS1.15258" unicode="&#x28bd9;" 
 />
    <glyph glyph-name="CNS1.15259" unicode="&#x28b9c;" 
 />
    <glyph glyph-name="CNS1.15260" unicode="&#x289f9;" 
 />
    <glyph glyph-name="CNS1.15261" unicode="&#xe7aa;" 
d="M699 390v-357c0 -49 -44 -84 -85 -84c-44 0 -64 0 -94 3l-21 65c14 -2 25 -4 36 -6c13 -2 24 -4 32 -4c15 0 32 -4 46 2c17 7 25 26 25 64l-1 317h-226v59h226v97c59 50 125 130 158 182h-309v59h388v-60c-54 -82 -111 -150 -175 -210v-68h254v-59h-254zM77 57l-31 58
c40 10 113 32 141 41v245h-121v59h121v210h-135v59h342v-59h-142v-210h123v-59h-123v-225c64 17 109 36 152 53l1 -66z" />
    <glyph glyph-name="CNS1.15263" unicode="&#xe7ac;" 
 />
    <glyph glyph-name="CNS1.15264" unicode="&#xe7ad;" 
 />
    <glyph glyph-name="CNS1.15265" unicode="&#xe7ae;" 
 />
    <glyph glyph-name="CNS1.15266" unicode="&#xe7af;" 
 />
    <glyph glyph-name="CNS1.15267" unicode="&#xe7b0;" 
 />
    <glyph glyph-name="CNS1.15268" unicode="&#x29448;" 
 />
    <glyph glyph-name="CNS1.15269" unicode="&#xe7b2;" 
d="M943 632h-493v-240c0 -123 0 -252 -48 -353c-18 -38 -39 -67 -64 -103l-55 40c40 56 74 115 89 181c13 57 16 121 16 180c0 147 1 209 0 356h274c-26 37 -75 76 -114 97c14 12 31 28 45 43c53 -30 107 -77 131 -109l-33 -31h252v-61zM319 337c-6 -117 2 -228 -32 -330
c-11 -23 -34 -41 -57 -46c-35 -7 -100 5 -129 15l-18 70c27 -11 87 -21 116 -27c10 0 19 3 26 8l8 12c21 76 18 156 23 239h-183c14 118 24 204 35 293h144l-1 168h-193v59h257v-285h-152c-9 -58 -15 -117 -22 -175z" />
    <glyph glyph-name="CNS1.15271" unicode="&#x24284;" 
d="M388 175c18 -24 28 -39 34 -50l-51 -37c-25 45 -76 108 -129 135c-13 -82 -52 -189 -153 -284l-47 44c115 100 151 234 151 374v466h62v-299c26 16 72 65 97 108l53 -41c-44 -60 -108 -117 -152 -147c3 -42 3 -109 -2 -160c32 -9 72 -41 121 -92l1 41h93v425h-96v58h96
v116h63v-116h233v117h63v-117h88v-58h-88v-425h117v-58h-554zM901 -65c-34 49 -123 135 -211 173l35 41c87 -29 179 -111 229 -172zM101 340l-55 25c40 73 58 180 60 247l56 -15c-7 -102 -21 -181 -61 -257zM350 -67l-45 50c81 25 169 85 223 166l49 -39
c-56 -83 -132 -138 -227 -177zM762 658h-233v-92h233v92zM762 508h-233v-101h233v101zM762 348h-233v-115h233v115z" />
    <glyph glyph-name="CNS1.15273" unicode="&#xe7b6;" 
 />
    <glyph glyph-name="CNS1.15274" unicode="&#xe7b7;" 
 />
    <glyph glyph-name="CNS1.15275" unicode="&#x21845;" 
 />
    <glyph glyph-name="CNS1.15276" unicode="&#xe7b9;" 
 />
    <glyph glyph-name="CNS1.15277" unicode="&#xe7ba;" 
 />
    <glyph glyph-name="CNS1.15278" unicode="&#xe7bb;" 
 />
    <glyph glyph-name="CNS1.15279" unicode="&#x27ddc;" 
 />
    <glyph glyph-name="CNS1.15280" unicode="&#xe7bd;" 
 />
    <glyph glyph-name="CNS1.15281" unicode="&#xe7be;" 
 />
    <glyph glyph-name="CNS1.15282" unicode="&#xe7bf;" 
 />
    <glyph glyph-name="CNS1.15283" unicode="&#xe7c1;" 
d="M600 688c35 -51 59 -84 98 -117c41 32 77 71 100 116zM896 324h-180v-61h140v-58h-140v-66h216v-58h-217l1 -146h-62v146h-219v58h219v66h-144v59h144v60h-182v58h182v70h62v-70h180v-58zM648 537c-33 30 -66 70 -83 92c-21 -30 -51 -71 -97 -102l-45 38
c93 77 143 164 163 278l56 -22c-4 -28 -12 -52 -18 -75l246 -1v-54c-29 -61 -75 -114 -127 -159c67 -42 138 -75 226 -92l-32 -54c-113 24 -224 96 -244 111c-84 -61 -235 -114 -273 -117c-5 9 -13 23 -27 52c98 20 180 58 255 105zM312 189c25 -20 54 -50 95 -102l-46 -49
c-28 33 -53 69 -85 98c-48 -68 -107 -128 -183 -185l-41 50c81 61 138 117 175 174c-34 30 -72 59 -130 89c29 86 56 194 72 307h-104v58h111l21 191l64 -10l-24 -181h159c-1 -67 -1 -126 -10 -192c-15 -114 -39 -188 -74 -248zM232 571c-17 -93 -30 -194 -65 -283l97 -59
c47 89 69 198 69 342h-101z" />
    <glyph glyph-name="CNS1.15286" unicode="&#x24c09;" 
 />
    <glyph glyph-name="CNS1.15287" unicode="&#xe7c5;" 
 />
    <glyph glyph-name="CNS1.15288" unicode="&#xe7c6;" 
 />
    <glyph glyph-name="CNS1.15289" unicode="&#xe7c7;" 
 />
    <glyph glyph-name="CNS1.15290" unicode="&#xe7c8;" 
 />
    <glyph glyph-name="CNS1.15291" unicode="&#xe7c9;" 
 />
    <glyph glyph-name="CNS1.15292" unicode="&#x22321;" 
 />
    <glyph glyph-name="CNS1.15293" unicode="&#xe7cb;" 
 />
    <glyph glyph-name="CNS1.15294" unicode="&#xe7cc;" 
 />
    <glyph glyph-name="CNS1.15295" unicode="&#xe7cd;" 
 />
    <glyph glyph-name="CNS1.15296" unicode="&#x217da;" 
 />
    <glyph glyph-name="CNS1.15297" unicode="&#xe7cf;" 
 />
    <glyph glyph-name="CNS1.15298" unicode="&#xe7d0;" 
 />
    <glyph glyph-name="CNS1.15299" unicode="&#x2492f;" 
d="M744 685c-55 42 -126 75 -229 102l28 52c95 -24 174 -59 239 -104zM916 36c-88 78 -150 165 -201 295v-314c0 -42 -25 -68 -70 -76c-42 -1 -75 -2 -98 -2l-18 59h100c12 2 25 7 25 20v589h-210v59h271v-180c11 -30 19 -54 26 -71c6 -17 10 -28 16 -39
c56 26 102 72 144 141l49 -43c-48 -69 -102 -121 -166 -158c41 -87 101 -164 184 -237zM407 33l-50 39c110 78 184 228 204 350h-165v59h230c-10 -202 -75 -314 -219 -448zM67 54l-29 55c42 13 105 29 141 42v249h-110v59h110v196h-123v59h334v-59h-149v-196h114v-59h-114
v-229c53 16 122 36 165 52v-60c-72 -25 -262 -82 -339 -109z" />
    <glyph glyph-name="CNS1.15302" unicode="&#xe7d4;" 
d="M897 767l-1 -213h-489v215h63l1 -155l150 -1v221h63v-221l148 1v153h65zM954 395h-333c-19 -50 -44 -98 -74 -139l324 1v-332h-61v72h-277l-1 -71h-59l-1 238c-43 -42 -89 -79 -138 -110l-42 50c111 64 217 171 260 291h-198v59h600v-59zM326 161h-59l-1 51l-102 1
l-1 -69h-58v586h221v-569zM810 56v140l-276 1l-1 -142zM267 273l-1 396h-102v-396h103z" />
    <glyph glyph-name="CNS1.15304" unicode="&#xe7d6;" 
 />
    <glyph glyph-name="CNS1.15305" unicode="&#xe7d7;" 
 />
    <glyph glyph-name="CNS1.15306" unicode="&#x28a4b;" 
 />
    <glyph glyph-name="CNS1.15307" unicode="&#xe7d9;" 
 />
    <glyph glyph-name="CNS1.15308" unicode="&#x28afc;" 
 />
    <glyph glyph-name="CNS1.15309" unicode="&#xe7db;" 
d="M562 685c-16 -14 -37 -27 -52 -37c-23 53 -60 100 -104 141l49 30c44 -37 80 -86 107 -134zM912 8c3 -29 -30 -60 -59 -65c-30 -5 -63 -3 -95 -4c-8 21 -14 42 -21 63c31 -3 61 -10 92 -5c9 2 17 9 20 17l3 26v681h-241v56h301v-769zM778 104h-58v45h-129l-1 -63h-59v468
h247v-450zM456 -66h-59l-1 682h60v-682zM381 629h-174c-5 -28 -26 -82 -41 -116h204v-59h-109v-98h118v-59h-118v-225l115 70v-62l-169 -118l-38 55c25 21 29 41 29 71v209h-137v59h137v98h-61c-25 -35 -27 -50 -61 -79l-47 40c91 90 141 245 151 409l56 -15
c-1 -50 -13 -97 -16 -121h161v-59zM720 389v109h-130v-109h130zM721 204v129h-130v-129h130z" />
    <glyph glyph-name="CNS1.15311" unicode="&#x28c3b;" 
 />
    <glyph glyph-name="CNS1.15312" unicode="&#xe7de;" 
d="M912 700h-252v-66h-59v66h-229v-63h-59v63h-248v55h248v72h59v-72h229v72h59v-72h252v-55zM940 267l-33 -54c-89 27 -170 57 -247 101v-27h-139v-61h237v-55h-237v-122h103c-7 6 -24 20 -34 31c51 24 79 63 103 85l44 -35c-30 -40 -74 -69 -93 -81h268v-55h-847v55h279
c-22 31 -62 62 -100 83l39 32c37 -10 87 -55 110 -86c-10 -9 -29 -21 -40 -29h105v122h-241v55h241v61h-145v18c-75 -43 -157 -69 -246 -95l-34 54c184 39 335 125 447 272h-317v-98h-63v153h773v-153h-59v98h-324c32 -18 23 -13 49 -29l-13 -22c102 -110 268 -184 414 -218
zM609 343c-49 31 -109 85 -122 99c-35 -38 -82 -71 -120 -99h242z" />
    <glyph glyph-name="CNS1.15314" unicode="&#xe7e0;" 
 />
    <glyph glyph-name="CNS1.15315" unicode="&#xe7e1;" 
d="M339 744l-45 -49c-45 45 -95 79 -147 99l32 46c52 -15 119 -59 160 -96zM887 783l-1 -754c0 -50 -16 -64 -49 -71c-27 -6 -61 -5 -106 -5l-20 58l90 -3c14 0 24 8 24 33l-1 684h-428v58h491zM787 244h-585v63l151 -1v141h-111v60h111v128h62v-128h154v129h62v-129h119
l-1 -60h-118v-140l156 -1v-62zM775 72l-42 -46c-40 55 -129 127 -190 149l41 42c69 -30 148 -90 191 -145zM163 -58h-62v762h62v-762zM452 187c-49 -68 -142 -134 -216 -161l-43 48c74 22 166 85 215 151zM569 307v141h-154v-140z" />
    <glyph glyph-name="CNS1.15317" unicode="&#xe7e3;" 
 />
    <glyph glyph-name="CNS1.15318" unicode="&#x28d34;" 
 />
    <glyph glyph-name="CNS1.15319" unicode="&#xe7e5;" 
 />
    <glyph glyph-name="CNS1.15320" unicode="&#xe7e6;" 
d="M800 324v-389h-63v389h-131c-7 -134 -48 -277 -224 -389l-46 53c83 49 204 142 206 336h-156v61h157v208h-132v61h177c-30 73 -58 107 -109 157l47 35c44 -33 99 -112 116 -161c-13 -9 -34 -25 -46 -31h89c52 62 82 119 108 192l55 -35c-24 -59 -49 -111 -87 -157h164
v-61h-125v-208h156v-61h-156zM76 43l-31 58c41 10 119 34 147 43v242h-114v59h114v210h-129v59h321v-59h-126v-210h98v-59h-98v-222c25 7 103 34 145 50v-66zM737 593h-131v-208h131v208z" />
    <glyph glyph-name="CNS1.15323" unicode="&#x243ea;" 
 />
    <glyph glyph-name="CNS1.15324" unicode="&#xe7ea;" 
d="M824 444v-139h-61v139h-136c10 53 25 136 30 184l60 -9l-16 -116h62v160h-102v59h102v106h61v-106h94v-59h-94v-160h113v-59h-113zM377 323c61 40 106 94 136 145c-17 22 -31 38 -61 56l37 40c14 -9 20 -12 45 -42c15 34 31 97 31 144h-70c-11 -55 -65 -145 -101 -182
l-47 36c84 101 104 189 121 307l59 -16c-5 -38 -10 -61 -16 -86h119c-11 -195 -50 -332 -204 -442zM606 274v84h65v-84h255v-59h-171c49 -81 128 -142 199 -177l-39 -50c-94 57 -169 118 -231 227h-13v-285h-63v285c-37 -111 -162 -217 -228 -245c-14 16 -30 30 -45 45
c102 50 181 142 206 200h-162v-54l-300 -103l-35 56c41 11 118 39 146 48v239h-102v59h102v209h-116v59h298v-59h-116v-209h104v-59h-104v-219c30 13 70 23 99 34v58h74h177z" />
    <glyph glyph-name="CNS1.15326" unicode="&#xe7ec;" 
d="M925 673h-241c-8 -27 -19 -51 -31 -76h231v-427c-4 -25 -20 -48 -44 -57c-28 -11 -62 -2 -94 -3c-7 20 -15 42 -22 63l80 -6c8 -1 15 7 20 13v84h-192v-175h-61v370c-15 -16 -31 -34 -48 -47l-47 47c70 59 112 136 143 213h-126v60h145c12 31 18 66 24 100
c18 -7 37 -16 55 -23c-2 -26 -10 -52 -15 -77h223v-59zM507 567c-18 -13 -34 -29 -53 -39c-18 51 -55 101 -104 136l52 37c45 -38 85 -84 105 -134zM952 38c-7 -23 -17 -44 -23 -67l-111 1l-167 2c-80 1 -150 46 -200 113c-25 -39 -100 -102 -136 -126l-42 52
c47 36 93 74 134 118v272h-70v57h129v-308c57 -79 140 -122 236 -122h159zM351 736c-26 -75 -58 -150 -102 -217c35 -37 73 -96 99 -155c18 -42 19 -103 -14 -139c-33 -37 -82 -46 -131 -37l-21 69c36 -4 89 -28 113 15c15 26 2 58 -7 83c-29 47 -79 113 -113 161
c50 67 84 140 109 218h-121v-800h-60v860h248v-58zM824 458v80h-193v-80h193zM824 320v81h-193v-81h193z" />
    <glyph glyph-name="CNS1.15333" unicode="&#x23fee;" 
 />
    <glyph glyph-name="CNS1.15334" unicode="&#xe7f4;" 
 />
    <glyph glyph-name="CNS1.15335" unicode="&#xe7f5;" 
 />
    <glyph glyph-name="CNS1.15336" unicode="&#xe7f6;" 
d="M750 733v-51h152v-195h-520v195h150v51h-187v-60h-102v-213h105v-59h-105v-216c24 11 75 31 118 47v-66l-284 -108l-31 58c18 5 41 14 63 22c27 10 51 19 69 25v238h-96v59h96v213h-108v60h264v56h604v-56h-188zM675 65v-136h-62v136h-272v59h272v57h-188v263h439v-263
h-189v-57h280v-59h-280zM840 626h-90v-86h90v86zM688 733h-94v-51h94v51zM688 626h-94v-86h94v86zM532 626h-88v-86h88v86zM801 385h-314v-48h314v48zM801 290h-314v-50h314v50z" />
    <glyph glyph-name="CNS1.15338" unicode="&#x290b0;" 
 />
    <glyph glyph-name="CNS1.15339" unicode="&#xe7f9;" 
 />
    <glyph glyph-name="CNS1.15340" unicode="&#xe7fa;" 
 />
    <glyph glyph-name="CNS1.15341" unicode="&#x29093;" 
 />
    <glyph glyph-name="CNS1.15342" unicode="&#x257df;" 
 />
    <glyph glyph-name="CNS1.15343" 
 />
    <glyph glyph-name="CNS1.15344" unicode="&#xe7fe;" 
 />
    <glyph glyph-name="CNS1.15345" unicode="&#x28989;" 
 />
    <glyph glyph-name="CNS1.15346" unicode="&#x28c26;" 
 />
    <glyph glyph-name="CNS1.15347" unicode="&#x28b2f;" 
 />
    <glyph glyph-name="CNS1.15348" unicode="&#x263be;" 
 />
    <glyph glyph-name="CNS1.15349" unicode="&#xe803;" 
 />
    <glyph glyph-name="CNS1.15350" unicode="&#xe804;" 
 />
    <glyph glyph-name="CNS1.15351" unicode="&#xe805;" 
 />
    <glyph glyph-name="CNS1.15352" unicode="&#xe806;" 
 />
    <glyph glyph-name="CNS1.15353" unicode="&#xe807;" 
 />
    <glyph glyph-name="CNS1.15354" unicode="&#x2421b;" 
 />
    <glyph glyph-name="CNS1.15355" unicode="&#xe809;" 
 />
    </font>
</defs>
</svg>
